FiraCode-Light.ufo
<glyph name="exclam" format="2">
  <advance width="1200"/>
  <unicode hex="0021"/>
  <outline>
    <contour>
      <point x="666" y="1374" type="line"/>
      <point x="522" y="1374" type="line"/>
      <point x="535" y="437" type="line"/>
      <point x="655" y="437" type="line"/>
    </contour>
    <contour>
      <point x="597" y="220" type="curve" smooth="yes"/>
      <point x="529" y="220"/>
      <point x="479" y="167"/>
      <point x="479" y="102" type="curve" smooth="yes"/>
      <point x="479" y="34"/>
      <point x="529" y="-20"/>
      <point x="597" y="-20" type="curve" smooth="yes"/>
      <point x="667" y="-20"/>
      <point x="719" y="34"/>
      <point x="719" y="102" type="curve" smooth="yes"/>
      <point x="719" y="167"/>
      <point x="667" y="220"/>
    </contour>
  </outline>
</glyph>
<glyph name="quotesingle" format="2">
  <advance width="1200"/>
  <unicode hex="0027"/>
  <outline>
    <contour>
      <point x="538" y="967" type="line"/>
      <point x="663" y="967" type="line"/>
      <point x="692" y="1475" type="line"/>
      <point x="509" y="1475" type="line"/>
    </contour>
  </outline>
</glyph>
<glyph name="parenright" format="2">
  <advance width="1200"/>
  <unicode hex="0029"/>
  <outline>
    <contour>
      <point x="803" y="700" type="curve" smooth="yes"/>
      <point x="803" y="257"/>
      <point x="647" y="36"/>
      <point x="361" y="-200" type="curve"/>
      <point x="421" y="-270" type="line"/>
      <point x="748" y="-7"/>
      <point x="937" y="239"/>
      <point x="937" y="700" type="curve" smooth="yes"/>
      <point x="937" y="1161"/>
      <point x="748" y="1407"/>
      <point x="421" y="1670" type="curve"/>
      <point x="361" y="1600" type="line"/>
      <point x="655" y="1355"/>
      <point x="803" y="1146"/>
    </contour>
  </outline>
</glyph>
<glyph name="six" format="2">
  <advance width="1200"/>
  <unicode hex="0036"/>
  <outline>
    <contour>
      <point x="662" y="1393" type="curve"/>
      <point x="355" y="1393"/>
      <point x="176" y="1111"/>
      <point x="176" y="658" type="curve" smooth="yes"/>
      <point x="176" y="233"/>
      <point x="291" y="-20"/>
      <point x="616" y="-20" type="curve" smooth="yes"/>
      <point x="836" y="-20"/>
      <point x="1032" y="149"/>
      <point x="1032" y="461" type="curve" smooth="yes"/>
      <point x="1032" y="755"/>
      <point x="852" y="887"/>
      <point x="641" y="887" type="curve"/>
      <point x="484" y="887"/>
      <point x="370" y="819"/>
      <point x="278" y="650" type="curve"/>
      <point x="283" y="517" type="line"/>
      <point x="352" y="665"/>
      <point x="470" y="773"/>
      <point x="632" y="773" type="curve"/>
      <point x="792" y="773"/>
      <point x="902" y="698"/>
      <point x="902" y="461" type="curve" smooth="yes"/>
      <point x="902" y="226"/>
      <point x="804" y="90"/>
      <point x="614" y="90" type="curve" smooth="yes"/>
      <point x="394" y="90"/>
      <point x="300" y="241"/>
      <point x="299" y="588" type="curve"/>
      <point x="297" y="643" type="line"/>
      <point x="293" y="1026"/>
      <point x="417" y="1283"/>
      <point x="656" y="1283" type="curve"/>
      <point x="737" y="1283"/>
      <point x="811" y="1262"/>
      <point x="876" y="1224" type="curve"/>
      <point x="926" y="1315" type="line"/>
      <point x="848" y="1366"/>
      <point x="763" y="1393"/>
    </contour>
  </outline>
</glyph>
<glyph name="eight" format="2">
  <advance width="1200"/>
  <unicode hex="0038"/>
  <outline>
    <contour>
      <point x="999" y="1048" type="curve" smooth="yes"/>
      <point x="999" y="1297"/>
      <point x="779" y="1393"/>
      <point x="599" y="1393" type="curve" smooth="yes"/>
      <point x="443" y="1393"/>
      <point x="201" y="1297"/>
      <point x="201" y="1041" type="curve" smooth="yes"/>
      <point x="201" y="887"/>
      <point x="280" y="792"/>
      <point x="427" y="728" type="curve"/>
      <point x="257" y="649"/>
      <point x="145" y="538"/>
      <point x="145" y="365" type="curve" smooth="yes"/>
      <point x="145" y="145"/>
      <point x="315" y="-20"/>
      <point x="597" y="-20" type="curve" smooth="yes"/>
      <point x="871" y="-20"/>
      <point x="1055" y="139"/>
      <point x="1055" y="367" type="curve" smooth="yes"/>
      <point x="1055" y="541"/>
      <point x="930" y="666"/>
      <point x="753" y="734" type="curve"/>
      <point x="907" y="818"/>
      <point x="999" y="912"/>
    </contour>
    <contour>
      <point x="920" y="364" type="curve" smooth="yes"/>
      <point x="920" y="205"/>
      <point x="801" y="90"/>
      <point x="593" y="90" type="curve" smooth="yes"/>
      <point x="386" y="90"/>
      <point x="280" y="190"/>
      <point x="280" y="359" type="curve" smooth="yes"/>
      <point x="280" y="551"/>
      <point x="396" y="639"/>
      <point x="520" y="691" type="curve"/>
      <point x="746" y="614"/>
      <point x="920" y="563"/>
    </contour>
    <contour>
      <point x="327" y="1038" type="curve" smooth="yes"/>
      <point x="327" y="1194"/>
      <point x="428" y="1288"/>
      <point x="599" y="1288" type="curve" smooth="yes"/>
      <point x="772" y="1288"/>
      <point x="873" y="1195"/>
      <point x="873" y="1045" type="curve" smooth="yes"/>
      <point x="873" y="905"/>
      <point x="798" y="840"/>
      <point x="659" y="766" type="curve"/>
      <point x="458" y="829"/>
      <point x="327" y="861"/>
    </contour>
  </outline>
</glyph>
<glyph name="nine" format="2">
  <advance width="1200"/>
  <unicode hex="0039"/>
  <outline>
    <contour>
      <point x="575" y="1390" type="curve" smooth="yes"/>
      <point x="339" y="1390"/>
      <point x="147" y="1245"/>
      <point x="147" y="951" type="curve"/>
      <point x="147" y="674"/>
      <point x="309" y="513"/>
      <point x="541" y="513" type="curve" smooth="yes"/>
      <point x="702" y="513"/>
      <point x="819" y="604"/>
      <point x="897" y="727" type="curve"/>
      <point x="897" y="864" type="line"/>
      <point x="804" y="716"/>
      <point x="703" y="621"/>
      <point x="552" y="621" type="curve" smooth="yes"/>
      <point x="377" y="621"/>
      <point x="278" y="719"/>
      <point x="278" y="941" type="curve"/>
      <point x="278" y="1161"/>
      <point x="377" y="1280"/>
      <point x="576" y="1280" type="curve" smooth="yes"/>
      <point x="771" y="1280"/>
      <point x="876" y="1159"/>
      <point x="876" y="800" type="curve"/>
      <point x="872" y="708" type="line"/>
      <point x="872" y="336"/>
      <point x="675" y="178"/>
      <point x="274" y="63" type="curve"/>
      <point x="305" y="-37" type="line"/>
      <point x="800" y="111"/>
      <point x="1006" y="260"/>
      <point x="1006" y="824" type="curve" smooth="yes"/>
      <point x="1006" y="1175"/>
      <point x="863" y="1390"/>
    </contour>
  </outline>
</glyph>
<glyph name="colon" format="2">
  <advance width="1200"/>
  <unicode hex="003A"/>
  <outline>
    <contour>
      <point x="451" y="129" type="curve" smooth="yes"/>
      <point x="451" y="45"/>
      <point x="514" y="-20"/>
      <point x="597" y="-20" type="curve" smooth="yes"/>
      <point x="683" y="-20"/>
      <point x="747" y="45"/>
      <point x="747" y="129" type="curve" smooth="yes"/>
      <point x="747" y="208"/>
      <point x="683" y="276"/>
      <point x="597" y="276" type="curve" smooth="yes"/>
      <point x="514" y="276"/>
      <point x="451" y="208"/>
    </contour>
    <contour>
      <point x="451" y="859" type="curve" smooth="yes"/>
      <point x="451" y="777"/>
      <point x="514" y="710"/>
      <point x="597" y="710" type="curve" smooth="yes"/>
      <point x="683" y="710"/>
      <point x="747" y="777"/>
      <point x="747" y="859" type="curve" smooth="yes"/>
      <point x="747" y="942"/>
      <point x="683" y="1005"/>
      <point x="597" y="1005" type="curve" smooth="yes"/>
      <point x="514" y="1005"/>
      <point x="451" y="942"/>
    </contour>
  </outline>
</glyph>
<glyph name="at" format="2">
  <advance width="1200"/>
  <unicode hex="0040"/>
  <outline>
    <contour>
      <point x="565" y="1393" type="curve" smooth="yes"/>
      <point x="399" y="1393"/>
      <point x="204" y="1333"/>
      <point x="25" y="1178" type="curve"/>
      <point x="113" y="1077" type="line"/>
      <point x="288" y="1231"/>
      <point x="446" y="1261"/>
      <point x="572" y="1261" type="curve" smooth="yes"/>
      <point x="954" y="1261"/>
      <point x="1012" y="936"/>
      <point x="1012" y="565" type="curve" smooth="yes"/>
      <point x="1012" y="244"/>
      <point x="1014" y="-62"/>
      <point x="875" y="-62" type="curve" smooth="yes"/>
      <point x="789" y="-62"/>
      <point x="716" y="-16"/>
      <point x="716" y="220" type="curve" smooth="yes"/>
      <point x="716" y="808" type="line"/>
      <point x="603" y="868"/>
      <point x="539" y="879"/>
      <point x="450" y="879" type="curve" smooth="yes"/>
      <point x="216" y="879"/>
      <point x="67" y="723"/>
      <point x="67" y="370" type="curve" smooth="yes"/>
      <point x="67" y="103"/>
      <point x="151" y="-89"/>
      <point x="363" y="-89" type="curve" smooth="yes"/>
      <point x="528" y="-89"/>
      <point x="599" y="18"/>
      <point x="634" y="108" type="curve"/>
      <point x="642" y="108" type="line"/>
      <point x="634" y="25"/>
      <point x="704" y="-179"/>
      <point x="876" y="-179" type="curve" smooth="yes"/>
      <point x="1112" y="-179"/>
      <point x="1163" y="59"/>
      <point x="1163" y="563" type="curve" smooth="yes"/>
      <point x="1163" y="944"/>
      <point x="1094" y="1393"/>
    </contour>
    <contour>
      <point x="462" y="777" type="curve" smooth="yes"/>
      <point x="515" y="777"/>
      <point x="558" y="768"/>
      <point x="605" y="744" type="curve"/>
      <point x="605" y="202" type="line"/>
      <point x="577" y="145"/>
      <point x="526" y="16"/>
      <point x="372" y="16" type="curve" smooth="yes"/>
      <point x="237" y="16"/>
      <point x="195" y="170"/>
      <point x="195" y="370" type="curve" smooth="yes"/>
      <point x="195" y="628"/>
      <point x="257" y="777"/>
    </contour>
  </outline>
</glyph>
<glyph name="B" format="2">
  <advance width="1200"/>
  <unicode hex="0042"/>
  <anchor x="600" y="0" name="bottom"/>
  <anchor x="600" y="1374" name="top"/>
  <outline>
    <contour>
      <point x="923" y="377" type="curve" smooth="yes"/>
      <point x="923" y="158"/>
      <point x="740" y="115"/>
      <point x="603" y="115" type="curve" smooth="yes"/>
      <point x="344" y="115" type="line"/>
      <point x="344" y="658" type="line"/>
      <point x="609" y="658" type="line" smooth="yes"/>
      <point x="775" y="658"/>
      <point x="923" y="604"/>
    </contour>
    <contour>
      <point x="868" y="1027" type="curve" smooth="yes"/>
      <point x="868" y="853"/>
      <point x="768" y="779"/>
      <point x="599" y="779" type="curve" smooth="yes"/>
      <point x="344" y="779" type="line"/>
      <point x="344" y="1262" type="line"/>
      <point x="580" y="1262" type="line" smooth="yes"/>
      <point x="753" y="1262"/>
      <point x="868" y="1198"/>
    </contour>
    <contour>
      <point x="1060" y="389" type="curve" smooth="yes"/>
      <point x="1060" y="625"/>
      <point x="897" y="701"/>
      <point x="744" y="728" type="curve"/>
      <point x="874" y="756"/>
      <point x="1000" y="849"/>
      <point x="1000" y="1029" type="curve" smooth="yes"/>
      <point x="1000" y="1299"/>
      <point x="754" y="1374"/>
      <point x="526" y="1374" type="curve" smooth="yes"/>
      <point x="217" y="1374" type="line"/>
      <point x="217" y="0" type="line"/>
      <point x="560" y="0" type="line" smooth="yes"/>
      <point x="799" y="0"/>
      <point x="1060" y="95"/>
    </contour>
  </outline>
</glyph>
<glyph name="E" format="2">
  <advance width="1200"/>
  <unicode hex="0045"/>
  <anchor x="654" y="0" name="bottom"/>
  <anchor x="957" y="0" name="ogonek"/>
  <anchor x="643" y="1374" name="top"/>
  <anchor x="250" y="1374" name="topleft"/>
  <outline>
    <contour>
      <point x="398" y="1260" type="line"/>
      <point x="999" y="1260" type="line"/>
      <point x="1016" y="1374" type="line"/>
      <point x="270" y="1374" type="line"/>
      <point x="270" y="0" type="line"/>
      <point x="1039" y="0" type="line"/>
      <point x="1039" y="111" type="line"/>
      <point x="398" y="111" type="line"/>
      <point x="398" y="640" type="line"/>
      <point x="918" y="640" type="line"/>
      <point x="918" y="757" type="line"/>
      <point x="398" y="757" type="line"/>
    </contour>
  </outline>
</glyph>
<glyph name="J" format="2">
  <advance width="1200"/>
  <unicode hex="004A"/>
  <anchor x="600" y="0" name="bottom"/>
  <anchor x="698" y="1374" name="top"/>
  <outline>
    <contour>
      <point x="975" y="1374" type="line"/>
      <point x="445" y="1374" type="line"/>
      <point x="445" y="1262" type="line"/>
      <point x="848" y="1262" type="line"/>
      <point x="848" y="459" type="line" smooth="yes"/>
      <point x="848" y="238"/>
      <point x="740" y="95"/>
      <point x="534" y="95" type="curve" smooth="yes"/>
      <point x="459" y="95"/>
      <point x="354" y="113"/>
      <point x="228" y="192" type="curve"/>
      <point x="165" y="103" type="line"/>
      <point x="271" y="21"/>
      <point x="408" y="-21"/>
      <point x="531" y="-21" type="curve" smooth="yes"/>
      <point x="896" y="-21"/>
      <point x="975" y="243"/>
      <point x="975" y="445" type="curve" smooth="yes"/>
    </contour>
  </outline>
</glyph>
<glyph name="L" format="2">
  <advance width="1200"/>
  <unicode hex="004C"/>
  <anchor x="671" y="0" name="bottom"/>
  <anchor x="946" y="756" name="center"/>
  <anchor x="362" y="1374" name="top"/>
  <anchor x="524" y="1374" name="topright"/>
  <outline>
    <contour>
      <point x="296" y="0" type="line"/>
      <point x="1045" y="0" type="line"/>
      <point x="1061" y="124" type="line"/>
      <point x="424" y="124" type="line"/>
      <point x="424" y="1374" type="line"/>
      <point x="296" y="1374" type="line"/>
    </contour>
  </outline>
</glyph>
<glyph name="M" format="2">
  <advance width="1200"/>
  <unicode hex="004D"/>
  <anchor x="600" y="0" name="bottom"/>
  <anchor x="1090" y="0" name="bottomright"/>
  <anchor x="600" y="1374" name="top"/>
  <outline>
    <contour>
      <point x="1053" y="1374" type="line"/>
      <point x="837" y="1374" type="line"/>
      <point x="604" y="417" type="line"/>
      <point x="360" y="1374" type="line"/>
      <point x="147" y="1374" type="line"/>
      <point x="69" y="0" type="line"/>
      <point x="197" y="0" type="line"/>
      <point x="242" y="760" type="line" smooth="yes"/>
      <point x="251" y="918"/>
      <point x="249" y="1203"/>
      <point x="250" y="1251" type="curve"/>
      <point x="523" y="250" type="line"/>
      <point x="675" y="250" type="line"/>
      <point x="930" y="1251" type="line"/>
      <point x="932" y="1203"/>
      <point x="937" y="940"/>
      <point x="949" y="757" type="curve" smooth="yes"/>
      <point x="1000" y="0" type="line"/>
      <point x="1131" y="0" type="line"/>
    </contour>
  </outline>
</glyph>
<glyph name="P" format="2">
  <advance width="1200"/>
  <unicode hex="0050"/>
  <anchor x="600" y="0" name="bottom"/>
  <anchor x="600" y="1374" name="top"/>
  <anchor x="243" y="1374" name="topleft"/>
  <outline>
    <contour>
      <point x="962" y="957" type="curve" smooth="yes"/>
      <point x="962" y="700"/>
      <point x="807" y="637"/>
      <point x="602" y="637" type="curve" smooth="yes"/>
      <point x="391" y="637" type="line"/>
      <point x="391" y="1265" type="line"/>
      <point x="616" y="1265" type="line" smooth="yes"/>
      <point x="808" y="1265"/>
      <point x="962" y="1190"/>
    </contour>
    <contour>
      <point x="1102" y="960" type="curve" smooth="yes"/>
      <point x="1102" y="1244"/>
      <point x="903" y="1374"/>
      <point x="589" y="1374" type="curve" smooth="yes"/>
      <point x="263" y="1374" type="line"/>
      <point x="263" y="0" type="line"/>
      <point x="391" y="0" type="line"/>
      <point x="391" y="526" type="line"/>
      <point x="575" y="526" type="line" smooth="yes"/>
      <point x="880" y="526"/>
      <point x="1102" y="638"/>
    </contour>
  </outline>
</glyph>
<glyph name="bracketright" format="2">
  <advance width="1200"/>
  <unicode hex="005D"/>
  <outline>
    <contour>
      <point x="815" y="1626" type="line"/>
      <point x="348" y="1626" type="line"/>
      <point x="348" y="1509" type="line"/>
      <point x="698" y="1509" type="line"/>
      <point x="698" y="-112" type="line"/>
      <point x="348" y="-112" type="line"/>
      <point x="348" y="-226" type="line"/>
      <point x="815" y="-226" type="line"/>
    </contour>
  </outline>
</glyph>
<glyph name="b" format="2">
  <advance width="1200"/>
  <unicode hex="0062"/>
  <anchor x="600" y="0" name="bottom"/>
  <anchor x="600" y="1475" name="top"/>
  <outline>
    <contour>
      <point x="343" y="905" type="curve"/>
      <point x="343" y="1492" type="line"/>
      <point x="219" y="1475" type="line"/>
      <point x="219" y="0" type="line"/>
      <point x="327" y="0" type="line"/>
      <point x="339" y="113" type="line"/>
      <point x="412" y="21"/>
      <point x="506" y="-20"/>
      <point x="633" y="-20" type="curve" smooth="yes"/>
      <point x="903" y="-20"/>
      <point x="1047" y="209"/>
      <point x="1047" y="525" type="curve" smooth="yes"/>
      <point x="1047" y="851"/>
      <point x="936" y="1069"/>
      <point x="652" y="1069" type="curve" smooth="yes"/>
      <point x="527" y="1069"/>
      <point x="423" y="1010"/>
    </contour>
    <contour>
      <point x="606" y="88" type="curve" smooth="yes"/>
      <point x="501" y="88"/>
      <point x="403" y="146"/>
      <point x="343" y="236" type="curve"/>
      <point x="343" y="780" type="line"/>
      <point x="403" y="868"/>
      <point x="503" y="963"/>
      <point x="634" y="963" type="curve" smooth="yes"/>
      <point x="815" y="963"/>
      <point x="907" y="806"/>
      <point x="907" y="527" type="curve" smooth="yes"/>
      <point x="907" y="234"/>
      <point x="800" y="88"/>
    </contour>
  </outline>
</glyph>
<glyph name="d" format="2">
  <advance width="1200"/>
  <unicode hex="0064"/>
  <anchor x="600" y="0" name="bottom"/>
  <anchor x="600" y="526" name="center"/>
  <anchor x="600" y="1475" name="top"/>
  <anchor x="1050" y="1475" name="topright"/>
  <outline>
    <contour>
      <point x="857" y="1492" type="line"/>
      <point x="857" y="937" type="line"/>
      <point x="785" y="1024"/>
      <point x="691" y="1069"/>
      <point x="563" y="1069" type="curve" smooth="yes"/>
      <point x="303" y="1069"/>
      <point x="153" y="836"/>
      <point x="153" y="522" type="curve" smooth="yes"/>
      <point x="153" y="201"/>
      <point x="279" y="-20"/>
      <point x="557" y="-20" type="curve" smooth="yes"/>
      <point x="666" y="-20"/>
      <point x="773" y="25"/>
      <point x="857" y="145" type="curve"/>
      <point x="873" y="0" type="line"/>
      <point x="981" y="0" type="line"/>
      <point x="981" y="1475" type="line"/>
    </contour>
    <contour>
      <point x="594" y="962" type="curve" smooth="yes"/>
      <point x="701" y="962"/>
      <point x="796" y="907"/>
      <point x="857" y="813" type="curve"/>
      <point x="857" y="267" type="line"/>
      <point x="797" y="177"/>
      <point x="706" y="88"/>
      <point x="573" y="88" type="curve" smooth="yes"/>
      <point x="387" y="88"/>
      <point x="293" y="247"/>
      <point x="293" y="523" type="curve" smooth="yes"/>
      <point x="293" y="813"/>
      <point x="399" y="962"/>
    </contour>
  </outline>
</glyph>
<glyph name="j" format="2">
  <advance width="1200"/>
  <unicode hex="006A"/>
  <anchor x="600" y="-386" name="bottom "/>
  <anchor x="734" y="1050" name="top"/>
  <outline>
    <contour>
      <point x="874" y="1050" type="line"/>
      <point x="295" y="1050" type="line"/>
      <point x="295" y="942" type="line"/>
      <point x="750" y="942" type="line"/>
      <point x="750" y="119" type="line" smooth="yes"/>
      <point x="750" y="-156"/>
      <point x="515" y="-276"/>
      <point x="207" y="-321" type="curve"/>
      <point x="228" y="-418" type="line"/>
      <point x="631" y="-355"/>
      <point x="874" y="-192"/>
      <point x="874" y="128" type="curve" smooth="yes"/>
    </contour>
    <contour>
      <point x="731" y="1525" type="curve" smooth="yes"/>
      <point x="671" y="1525"/>
      <point x="631" y="1481"/>
      <point x="631" y="1426" type="curve" smooth="yes"/>
      <point x="631" y="1367"/>
      <point x="671" y="1323"/>
      <point x="731" y="1323" type="curve" smooth="yes"/>
      <point x="795" y="1323"/>
      <point x="836" y="1367"/>
      <point x="836" y="1426" type="curve" smooth="yes"/>
      <point x="836" y="1481"/>
      <point x="795" y="1525"/>
    </contour>
  </outline>
</glyph>
<glyph name="m" format="2">
  <advance width="1200"/>
  <unicode hex="006D"/>
  <anchor x="600" y="0" name="bottom"/>
  <anchor x="600" y="1050" name="top"/>
  <outline>
    <contour>
      <point x="886" y="1069" type="curve" smooth="yes"/>
      <point x="774" y="1069"/>
      <point x="710" y="1011"/>
      <point x="655" y="926" type="curve"/>
      <point x="619" y="1041"/>
      <point x="535" y="1069"/>
      <point x="455" y="1069" type="curve" smooth="yes"/>
      <point x="347" y="1069"/>
      <point x="279" y="1001"/>
      <point x="224" y="923" type="curve"/>
      <point x="217" y="1050" type="line"/>
      <point x="115" y="1050" type="line"/>
      <point x="115" y="0" type="line"/>
      <point x="235" y="0" type="line"/>
      <point x="235" y="828" type="line"/>
      <point x="297" y="929"/>
      <point x="366" y="971"/>
      <point x="441" y="971" type="curve" smooth="yes"/>
      <point x="526" y="971"/>
      <point x="530" y="908"/>
      <point x="530" y="759" type="curve" smooth="yes"/>
      <point x="530" y="0" type="line"/>
      <point x="668" y="0" type="line"/>
      <point x="668" y="828" type="line"/>
      <point x="730" y="929"/>
      <point x="802" y="971"/>
      <point x="874" y="971" type="curve" smooth="yes"/>
      <point x="959" y="971"/>
      <point x="963" y="908"/>
      <point x="963" y="759" type="curve" smooth="yes"/>
      <point x="963" y="0" type="line"/>
      <point x="1085" y="0" type="line"/>
      <point x="1085" y="783" type="line" smooth="yes"/>
      <point x="1085" y="1033"/>
      <point x="971" y="1069"/>
    </contour>
  </outline>
</glyph>
<glyph name="n" format="2">
  <advance width="1200"/>
  <unicode hex="006E"/>
  <anchor x="602" y="0" name="bottom"/>
  <anchor x="599" y="1050" name="top"/>
  <outline>
    <contour>
      <point x="219" y="0" type="line"/>
      <point x="343" y="0" type="line"/>
      <point x="343" y="774" type="line"/>
      <point x="397" y="858"/>
      <point x="515" y="966"/>
      <point x="656" y="966" type="curve" smooth="yes"/>
      <point x="839" y="966"/>
      <point x="860" y="867"/>
      <point x="860" y="627" type="curve" smooth="yes"/>
      <point x="860" y="0" type="line"/>
      <point x="984" y="0" type="line"/>
      <point x="984" y="760" type="line" smooth="yes"/>
      <point x="984" y="953"/>
      <point x="901" y="1069"/>
      <point x="686" y="1069" type="curve" smooth="yes"/>
      <point x="568" y="1069"/>
      <point x="416" y="1006"/>
      <point x="333" y="897" type="curve"/>
      <point x="323" y="1050" type="line"/>
      <point x="219" y="1050" type="line"/>
    </contour>
  </outline>
</glyph>
<glyph name="u" format="2">
  <advance width="1200"/>
  <unicode hex="0075"/>
  <anchor x="1001" y="0" name="ogonek"/>
  <anchor x="600" y="1050" name="top"/>
  <outline>
    <contour>
      <point x="343" y="1050" type="line"/>
      <point x="219" y="1050" type="line"/>
      <point x="219" y="284" type="line" smooth="yes"/>
      <point x="219" y="91"/>
      <point x="320" y="-20"/>
      <point x="523" y="-20" type="curve" smooth="yes"/>
      <point x="645" y="-20"/>
      <point x="777" y="40"/>
      <point x="863" y="147" type="curve"/>
      <point x="877" y="0" type="line"/>
      <point x="981" y="0" type="line"/>
      <point x="981" y="1050" type="line"/>
      <point x="857" y="1050" type="line"/>
      <point x="857" y="267" type="line"/>
      <point x="796" y="171"/>
      <point x="671" y="84"/>
      <point x="541" y="84" type="curve" smooth="yes"/>
      <point x="403" y="84"/>
      <point x="343" y="150"/>
      <point x="343" y="299" type="curve" smooth="yes"/>
    </contour>
  </outline>
</glyph>
<glyph name="x" format="2">
  <advance width="1200"/>
  <unicode hex="0078"/>
  <anchor x="600" y="0" name="bottom"/>
  <anchor x="963" y="0" name="bottomright"/>
  <anchor x="600" y="1050" name="top"/>
  <outline>
    <contour>
      <point x="278" y="0" type="line"/>
      <point x="597" y="468" type="line"/>
      <point x="908" y="0" type="line"/>
      <point x="1069" y="0" type="line"/>
      <point x="674" y="561" type="line"/>
      <point x="1023" y="1050" type="line"/>
      <point x="874" y="1050" type="line"/>
      <point x="602" y="643" type="line"/>
      <point x="336" y="1050" type="line"/>
      <point x="183" y="1050" type="line"/>
      <point x="527" y="555" type="line"/>
      <point x="131" y="0" type="line"/>
    </contour>
  </outline>
</glyph>
<glyph name="y" format="2">
  <advance width="1200"/>
  <unicode hex="0079"/>
  <anchor x="600" y="-386" name="bottom "/>
  <anchor x="600" y="1050" name="top"/>
  <outline>
    <contour>
      <point x="1057" y="1050" type="line"/>
      <point x="928" y="1050" type="line"/>
      <point x="608" y="106" type="line"/>
      <point x="277" y="1050" type="line"/>
      <point x="143" y="1050" type="line"/>
      <point x="520" y="0" type="line"/>
      <point x="561" y="0" type="line"/>
      <point x="505" y="-171"/>
      <point x="447" y="-269"/>
      <point x="227" y="-309" type="curve"/>
      <point x="249" y="-417" type="line"/>
      <point x="515" y="-385"/>
      <point x="614" y="-203"/>
      <point x="682" y="-9" type="curve" smooth="yes"/>
    </contour>
  </outline>
</glyph>
<glyph name="yen" format="2">
  <advance width="1200"/>
  <unicode hex="00A5"/>
  <outline>
    <contour>
      <point x="1102" y="1374" type="line"/>
      <point x="968" y="1374" type="line"/>
      <point x="609" y="723" type="line"/>
      <point x="601" y="723" type="line"/>
      <point x="244" y="1374" type="line"/>
      <point x="98" y="1374" type="line"/>
      <point x="491" y="687" type="line"/>
      <point x="247" y="687" type="line"/>
      <point x="247" y="583" type="line"/>
      <point x="531" y="583" type="line"/>
      <point x="531" y="401" type="line"/>
      <point x="247" y="401" type="line"/>
      <point x="247" y="299" type="line"/>
      <point x="531" y="299" type="line"/>
      <point x="531" y="0" type="line"/>
      <point x="667" y="0" type="line"/>
      <point x="667" y="299" type="line"/>
      <point x="955" y="299" type="line"/>
      <point x="955" y="401" type="line"/>
      <point x="667" y="401" type="line"/>
      <point x="667" y="583" type="line"/>
      <point x="955" y="583" type="line"/>
      <point x="955" y="687" type="line"/>
      <point x="705" y="687" type="line"/>
    </contour>
  </outline>
</glyph>
<glyph name="copyright" format="2">
  <advance width="1200"/>
  <unicode hex="00A9"/>
  <outline>
    <contour>
      <point x="602" y="1486" type="curve" smooth="yes"/>
      <point x="264" y="1486"/>
      <point x="71" y="1213"/>
      <point x="71" y="877" type="curve" smooth="yes"/>
      <point x="71" y="542"/>
      <point x="269" y="268"/>
      <point x="602" y="268" type="curve" smooth="yes"/>
      <point x="937" y="268"/>
      <point x="1129" y="542"/>
      <point x="1129" y="877" type="curve" smooth="yes"/>
      <point x="1129" y="1213"/>
      <point x="937" y="1486"/>
    </contour>
    <contour>
      <point x="606" y="1253" type="curve" smooth="yes"/>
      <point x="439" y="1253"/>
      <point x="285" y="1128"/>
      <point x="285" y="879" type="curve" smooth="yes"/>
      <point x="285" y="636"/>
      <point x="424" y="506"/>
      <point x="608" y="506" type="curve" smooth="yes"/>
      <point x="722" y="506"/>
      <point x="797" y="551"/>
      <point x="850" y="597" type="curve"/>
      <point x="792" y="683" type="line"/>
      <point x="741" y="636"/>
      <point x="684" y="609"/>
      <point x="607" y="609" type="curve" smooth="yes"/>
      <point x="487" y="609"/>
      <point x="403" y="698"/>
      <point x="403" y="879" type="curve" smooth="yes"/>
      <point x="403" y="1076"/>
      <point x="494" y="1156"/>
      <point x="607" y="1156" type="curve" smooth="yes"/>
      <point x="663" y="1156"/>
      <point x="721" y="1138"/>
      <point x="777" y="1092" type="curve"/>
      <point x="840" y="1180" type="line"/>
      <point x="768" y="1228"/>
      <point x="709" y="1253"/>
    </contour>
    <contour>
      <point x="602" y="1398" type="curve" smooth="yes"/>
      <point x="889" y="1398"/>
      <point x="1035" y="1166"/>
      <point x="1035" y="877" type="curve" smooth="yes"/>
      <point x="1035" y="590"/>
      <point x="890" y="359"/>
      <point x="602" y="359" type="curve" smooth="yes"/>
      <point x="312" y="359"/>
      <point x="167" y="590"/>
      <point x="167" y="877" type="curve" smooth="yes"/>
      <point x="167" y="1166"/>
      <point x="312" y="1398"/>
    </contour>
  </outline>
</glyph>
<glyph name="ordfeminine" format="2">
  <advance width="1200"/>
  <unicode hex="00AA"/>
  <outline>
    <contour>
      <point x="579" y="1492" type="curve" smooth="yes"/>
      <point x="490" y="1492"/>
      <point x="393" y="1478"/>
      <point x="277" y="1433" type="curve"/>
      <point x="317" y="1335" type="line"/>
      <point x="414" y="1369"/>
      <point x="504" y="1383"/>
      <point x="562" y="1383" type="curve" smooth="yes"/>
      <point x="689" y="1383"/>
      <point x="769" y="1333"/>
      <point x="769" y="1216" type="curve" smooth="yes"/>
      <point x="769" y="1145" type="line"/>
      <point x="649" y="1145" type="line" smooth="yes"/>
      <point x="380" y="1145"/>
      <point x="215" y="1054"/>
      <point x="215" y="877" type="curve" smooth="yes"/>
      <point x="215" y="719"/>
      <point x="337" y="617"/>
      <point x="518" y="617" type="curve" smooth="yes"/>
      <point x="618" y="617"/>
      <point x="720" y="659"/>
      <point x="786" y="734" type="curve"/>
      <point x="812" y="659"/>
      <point x="862" y="624"/>
      <point x="935" y="615" type="curve"/>
      <point x="965" y="704" type="line"/>
      <point x="921" y="718"/>
      <point x="897" y="744"/>
      <point x="897" y="805" type="curve" smooth="yes"/>
      <point x="897" y="1221" type="line" smooth="yes"/>
      <point x="897" y="1387"/>
      <point x="788" y="1492"/>
    </contour>
    <contour>
      <point x="988" y="132" type="line"/>
      <point x="214" y="132" type="line"/>
      <point x="214" y="0" type="line"/>
      <point x="988" y="0" type="line"/>
    </contour>
    <contour>
      <point x="769" y="1049" type="line"/>
      <point x="769" y="832" type="line"/>
      <point x="714" y="760"/>
      <point x="630" y="715"/>
      <point x="543" y="715" type="curve" smooth="yes"/>
      <point x="422" y="715"/>
      <point x="350" y="772"/>
      <point x="350" y="884" type="curve" smooth="yes"/>
      <point x="350" y="988"/>
      <point x="437" y="1049"/>
      <point x="638" y="1049" type="curve" smooth="yes"/>
    </contour>
  </outline>
</glyph>
<glyph name="guillemetleft" format="2">
  <advance width="1200"/>
  <unicode hex="00AB"/>
  <outline>
    <contour>
      <point x="614" y="183" type="line"/>
      <point x="333" y="591" type="line"/>
      <point x="614" y="1001" type="line"/>
      <point x="537" y="1051" type="line"/>
      <point x="183" y="639" type="line"/>
      <point x="183" y="541" type="line"/>
      <point x="537" y="133" type="line"/>
    </contour>
    <contour>
      <point x="1014" y="183" type="line"/>
      <point x="733" y="591" type="line"/>
      <point x="1014" y="1001" type="line"/>
      <point x="937" y="1051" type="line"/>
      <point x="581" y="639" type="line"/>
      <point x="581" y="541" type="line"/>
      <point x="937" y="133" type="line"/>
    </contour>
  </outline>
</glyph>
<glyph name="degree" format="2">
  <advance width="1200"/>
  <unicode hex="00B0"/>
  <outline>
    <contour>
      <point x="442" y="1492" type="curve" smooth="yes"/>
      <point x="281" y="1492"/>
      <point x="128" y="1382"/>
      <point x="128" y="1189" type="curve" smooth="yes"/>
      <point x="128" y="989"/>
      <point x="281" y="881"/>
      <point x="442" y="881" type="curve" smooth="yes"/>
      <point x="607" y="881"/>
      <point x="757" y="989"/>
      <point x="757" y="1186" type="curve" smooth="yes"/>
      <point x="757" y="1382"/>
      <point x="607" y="1492"/>
    </contour>
    <contour>
      <point x="442" y="1392" type="curve" smooth="yes"/>
      <point x="538" y="1392"/>
      <point x="632" y="1329"/>
      <point x="632" y="1186" type="curve" smooth="yes"/>
      <point x="632" y="1043"/>
      <point x="538" y="981"/>
      <point x="442" y="981" type="curve" smooth="yes"/>
      <point x="350" y="981"/>
      <point x="252" y="1043"/>
      <point x="252" y="1189" type="curve" smooth="yes"/>
      <point x="252" y="1332"/>
      <point x="350" y="1392"/>
    </contour>
  </outline>
</glyph>
<glyph name="acute" format="2">
  <advance width="1200"/>
  <unicode hex="00B4"/>
  <anchor x="600" y="1050" name="_top"/>
  <outline>
    <contour>
      <point x="772" y="1571" type="line"/>
      <point x="392" y="1360" type="line"/>
      <point x="434" y="1290" type="line"/>
      <point x="836" y="1455" type="line"/>
    </contour>
  </outline>
</glyph>
<glyph name="multiply" format="2">
  <advance width="1200"/>
  <unicode hex="00D7"/>
  <outline>
    <contour>
      <point x="850" y="951" type="line"/>
      <point x="600" y="700" type="line"/>
      <point x="350" y="951" type="line"/>
      <point x="266" y="864" type="line"/>
      <point x="514" y="614" type="line"/>
      <point x="266" y="364" type="line"/>
      <point x="350" y="280" type="line"/>
      <point x="600" y="528" type="line"/>
      <point x="850" y="280" type="line"/>
      <point x="934" y="364" type="line"/>
      <point x="686" y="614" type="line"/>
      <point x="934" y="864" type="line"/>
    </contour>
  </outline>
</glyph>
<glyph name="eth" format="2">
  <advance width="1200"/>
  <unicode hex="00F0"/>
  <outline>
    <contour>
      <point x="365" y="1119" type="line"/>
      <point x="461" y="1067" type="line"/>
      <point x="631" y="1243" type="line"/>
      <point x="768" y="1143"/>
      <point x="869" y="991"/>
      <point x="904" y="812" type="curve"/>
      <point x="826" y="907"/>
      <point x="715" y="961"/>
      <point x="574" y="961" type="curve" smooth="yes"/>
      <point x="347" y="961"/>
      <point x="150" y="767"/>
      <point x="150" y="471" type="curve" smooth="yes"/>
      <point x="150" y="156"/>
      <point x="349" y="-20"/>
      <point x="591" y="-20" type="curve" smooth="yes"/>
      <point x="862" y="-20"/>
      <point x="1051" y="180"/>
      <point x="1051" y="519" type="curve" smooth="yes"/>
      <point x="1051" y="909"/>
      <point x="944" y="1163"/>
      <point x="713" y="1326" type="curve"/>
      <point x="842" y="1460" type="line"/>
      <point x="759" y="1533" type="line"/>
      <point x="622" y="1386" type="line"/>
      <point x="540" y="1433"/>
      <point x="440" y="1465"/>
      <point x="321" y="1493" type="curve"/>
      <point x="291" y="1383" type="line"/>
      <point x="391" y="1362"/>
      <point x="471" y="1338"/>
      <point x="540" y="1302" type="curve"/>
    </contour>
    <contour>
      <point x="925" y="541" type="curve" smooth="yes"/>
      <point x="925" y="245"/>
      <point x="788" y="88"/>
      <point x="585" y="88" type="curve" smooth="yes"/>
      <point x="406" y="88"/>
      <point x="277" y="229"/>
      <point x="277" y="481" type="curve" smooth="yes"/>
      <point x="277" y="740"/>
      <point x="423" y="852"/>
      <point x="578" y="852" type="curve" smooth="yes"/>
      <point x="722" y="852"/>
      <point x="845" y="788"/>
      <point x="918" y="668" type="curve"/>
      <point x="923" y="627"/>
      <point x="925" y="588"/>
    </contour>
  </outline>
</glyph>
<glyph name="Lslash" format="2">
  <advance width="1200"/>
  <unicode hex="0141"/>
  <outline>
    <contour>
      <point x="161" y="484" type="line"/>
      <point x="827" y="896" type="line"/>
      <point x="763" y="990" type="line"/>
      <point x="100" y="579" type="line"/>
    </contour>
    <component base="L" xOffset="-13"/>
  </outline>
</glyph>
<glyph name="tbar" format="2">
  <advance width="1200"/>
  <unicode hex="0167"/>
  <outline>
    <contour>
      <point x="901" y="699" type="line"/>
      <point x="420" y="699" type="line"/>
      <point x="193" y="699" type="line"/>
      <point x="193" y="591" type="line"/>
      <point x="544" y="591" type="line"/>
      <point x="901" y="591" type="line"/>
    </contour>
    <component base="t"/>
  </outline>
</glyph>
<glyph name="dotlessj" format="2">
  <advance width="1200"/>
  <unicode hex="0237"/>
  <anchor x="734" y="1050" name="top"/>
  <outline>
    <contour>
      <point x="874" y="1050" type="line"/>
      <point x="295" y="1050" type="line"/>
      <point x="295" y="942" type="line"/>
      <point x="750" y="942" type="line"/>
      <point x="750" y="119" type="line" smooth="yes"/>
      <point x="750" y="-156"/>
      <point x="515" y="-276"/>
      <point x="207" y="-321" type="curve"/>
      <point x="228" y="-418" type="line"/>
      <point x="631" y="-355"/>
      <point x="874" y="-192"/>
      <point x="874" y="128" type="curve" smooth="yes"/>
    </contour>
  </outline>
</glyph>
<glyph name="breve" format="2">
  <advance width="1200"/>
  <unicode hex="02D8"/>
  <anchor x="600" y="1050" name="_top"/>
  <outline>
    <contour>
      <point x="594" y="1271" type="curve" smooth="yes"/>
      <point x="768" y="1271"/>
      <point x="867" y="1413"/>
      <point x="883" y="1519" type="curve"/>
      <point x="784" y="1543" type="line"/>
      <point x="755" y="1442"/>
      <point x="692" y="1373"/>
      <point x="594" y="1373" type="curve" smooth="yes"/>
      <point x="499" y="1373"/>
      <point x="442" y="1442"/>
      <point x="413" y="1543" type="curve"/>
      <point x="315" y="1519" type="line"/>
      <point x="331" y="1413"/>
      <point x="424" y="1271"/>
    </contour>
  </outline>
</glyph>
<glyph name="circumflexcomb" format="2">
  <unicode hex="0302"/>
  <anchor x="599" y="1050" name="_top"/>
  <outline>
    <contour>
      <point x="645" y="1478" type="line"/>
      <point x="556" y="1478" type="line"/>
      <point x="289" y="1276" type="line"/>
      <point x="353" y="1204" type="line"/>
      <point x="599" y="1362" type="line"/>
      <point x="848" y="1204" type="line"/>
      <point x="910" y="1276" type="line"/>
    </contour>
  </outline>
</glyph>
<glyph name="heta" format="2">
  <advance width="1200"/>
  <unicode hex="0371"/>
  <anchor x="600" y="0" name="bottom"/>
  <anchor x="600" y="1050" name="top"/>
  <outline>
    <contour>
      <point x="1040" y="484" type="line"/>
      <point x="1040" y="601" type="line"/>
      <point x="381" y="601" type="line"/>
      <point x="381" y="484" type="line"/>
    </contour>
    <contour>
      <point x="342" y="1073" type="curve"/>
      <point x="231" y="1056" type="line"/>
      <point x="261" y="959"/>
      <point x="286" y="864"/>
      <point x="286" y="691" type="curve" smooth="yes"/>
      <point x="286" y="0" type="line"/>
      <point x="410" y="0" type="line"/>
      <point x="410" y="673" type="line" smooth="yes"/>
      <point x="410" y="898"/>
      <point x="375" y="1002"/>
    </contour>
  </outline>
</glyph>
<glyph name="archaicsampi" format="2">
  <advance width="1200"/>
  <unicode hex="0373"/>
  <anchor x="600" y="-386" name="bottom"/>
  <anchor x="600" y="1050" name="top"/>
  <outline>
    <contour>
      <point x="664" y="958" type="line"/>
      <point x="540" y="958" type="line"/>
      <point x="540" y="-418" type="line"/>
      <point x="664" y="-401" type="line"/>
    </contour>
    <contour>
      <point x="67" y="914" type="line"/>
      <point x="143" y="934"/>
      <point x="152" y="936"/>
      <point x="234" y="936" type="curve" smooth="yes"/>
      <point x="1135" y="939" type="line"/>
      <point x="1135" y="1050" type="line"/>
      <point x="244" y="1050" type="line" smooth="yes"/>
      <point x="139" y="1050"/>
      <point x="109" y="1046"/>
      <point x="42" y="1023" type="curve"/>
    </contour>
  </outline>
</glyph>
<glyph name="Sigma" format="2">
  <advance width="1200"/>
  <unicode hex="03A3"/>
  <anchor x="600" y="0" name="bottom"/>
  <anchor x="600" y="1374" name="top"/>
  <outline>
    <contour>
      <point x="797" y="634" type="line"/>
      <point x="797" y="755" type="line"/>
      <point x="309" y="1256" type="line"/>
      <point x="1043" y="1256" type="line"/>
      <point x="1043" y="1374" type="line"/>
      <point x="157" y="1374" type="line"/>
      <point x="157" y="1253" type="line"/>
      <point x="691" y="691" type="line"/>
      <point x="157" y="119" type="line"/>
      <point x="157" y="0" type="line"/>
      <point x="1043" y="0" type="line"/>
      <point x="1043" y="116" type="line"/>
      <point x="313" y="116" type="line"/>
    </contour>
  </outline>
</glyph>
<glyph name="beta" format="2">
  <advance width="1200"/>
  <unicode hex="03B2"/>
  <anchor x="600" y="-386" name="bottom"/>
  <anchor x="600" y="1475" name="top"/>
  <outline>
    <contour>
      <point x="588" y="1488" type="curve" smooth="yes"/>
      <point x="342" y="1488"/>
      <point x="205" y="1331"/>
      <point x="205" y="1075" type="curve" smooth="yes"/>
      <point x="205" y="-417" type="line"/>
      <point x="328" y="-403" type="line"/>
      <point x="328" y="1067" type="line" smooth="yes"/>
      <point x="328" y="1282"/>
      <point x="417" y="1384"/>
      <point x="591" y="1384" type="curve" smooth="yes"/>
      <point x="746" y="1384"/>
      <point x="866" y="1309"/>
      <point x="866" y="1133" type="curve" smooth="yes"/>
      <point x="866" y="929"/>
      <point x="737" y="849"/>
      <point x="582" y="849" type="curve" smooth="yes"/>
      <point x="458" y="849" type="line"/>
      <point x="438" y="748" type="line"/>
      <point x="560" y="748" type="line" smooth="yes"/>
      <point x="822" y="748"/>
      <point x="957" y="625"/>
      <point x="957" y="394" type="curve" smooth="yes"/>
      <point x="957" y="199"/>
      <point x="816" y="91"/>
      <point x="644" y="91" type="curve" smooth="yes"/>
      <point x="503" y="91"/>
      <point x="401" y="126"/>
      <point x="328" y="218" type="curve"/>
      <point x="315" y="104" type="line"/>
      <point x="407" y="21"/>
      <point x="522" y="-17"/>
      <point x="640" y="-17" type="curve" smooth="yes"/>
      <point x="856" y="-17"/>
      <point x="1082" y="138"/>
      <point x="1082" y="400" type="curve" smooth="yes"/>
      <point x="1082" y="702"/>
      <point x="862" y="784"/>
      <point x="661" y="806" type="curve"/>
      <point x="820" y="821"/>
      <point x="973" y="924"/>
      <point x="973" y="1146" type="curve" smooth="yes"/>
      <point x="973" y="1368"/>
      <point x="784" y="1488"/>
    </contour>
  </outline>
</glyph>
<glyph name="zeta" format="2">
  <advance width="1200"/>
  <unicode hex="03B6"/>
  <anchor x="600" y="-386" name="bottom"/>
  <anchor x="600" y="1475" name="top"/>
  <outline>
    <contour>
      <point x="1020" y="1475" type="line"/>
      <point x="336" y="1475" type="line"/>
      <point x="320" y="1364" type="line"/>
      <point x="646" y="1364" type="line" smooth="yes"/>
      <point x="699" y="1364"/>
      <point x="864" y="1369"/>
      <point x="917" y="1390" type="curve"/>
      <point x="450" y="1020"/>
      <point x="231" y="782"/>
      <point x="231" y="503" type="curve" smooth="yes"/>
      <point x="231" y="241"/>
      <point x="370" y="147"/>
      <point x="634" y="59" type="curve" smooth="yes"/>
      <point x="821" y="-5"/>
      <point x="886" y="-26"/>
      <point x="886" y="-111" type="curve" smooth="yes"/>
      <point x="886" y="-221"/>
      <point x="795" y="-283"/>
      <point x="671" y="-344" type="curve"/>
      <point x="727" y="-443" type="line"/>
      <point x="929" y="-352"/>
      <point x="1027" y="-243"/>
      <point x="1027" y="-99" type="curve" smooth="yes"/>
      <point x="1027" y="62"/>
      <point x="893" y="105"/>
      <point x="702" y="162" type="curve" smooth="yes"/>
      <point x="474" y="235"/>
      <point x="373" y="297"/>
      <point x="373" y="506" type="curve" smooth="yes"/>
      <point x="373" y="777"/>
      <point x="612" y="996"/>
      <point x="1040" y="1384" type="curve"/>
    </contour>
  </outline>
</glyph>
<glyph name="theta" format="2">
  <advance width="1200"/>
  <unicode hex="03B8"/>
  <anchor x="600" y="0" name="bottom"/>
  <anchor x="600" y="1475" name="top"/>
  <outline>
    <contour>
      <point x="603" y="1492" type="curve" smooth="yes"/>
      <point x="314" y="1492"/>
      <point x="166" y="1193"/>
      <point x="166" y="741" type="curve" smooth="yes"/>
      <point x="166" y="281"/>
      <point x="311" y="-20"/>
      <point x="600" y="-20" type="curve" smooth="yes"/>
      <point x="886" y="-20"/>
      <point x="1034" y="294"/>
      <point x="1034" y="743" type="curve" smooth="yes"/>
      <point x="1034" y="1205"/>
      <point x="891" y="1492"/>
    </contour>
    <contour>
      <point x="894" y="685" type="line"/>
      <point x="884" y="279"/>
      <point x="794" y="92"/>
      <point x="600" y="92" type="curve" smooth="yes"/>
      <point x="406" y="92"/>
      <point x="314" y="279"/>
      <point x="304" y="685" type="curve"/>
    </contour>
    <contour>
      <point x="603" y="1377" type="curve" smooth="yes"/>
      <point x="799" y="1377"/>
      <point x="890" y="1198"/>
      <point x="897" y="805" type="curve"/>
      <point x="303" y="805" type="line"/>
      <point x="311" y="1198"/>
      <point x="403" y="1377"/>
    </contour>
  </outline>
</glyph>
<glyph name="iota" format="2">
  <advance width="1200"/>
  <unicode hex="03B9"/>
  <anchor x="600" y="0" name="bottom"/>
  <anchor x="566" y="1050" name="top"/>
  <outline>
    <contour>
      <point x="504" y="934" type="line"/>
      <point x="504" y="267" type="line" smooth="yes"/>
      <point x="504" y="84"/>
      <point x="623" y="-20"/>
      <point x="800" y="-20" type="curve" smooth="yes"/>
      <point x="884" y="-20"/>
      <point x="993" y="7"/>
      <point x="1033" y="30" type="curve"/>
      <point x="997" y="126" type="line"/>
      <point x="936" y="102"/>
      <point x="870" y="88"/>
      <point x="813" y="88" type="curve" smooth="yes"/>
      <point x="706" y="88"/>
      <point x="628" y="129"/>
      <point x="628" y="239" type="curve" smooth="yes"/>
      <point x="628" y="1050" type="line"/>
      <point x="158" y="1050" type="line"/>
      <point x="140" y="934" type="line"/>
    </contour>
  </outline>
</glyph>
<glyph name="phi" format="2">
  <advance width="1200"/>
  <unicode hex="03C6"/>
  <anchor x="600" y="-386" name="bottom"/>
  <anchor x="600" y="1050" name="top"/>
  <outline>
    <contour>
      <point x="806" y="1069" type="curve" smooth="yes"/>
      <point x="583" y="1069"/>
      <point x="514" y="903"/>
      <point x="514" y="634" type="curve" smooth="yes"/>
      <point x="514" y="95" type="line"/>
      <point x="279" y="121"/>
      <point x="215" y="268"/>
      <point x="215" y="518" type="curve" smooth="yes"/>
      <point x="215" y="660"/>
      <point x="252" y="823"/>
      <point x="330" y="1050" type="curve"/>
      <point x="189" y="1050" type="line"/>
      <point x="135" y="909"/>
      <point x="76" y="725"/>
      <point x="76" y="477" type="curve" smooth="yes"/>
      <point x="76" y="176"/>
      <point x="217" y="5"/>
      <point x="514" y="-17" type="curve"/>
      <point x="514" y="-418" type="line"/>
      <point x="649" y="-397" type="line"/>
      <point x="649" y="-17" type="line"/>
      <point x="936" y="5"/>
      <point x="1124" y="162"/>
      <point x="1124" y="534" type="curve" smooth="yes"/>
      <point x="1124" y="893"/>
      <point x="1025" y="1069"/>
    </contour>
    <contour>
      <point x="805" y="957" type="curve" smooth="yes"/>
      <point x="941" y="957"/>
      <point x="983" y="828"/>
      <point x="983" y="535" type="curve" smooth="yes"/>
      <point x="983" y="258"/>
      <point x="903" y="116"/>
      <point x="649" y="92" type="curve"/>
      <point x="649" y="590" type="line" smooth="yes"/>
      <point x="649" y="776"/>
      <point x="649" y="957"/>
    </contour>
  </outline>
</glyph>
<glyph name="psi" format="2">
  <advance width="1200"/>
  <unicode hex="03C8"/>
  <anchor x="600" y="-386" name="bottom"/>
  <anchor x="600" y="1050" name="top"/>
  <outline>
    <contour>
      <point x="669" y="1050" type="line"/>
      <point x="536" y="1050" type="line"/>
      <point x="536" y="109" type="line"/>
      <point x="304" y="133"/>
      <point x="230" y="223"/>
      <point x="230" y="398" type="curve" smooth="yes"/>
      <point x="230" y="1050" type="line"/>
      <point x="91" y="1050" type="line"/>
      <point x="91" y="380" type="line" smooth="yes"/>
      <point x="91" y="187"/>
      <point x="230" y="11"/>
      <point x="536" y="-9" type="curve"/>
      <point x="536" y="-418" type="line"/>
      <point x="669" y="-401" type="line"/>
      <point x="669" y="-9" type="line"/>
      <point x="988" y="12"/>
      <point x="1131" y="217"/>
      <point x="1131" y="506" type="curve" smooth="yes"/>
      <point x="1131" y="714"/>
      <point x="1112" y="871"/>
      <point x="1081" y="1050" type="curve"/>
      <point x="934" y="1050" type="line"/>
      <point x="972" y="858"/>
      <point x="990" y="663"/>
      <point x="990" y="526" type="curve" smooth="yes"/>
      <point x="990" y="286"/>
      <point x="940" y="136"/>
      <point x="669" y="109" type="curve"/>
    </contour>
  </outline>
</glyph>
<glyph name="thetaSymbol" format="2">
  <advance width="1200"/>
  <unicode hex="03D1"/>
  <anchor x="600" y="0" name="bottom"/>
  <anchor x="600" y="1475" name="top"/>
  <outline>
    <contour>
      <point x="532" y="-20" type="curve" smooth="yes"/>
      <point x="833" y="-20"/>
      <point x="990" y="270"/>
      <point x="990" y="803" type="curve" smooth="yes"/>
      <point x="990" y="1209"/>
      <point x="850" y="1492"/>
      <point x="521" y="1492" type="curve" smooth="yes"/>
      <point x="316" y="1492"/>
      <point x="161" y="1343"/>
      <point x="161" y="1153" type="curve" smooth="yes"/>
      <point x="161" y="960"/>
      <point x="306" y="811"/>
      <point x="595" y="811" type="curve" smooth="yes"/>
      <point x="1064" y="811" type="line"/>
      <point x="1064" y="927" type="line"/>
      <point x="595" y="927" type="line" smooth="yes"/>
      <point x="425" y="927"/>
      <point x="301" y="989"/>
      <point x="301" y="1155" type="curve" smooth="yes"/>
      <point x="301" y="1284"/>
      <point x="391" y="1380"/>
      <point x="527" y="1380" type="curve" smooth="yes"/>
      <point x="741" y="1380"/>
      <point x="843" y="1177"/>
      <point x="843" y="806" type="curve" smooth="yes"/>
      <point x="843" y="291"/>
      <point x="733" y="92"/>
      <point x="536" y="92" type="curve" smooth="yes"/>
      <point x="410" y="92"/>
      <point x="337" y="175"/>
      <point x="337" y="342" type="curve" smooth="yes"/>
      <point x="337" y="694" type="line"/>
      <point x="207" y="694" type="line"/>
      <point x="207" y="310" type="line" smooth="yes"/>
      <point x="207" y="101"/>
      <point x="364" y="-20"/>
    </contour>
  </outline>
</glyph>
<glyph name="UpsilonhookSymbol" format="2">
  <advance width="1200"/>
  <unicode hex="03D2"/>
  <anchor x="606" y="1374" name="top"/>
  <anchor x="66" y="1374" name="topleft"/>
  <outline>
    <contour>
      <point x="1152" y="1271" type="curve"/>
      <point x="1188" y="1370" type="line"/>
      <point x="1157" y="1385"/>
      <point x="1125" y="1393"/>
      <point x="1082" y="1393" type="curve" smooth="yes"/>
      <point x="970" y="1393"/>
      <point x="906" y="1350"/>
      <point x="824" y="1170" type="curve" smooth="yes"/>
      <point x="592" y="654" type="line"/>
      <point x="232" y="1374" type="line"/>
      <point x="90" y="1374" type="line"/>
      <point x="520" y="532" type="line"/>
      <point x="520" y="0" type="line"/>
      <point x="650" y="0" type="line"/>
      <point x="650" y="534" type="line"/>
      <point x="949" y="1162" type="line" smooth="yes"/>
      <point x="990" y="1249"/>
      <point x="1030" y="1280"/>
      <point x="1087" y="1280" type="curve" smooth="yes"/>
      <point x="1114" y="1280"/>
      <point x="1135" y="1275"/>
    </contour>
  </outline>
</glyph>
<glyph name="phiSymbol" format="2">
  <advance width="1200"/>
  <unicode hex="03D5"/>
  <outline>
    <contour>
      <point x="638" y="1044" type="curve"/>
      <point x="638" y="928" type="line"/>
      <point x="850" y="927"/>
      <point x="950" y="766"/>
      <point x="950" y="527" type="curve" smooth="yes"/>
      <point x="950" y="274"/>
      <point x="850" y="127"/>
      <point x="636" y="118" type="curve"/>
      <point x="641" y="5" type="line"/>
      <point x="922" y="4"/>
      <point x="1096" y="203"/>
      <point x="1096" y="527" type="curve" smooth="yes"/>
      <point x="1096" y="818"/>
      <point x="954" y="1039"/>
    </contour>
    <contour>
      <point x="555" y="1044" type="line"/>
      <point x="278" y="1045"/>
      <point x="105" y="847"/>
      <point x="105" y="525" type="curve" smooth="yes"/>
      <point x="105" y="231"/>
      <point x="246" y="13"/>
      <point x="558" y="5" type="curve"/>
      <point x="559" y="121" type="line"/>
      <point x="345" y="124"/>
      <point x="251" y="278"/>
      <point x="251" y="525" type="curve" smooth="yes"/>
      <point x="251" y="775"/>
      <point x="345" y="927"/>
      <point x="559" y="934" type="curve"/>
    </contour>
    <contour>
      <point x="662" y="1487" type="line"/>
      <point x="540" y="1472" type="line"/>
      <point x="540" y="1002" type="line"/>
      <point x="537" y="953" type="line"/>
      <point x="537" y="86" type="line"/>
      <point x="539" y="36" type="line"/>
      <point x="540" y="-418" type="line"/>
      <point x="662" y="-401" type="line"/>
      <point x="661" y="36" type="line"/>
      <point x="663" y="86" type="line"/>
      <point x="663" y="953" type="line"/>
      <point x="662" y="1002" type="line"/>
    </contour>
  </outline>
</glyph>
<glyph name="KoppaArchaic" format="2">
  <advance width="1200"/>
  <unicode hex="03D8"/>
  <anchor x="600" y="-386" name="bottom"/>
  <outline>
    <contour>
      <point x="537" y="-397" type="line"/>
      <point x="666" y="-397" type="line"/>
      <point x="666" y="0" type="line"/>
      <point x="537" y="0" type="line"/>
    </contour>
    <component base="O"/>
  </outline>
</glyph>
<glyph name="Stigma" format="2">
  <advance width="1200"/>
  <unicode hex="03DA"/>
  <anchor x="600" y="1374" name="top"/>
  <outline>
    <contour>
      <point x="711" y="-423" type="line"/>
      <point x="917" y="-330"/>
      <point x="1007" y="-242"/>
      <point x="1007" y="-102" type="curve" smooth="yes"/>
      <point x="1007" y="52"/>
      <point x="901" y="129"/>
      <point x="670" y="218" type="curve" smooth="yes"/>
      <point x="412" y="319"/>
      <point x="306" y="445"/>
      <point x="306" y="744" type="curve" smooth="yes"/>
      <point x="306" y="1052"/>
      <point x="460" y="1260"/>
      <point x="782" y="1260" type="curve" smooth="yes"/>
      <point x="1055" y="1260" type="line"/>
      <point x="1080" y="1374" type="line"/>
      <point x="805" y="1374" type="line" smooth="yes"/>
      <point x="313" y="1374"/>
      <point x="168" y="1058"/>
      <point x="168" y="743" type="curve" smooth="yes"/>
      <point x="168" y="423"/>
      <point x="283" y="243"/>
      <point x="588" y="120" type="curve" smooth="yes"/>
      <point x="808" y="31"/>
      <point x="866" y="-4"/>
      <point x="866" y="-101" type="curve" smooth="yes"/>
      <point x="866" y="-219"/>
      <point x="776" y="-279"/>
      <point x="654" y="-328" type="curve"/>
    </contour>
  </outline>
</glyph>
<glyph name="rhoSymbol" format="2">
  <advance width="1200"/>
  <unicode hex="03F1"/>
  <anchor x="600" y="-386" name="bottom"/>
  <anchor x="600" y="1050" name="top"/>
  <outline>
    <contour>
      <point x="777" y="-426" type="curve"/>
      <point x="901" y="-363" type="line"/>
      <point x="873" y="-297"/>
      <point x="803" y="-251"/>
      <point x="616" y="-224" type="curve" smooth="yes"/>
      <point x="377" y="-187"/>
      <point x="327" y="-154"/>
      <point x="327" y="23" type="curve"/>
      <point x="203" y="4" type="line"/>
      <point x="203" y="-218"/>
      <point x="308" y="-293"/>
      <point x="535" y="-330" type="curve" smooth="yes"/>
      <point x="723" y="-361"/>
      <point x="749" y="-372"/>
    </contour>
    <contour>
      <point x="308" y="219" type="line"/>
      <point x="372" y="100"/>
      <point x="481" y="45"/>
      <point x="614" y="45" type="curve" smooth="yes"/>
      <point x="895" y="45"/>
      <point x="1029" y="311"/>
      <point x="1029" y="578" type="curve" smooth="yes"/>
      <point x="1029" y="869"/>
      <point x="889" y="1069"/>
      <point x="608" y="1069" type="curve" smooth="yes"/>
      <point x="346" y="1069"/>
      <point x="203" y="893"/>
      <point x="203" y="538" type="curve" smooth="yes"/>
      <point x="203" y="4" type="line"/>
      <point x="327" y="23" type="line"/>
      <point x="327" y="508" type="line" smooth="yes"/>
      <point x="327" y="795"/>
      <point x="396" y="965"/>
      <point x="612" y="965" type="curve" smooth="yes"/>
      <point x="799" y="965"/>
      <point x="890" y="818"/>
      <point x="890" y="580" type="curve" smooth="yes"/>
      <point x="890" y="324"/>
      <point x="789" y="155"/>
      <point x="592" y="155" type="curve" smooth="yes"/>
      <point x="469" y="155"/>
      <point x="362" y="232"/>
      <point x="311" y="356" type="curve"/>
    </contour>
  </outline>
</glyph>
<glyph name="rhoStrokeSymbol" format="2">
  <advance width="1200"/>
  <unicode hex="03FC"/>
  <outline>
    <contour>
      <point x="98" y="-139" type="line"/>
      <point x="98" y="-257" type="line"/>
      <point x="272" y="-257" type="line"/>
      <point x="731" y="-257" type="line"/>
      <point x="731" y="-139" type="line"/>
    </contour>
    <component base="rho" xOffset="69"/>
  </outline>
</glyph>
<glyph name="Dje-cy" format="2">
  <advance width="1200"/>
  <unicode hex="0402"/>
  <anchor x="600" y="-386" name="bottom"/>
  <anchor x="600" y="1374" name="top"/>
  <outline>
    <contour>
      <point x="463" y="1257" type="line"/>
      <point x="796" y="1257" type="line"/>
      <point x="810" y="1374" type="line"/>
      <point x="-7" y="1374" type="line"/>
      <point x="-7" y="1257" type="line"/>
      <point x="329" y="1257" type="line"/>
      <point x="329" y="0" type="line"/>
      <point x="463" y="0" type="line"/>
      <point x="463" y="643" type="line"/>
      <point x="519" y="693"/>
      <point x="602" y="762"/>
      <point x="743" y="762" type="curve" smooth="yes"/>
      <point x="923" y="762"/>
      <point x="989" y="675"/>
      <point x="989" y="465" type="curve" smooth="yes"/>
      <point x="989" y="187" type="line" smooth="yes"/>
      <point x="989" y="4"/>
      <point x="946" y="-65"/>
      <point x="768" y="-136" type="curve"/>
      <point x="799" y="-250" type="line"/>
      <point x="1013" y="-178"/>
      <point x="1124" y="-74"/>
      <point x="1124" y="189" type="curve" smooth="yes"/>
      <point x="1124" y="490" type="line" smooth="yes"/>
      <point x="1124" y="747"/>
      <point x="1011" y="887"/>
      <point x="769" y="887" type="curve" smooth="yes"/>
      <point x="641" y="887"/>
      <point x="539" y="827"/>
      <point x="463" y="759" type="curve"/>
    </contour>
  </outline>
</glyph>
<glyph name="Ge-cy" format="2">
  <advance width="1200"/>
  <unicode hex="0413"/>
  <anchor x="364" y="0" name="bottom"/>
  <anchor x="429" y="0" name="bottomright"/>
  <anchor x="707" y="1374" name="top"/>
  <outline>
    <contour>
      <point x="1081" y="1374" type="line"/>
      <point x="299" y="1374" type="line"/>
      <point x="299" y="0" type="line"/>
      <point x="426" y="0" type="line"/>
      <point x="426" y="1253" type="line"/>
      <point x="1066" y="1253" type="line"/>
    </contour>
  </outline>
</glyph>
<glyph name="Ii-cy" format="2">
  <advance width="1200"/>
  <unicode hex="0418"/>
  <anchor x="600" y="0" name="bottom"/>
  <anchor x="1034" y="0" name="bottomright"/>
  <anchor x="600" y="1374" name="top"/>
  <outline>
    <contour>
      <point x="186" y="0" type="line"/>
      <point x="370" y="0" type="line"/>
      <point x="903" y="1247" type="line"/>
      <point x="893" y="1135"/>
      <point x="880" y="960"/>
      <point x="880" y="768" type="curve" smooth="yes"/>
      <point x="880" y="0" type="line"/>
      <point x="1014" y="0" type="line"/>
      <point x="1014" y="1374" type="line"/>
      <point x="833" y="1374" type="line"/>
      <point x="298" y="114" type="line"/>
      <point x="314" y="262"/>
      <point x="320" y="380"/>
      <point x="320" y="611" type="curve" smooth="yes"/>
      <point x="320" y="1374" type="line"/>
      <point x="186" y="1374" type="line"/>
    </contour>
  </outline>
</glyph>
<glyph name="Pe-cy" format="2">
  <advance width="1200"/>
  <unicode hex="041F"/>
  <anchor x="600" y="0" name="bottom"/>
  <anchor x="1034" y="0" name="bottomright"/>
  <anchor x="600" y="1374" name="top"/>
  <outline>
    <contour>
      <point x="887" y="0" type="line"/>
      <point x="1014" y="0" type="line"/>
      <point x="1014" y="1374" type="line"/>
      <point x="186" y="1374" type="line"/>
      <point x="186" y="0" type="line"/>
      <point x="313" y="0" type="line"/>
      <point x="313" y="1253" type="line"/>
      <point x="887" y="1253" type="line"/>
    </contour>
  </outline>
</glyph>
<glyph name="U-cy" format="2">
  <advance width="1200"/>
  <unicode hex="0423"/>
  <guideline x="822" y="923" angle="246.7784"/>
  <anchor x="600" y="0" name="bottom"/>
  <anchor x="620" y="1374" name="top"/>
  <outline>
    <contour>
      <point x="1144" y="1374" type="line"/>
      <point x="1015" y="1374" type="line"/>
      <point x="628" y="472" type="line"/>
      <point x="205" y="1374" type="line"/>
      <point x="72" y="1374" type="line"/>
      <point x="533" y="383" type="line"/>
      <point x="591" y="383" type="line"/>
      <point x="508" y="189"/>
      <point x="439" y="126"/>
      <point x="231" y="94" type="curve"/>
      <point x="252" y="-20" type="line"/>
      <point x="517" y="19"/>
      <point x="618" y="136"/>
      <point x="702" y="327" type="curve" smooth="yes"/>
    </contour>
  </outline>
</glyph>
<glyph name="Softsign-cy" format="2">
  <advance width="1200"/>
  <unicode hex="042C"/>
  <anchor x="600" y="0" name="bottom"/>
  <anchor x="600" y="1374" name="top"/>
  <outline>
    <contour>
      <point x="339" y="1374" type="line"/>
      <point x="212" y="1374" type="line"/>
      <point x="212" y="0" type="line"/>
      <point x="564" y="0" type="line" smooth="yes"/>
      <point x="866" y="0"/>
      <point x="1088" y="115"/>
      <point x="1088" y="435" type="curve" smooth="yes"/>
      <point x="1088" y="729"/>
      <point x="890" y="851"/>
      <point x="568" y="851" type="curve" smooth="yes"/>
      <point x="339" y="851" type="line"/>
    </contour>
    <contour>
      <point x="602" y="742" type="line" smooth="yes"/>
      <point x="793" y="742"/>
      <point x="947" y="664"/>
      <point x="947" y="433" type="curve" smooth="yes"/>
      <point x="947" y="166"/>
      <point x="791" y="112"/>
      <point x="597" y="112" type="curve" smooth="yes"/>
      <point x="339" y="112" type="line"/>
      <point x="339" y="742" type="line"/>
    </contour>
  </outline>
</glyph>
<glyph name="Iu-cy" format="2">
  <advance width="1200"/>
  <unicode hex="042E"/>
  <anchor x="600" y="0" name="bottom"/>
  <anchor x="600" y="1374" name="top"/>
  <outline>
    <contour>
      <point x="774" y="1393" type="curve" smooth="yes"/>
      <point x="512" y="1393"/>
      <point x="410" y="1174"/>
      <point x="394" y="773" type="curve"/>
      <point x="245" y="773" type="line"/>
      <point x="245" y="1374" type="line"/>
      <point x="102" y="1374" type="line"/>
      <point x="102" y="0" type="line"/>
      <point x="245" y="0" type="line"/>
      <point x="245" y="653" type="line"/>
      <point x="392" y="653" type="line"/>
      <point x="397" y="260"/>
      <point x="484" y="-20"/>
      <point x="774" y="-20" type="curve" smooth="yes"/>
      <point x="1041" y="-20"/>
      <point x="1153" y="234"/>
      <point x="1153" y="685" type="curve" smooth="yes"/>
      <point x="1153" y="1148"/>
      <point x="1059" y="1393"/>
    </contour>
    <contour>
      <point x="774" y="1273" type="curve" smooth="yes"/>
      <point x="926" y="1273"/>
      <point x="1003" y="1116"/>
      <point x="1003" y="685" type="curve" smooth="yes"/>
      <point x="1003" y="253"/>
      <point x="927" y="100"/>
      <point x="774" y="100" type="curve" smooth="yes"/>
      <point x="610" y="100"/>
      <point x="544" y="255"/>
      <point x="544" y="687" type="curve" smooth="yes"/>
      <point x="544" y="1118"/>
      <point x="608" y="1273"/>
    </contour>
  </outline>
</glyph>
<glyph name="be-cy" format="2">
  <advance width="1200"/>
  <unicode hex="0431"/>
  <anchor x="600" y="0" name="bottom"/>
  <anchor x="600" y="1475" name="top"/>
  <outline>
    <contour>
      <point x="857" y="1495" type="line"/>
      <point x="770" y="1430"/>
      <point x="694" y="1398"/>
      <point x="543" y="1343" type="curve" smooth="yes"/>
      <point x="246" y="1234"/>
      <point x="170" y="1008"/>
      <point x="170" y="571" type="curve" smooth="yes"/>
      <point x="170" y="157"/>
      <point x="368" y="-20"/>
      <point x="597" y="-20" type="curve" smooth="yes"/>
      <point x="853" y="-20"/>
      <point x="1028" y="170"/>
      <point x="1028" y="507" type="curve" smooth="yes"/>
      <point x="1028" y="800"/>
      <point x="882" y="979"/>
      <point x="652" y="979" type="curve" smooth="yes"/>
      <point x="464" y="979"/>
      <point x="323" y="850"/>
      <point x="273" y="680" type="curve"/>
      <point x="275" y="520" type="line"/>
      <point x="352" y="799"/>
      <point x="511" y="865"/>
      <point x="645" y="865" type="curve" smooth="yes"/>
      <point x="784" y="865"/>
      <point x="882" y="769"/>
      <point x="882" y="500" type="curve" smooth="yes"/>
      <point x="882" y="173"/>
      <point x="753" y="93"/>
      <point x="597" y="93" type="curve" smooth="yes"/>
      <point x="429" y="93"/>
      <point x="314" y="243"/>
      <point x="314" y="507" type="curve"/>
      <point x="314" y="738" type="line"/>
      <point x="310" y="748" type="line"/>
      <point x="339" y="1098"/>
      <point x="446" y="1171"/>
      <point x="611" y="1235" type="curve" smooth="yes"/>
      <point x="767" y="1294"/>
      <point x="860" y="1350"/>
      <point x="919" y="1385" type="curve"/>
    </contour>
  </outline>
</glyph>
<glyph name="pe-cy" format="2">
  <advance width="1200"/>
  <unicode hex="043F"/>
  <anchor x="600" y="0" name="bottom"/>
  <anchor x="1001" y="0" name="bottomright"/>
  <anchor x="600" y="1050" name="top"/>
  <outline>
    <contour>
      <point x="856" y="0" type="line"/>
      <point x="981" y="0" type="line"/>
      <point x="981" y="1050" type="line"/>
      <point x="219" y="1050" type="line"/>
      <point x="219" y="0" type="line"/>
      <point x="344" y="0" type="line"/>
      <point x="344" y="941" type="line"/>
      <point x="856" y="941" type="line"/>
    </contour>
  </outline>
</glyph>
<glyph name="che-cy" format="2">
  <advance width="1200"/>
  <unicode hex="0447"/>
  <anchor x="600" y="0" name="bottom"/>
  <anchor x="812" y="0" name="bottomleft"/>
  <anchor x="977" y="0" name="bottomright"/>
  <anchor x="574" y="1050" name="top"/>
  <outline>
    <contour>
      <point x="956" y="1050" type="line"/>
      <point x="832" y="1050" type="line"/>
      <point x="832" y="575" type="line"/>
      <point x="762" y="491"/>
      <point x="624" y="440"/>
      <point x="513" y="440" type="curve" smooth="yes"/>
      <point x="376" y="440"/>
      <point x="316" y="503"/>
      <point x="316" y="654" type="curve" smooth="yes"/>
      <point x="316" y="1050" type="line"/>
      <point x="192" y="1050" type="line"/>
      <point x="192" y="640" type="line" smooth="yes"/>
      <point x="192" y="447"/>
      <point x="293" y="336"/>
      <point x="493" y="336" type="curve" smooth="yes"/>
      <point x="626" y="336"/>
      <point x="751" y="385"/>
      <point x="832" y="461" type="curve"/>
      <point x="832" y="0" type="line"/>
      <point x="956" y="0" type="line"/>
    </contour>
  </outline>
</glyph>
<glyph name="iu-cy" format="2">
  <advance width="1200"/>
  <unicode hex="044E"/>
  <anchor x="600" y="0" name="bottom"/>
  <anchor x="600" y="1050" name="top"/>
  <outline>
    <contour>
      <point x="761" y="1069" type="curve" smooth="yes"/>
      <point x="535" y="1069"/>
      <point x="420" y="890"/>
      <point x="406" y="597" type="curve"/>
      <point x="261" y="597" type="line"/>
      <point x="261" y="1050" type="line"/>
      <point x="125" y="1050" type="line"/>
      <point x="125" y="0" type="line"/>
      <point x="261" y="0" type="line"/>
      <point x="261" y="478" type="line"/>
      <point x="407" y="478" type="line"/>
      <point x="416" y="201"/>
      <point x="523" y="-20"/>
      <point x="761" y="-20" type="curve" smooth="yes"/>
      <point x="1011" y="-20"/>
      <point x="1125" y="205"/>
      <point x="1125" y="525" type="curve" smooth="yes"/>
      <point x="1125" y="867"/>
      <point x="1003" y="1069"/>
    </contour>
    <contour>
      <point x="761" y="951" type="curve" smooth="yes"/>
      <point x="920" y="951"/>
      <point x="975" y="812"/>
      <point x="975" y="525" type="curve" smooth="yes"/>
      <point x="975" y="268"/>
      <point x="933" y="98"/>
      <point x="761" y="98" type="curve" smooth="yes"/>
      <point x="595" y="98"/>
      <point x="553" y="268"/>
      <point x="553" y="523" type="curve" smooth="yes"/>
      <point x="553" y="809"/>
      <point x="600" y="951"/>
    </contour>
  </outline>
</glyph>
<glyph name="dje-cy" format="2">
  <advance width="1200"/>
  <unicode hex="0452"/>
  <anchor x="600" y="-386" name="bottom"/>
  <anchor x="600" y="1475" name="top"/>
  <outline>
    <contour>
      <point x="343" y="1487" type="line"/>
      <point x="219" y="1472" type="line"/>
      <point x="219" y="1317" type="line"/>
      <point x="45" y="1317" type="line"/>
      <point x="45" y="1198" type="line"/>
      <point x="219" y="1198" type="line"/>
      <point x="219" y="0" type="line"/>
      <point x="343" y="0" type="line"/>
      <point x="343" y="777" type="line"/>
      <point x="397" y="860"/>
      <point x="518" y="966"/>
      <point x="654" y="966" type="curve" smooth="yes"/>
      <point x="799" y="966"/>
      <point x="860" y="902"/>
      <point x="860" y="759" type="curve" smooth="yes"/>
      <point x="860" y="36" type="line" smooth="yes"/>
      <point x="860" y="-210"/>
      <point x="800" y="-259"/>
      <point x="659" y="-325" type="curve"/>
      <point x="708" y="-415" type="line"/>
      <point x="894" y="-327"/>
      <point x="984" y="-248"/>
      <point x="984" y="20" type="curve" smooth="yes"/>
      <point x="984" y="760" type="line" smooth="yes"/>
      <point x="984" y="953"/>
      <point x="897" y="1069"/>
      <point x="686" y="1069" type="curve" smooth="yes"/>
      <point x="561" y="1069"/>
      <point x="425" y="1009"/>
      <point x="343" y="905" type="curve"/>
      <point x="343" y="1198" type="line"/>
      <point x="698" y="1198" type="line"/>
      <point x="698" y="1317" type="line"/>
      <point x="343" y="1317" type="line"/>
    </contour>
  </outline>
</glyph>
<glyph name="lje-cy" format="2">
  <advance width="1200"/>
  <unicode hex="0459"/>
  <anchor x="600" y="0" name="bottom"/>
  <anchor x="600" y="1050" name="top"/>
  <outline>
    <contour>
      <point x="715" y="1050" type="line"/>
      <point x="213" y="1050" type="line"/>
      <point x="188" y="621" type="line" smooth="yes"/>
      <point x="164" y="203"/>
      <point x="87" y="135"/>
      <point x="14" y="72" type="curve"/>
      <point x="64" y="-17" type="line"/>
      <point x="227" y="87"/>
      <point x="306" y="185"/>
      <point x="327" y="643" type="curve" smooth="yes"/>
      <point x="341" y="939" type="line"/>
      <point x="581" y="939" type="line"/>
      <point x="581" y="0" type="line"/>
      <point x="740" y="0" type="line" smooth="yes"/>
      <point x="1009" y="0"/>
      <point x="1178" y="115"/>
      <point x="1178" y="365" type="curve" smooth="yes"/>
      <point x="1178" y="605"/>
      <point x="1007" y="706"/>
      <point x="745" y="706" type="curve" smooth="yes"/>
      <point x="715" y="706" type="line"/>
    </contour>
    <contour>
      <point x="756" y="599" type="line" smooth="yes"/>
      <point x="947" y="599"/>
      <point x="1032" y="534"/>
      <point x="1032" y="363" type="curve" smooth="yes"/>
      <point x="1032" y="167"/>
      <point x="934" y="113"/>
      <point x="761" y="113" type="curve" smooth="yes"/>
      <point x="715" y="113" type="line"/>
      <point x="715" y="599" type="line"/>
    </contour>
  </outline>
</glyph>
<glyph name="nje-cy" format="2">
  <advance width="1200"/>
  <unicode hex="045A"/>
  <anchor x="600" y="0" name="bottom"/>
  <anchor x="600" y="1050" name="top"/>
  <outline>
    <contour>
      <point x="721" y="1050" type="line"/>
      <point x="588" y="1050" type="line"/>
      <point x="588" y="648" type="line"/>
      <point x="307" y="648" type="line"/>
      <point x="307" y="1050" type="line"/>
      <point x="168" y="1050" type="line"/>
      <point x="168" y="0" type="line"/>
      <point x="307" y="0" type="line"/>
      <point x="307" y="545" type="line"/>
      <point x="588" y="545" type="line"/>
      <point x="588" y="0" type="line"/>
      <point x="760" y="0" type="line" smooth="yes"/>
      <point x="1009" y="0"/>
      <point x="1184" y="80"/>
      <point x="1184" y="326" type="curve" smooth="yes"/>
      <point x="1184" y="567"/>
      <point x="1011" y="648"/>
      <point x="750" y="648" type="curve" smooth="yes"/>
      <point x="721" y="648" type="line"/>
    </contour>
    <contour>
      <point x="757" y="541" type="line" smooth="yes"/>
      <point x="948" y="541"/>
      <point x="1035" y="496"/>
      <point x="1035" y="324" type="curve" smooth="yes"/>
      <point x="1035" y="128"/>
      <point x="929" y="110"/>
      <point x="767" y="110" type="curve" smooth="yes"/>
      <point x="721" y="110" type="line"/>
      <point x="721" y="541" type="line"/>
    </contour>
  </outline>
</glyph>
<glyph name="Yat-cy" format="2">
  <advance width="1200"/>
  <unicode hex="0462"/>
  <anchor x="600" y="0" name="bottom"/>
  <anchor x="600" y="1374" name="top"/>
  <outline>
    <contour>
      <point x="325" y="0" type="line"/>
      <point x="583" y="0" type="line" smooth="yes"/>
      <point x="902" y="0"/>
      <point x="1124" y="123"/>
      <point x="1124" y="437" type="curve" smooth="yes"/>
      <point x="1124" y="714"/>
      <point x="926" y="848"/>
      <point x="622" y="848" type="curve" smooth="yes"/>
      <point x="420" y="848" type="line"/>
      <point x="420" y="738" type="line"/>
      <point x="630" y="738" type="line" smooth="yes"/>
      <point x="846" y="738"/>
      <point x="984" y="664"/>
      <point x="984" y="432" type="curve" smooth="yes"/>
      <point x="984" y="175"/>
      <point x="828" y="112"/>
      <point x="616" y="112" type="curve" smooth="yes"/>
      <point x="452" y="112" type="line"/>
      <point x="452" y="1374" type="line"/>
      <point x="325" y="1374" type="line"/>
    </contour>
    <contour>
      <point x="20" y="1067" type="line"/>
      <point x="777" y="1067" type="line"/>
      <point x="777" y="1178" type="line"/>
      <point x="325" y="1178" type="line"/>
      <point x="20" y="1178" type="line"/>
    </contour>
  </outline>
</glyph>
<glyph name="yat-cy" format="2">
  <advance width="1200"/>
  <unicode hex="0463"/>
  <anchor x="600" y="0" name="bottom"/>
  <anchor x="379" y="1304" name="top"/>
  <outline>
    <contour>
      <point x="441" y="1299" type="line"/>
      <point x="317" y="1281" type="line"/>
      <point x="317" y="1064" type="line"/>
      <point x="131" y="1064" type="line"/>
      <point x="131" y="945" type="line"/>
      <point x="317" y="945" type="line"/>
      <point x="317" y="0" type="line"/>
      <point x="576" y="0" type="line" smooth="yes"/>
      <point x="848" y="0"/>
      <point x="1066" y="78"/>
      <point x="1066" y="358" type="curve" smooth="yes"/>
      <point x="1066" y="609"/>
      <point x="875" y="703"/>
      <point x="594" y="703" type="curve" smooth="yes"/>
      <point x="441" y="703" type="line"/>
      <point x="441" y="945" type="line"/>
      <point x="688" y="945" type="line"/>
      <point x="707" y="1064" type="line"/>
      <point x="441" y="1064" type="line"/>
    </contour>
    <contour>
      <point x="619" y="594" type="line" smooth="yes"/>
      <point x="809" y="594"/>
      <point x="929" y="531"/>
      <point x="929" y="355" type="curve" smooth="yes"/>
      <point x="929" y="150"/>
      <point x="789" y="110"/>
      <point x="614" y="110" type="curve" smooth="yes"/>
      <point x="441" y="110" type="line"/>
      <point x="441" y="594" type="line"/>
    </contour>
  </outline>
</glyph>
<glyph name="Yuslittle-cy" format="2">
  <advance width="1200"/>
  <unicode hex="0466"/>
  <anchor x="600" y="0" name="bottom"/>
  <anchor x="600" y="1374" name="top"/>
  <outline>
    <contour>
      <point x="60" y="0" type="line"/>
      <point x="200" y="0" type="line"/>
      <point x="596" y="1228" type="line"/>
      <point x="991" y="0" type="line"/>
      <point x="1140" y="0" type="line"/>
      <point x="684" y="1374" type="line"/>
      <point x="515" y="1374" type="line"/>
    </contour>
    <contour>
      <point x="523" y="1" type="line"/>
      <point x="664" y="1" type="line"/>
      <point x="664" y="653" type="line"/>
      <point x="523" y="653" type="line"/>
    </contour>
    <contour>
      <point x="264" y="607" type="line"/>
      <point x="929" y="607" type="line"/>
      <point x="888" y="731" type="line"/>
      <point x="304" y="731" type="line"/>
    </contour>
  </outline>
</glyph>
<glyph name="Yusbigiotified-cy" format="2">
  <advance width="1200"/>
  <unicode hex="046C"/>
  <anchor x="600" y="0" name="bottom"/>
  <anchor x="600" y="1374" name="top"/>
  <outline>
    <contour>
      <point x="45" y="2" type="line"/>
      <point x="192" y="2" type="line"/>
      <point x="192" y="623" type="line"/>
      <point x="848" y="623" type="line"/>
      <point x="825" y="743" type="line"/>
      <point x="192" y="743" type="line"/>
      <point x="192" y="1374" type="line"/>
      <point x="45" y="1374" type="line"/>
    </contour>
    <contour>
      <point x="248" y="0" type="line"/>
      <point x="389" y="0" type="line"/>
      <point x="574" y="623" type="line"/>
      <point x="679" y="623" type="line"/>
      <point x="679" y="0" type="line"/>
      <point x="837" y="0" type="line"/>
      <point x="837" y="623" type="line"/>
      <point x="942" y="623" type="line"/>
      <point x="1124" y="0" type="line"/>
      <point x="1263" y="0" type="line"/>
      <point x="1039" y="743" type="line"/>
      <point x="496" y="743" type="line"/>
    </contour>
    <contour>
      <point x="671" y="646" type="line"/>
      <point x="841" y="646" type="line"/>
      <point x="1148" y="1276" type="line"/>
      <point x="1148" y="1374" type="line"/>
      <point x="1050" y="1374" type="line"/>
      <point x="765" y="743" type="line"/>
      <point x="488" y="1374" type="line"/>
      <point x="382" y="1374" type="line"/>
      <point x="382" y="1276" type="line"/>
    </contour>
    <contour>
      <point x="429" y="1262" type="line"/>
      <point x="1108" y="1262" type="line"/>
      <point x="1108" y="1374" type="line"/>
      <point x="413" y="1374" type="line"/>
    </contour>
  </outline>
</glyph>
<glyph name="Izhitsa-cy" format="2">
  <advance width="1200"/>
  <unicode hex="0474"/>
  <anchor x="600" y="0" name="bottom"/>
  <anchor x="573" y="1374" name="top"/>
  <outline>
    <contour>
      <point x="1125" y="1273" type="curve"/>
      <point x="1184" y="1349" type="line"/>
      <point x="1138" y="1375"/>
      <point x="1096" y="1391"/>
      <point x="1038" y="1391" type="curve" smooth="yes"/>
      <point x="928" y="1391"/>
      <point x="868" y="1329"/>
      <point x="828" y="1193" type="curve" smooth="yes"/>
      <point x="553" y="186" type="line"/>
      <point x="206" y="1374" type="line"/>
      <point x="67" y="1374" type="line"/>
      <point x="494" y="0" type="line"/>
      <point x="619" y="0" type="line"/>
      <point x="934" y="1165" type="line" smooth="yes"/>
      <point x="959" y="1252"/>
      <point x="988" y="1292"/>
      <point x="1046" y="1292" type="curve" smooth="yes"/>
      <point x="1075" y="1292"/>
      <point x="1097" y="1284"/>
    </contour>
  </outline>
</glyph>
<glyph name="izhitsa-cy" format="2">
  <advance width="1200"/>
  <unicode hex="0475"/>
  <anchor x="600" y="0" name="bottom"/>
  <anchor x="603" y="1050" name="top"/>
  <outline>
    <contour>
      <point x="511" y="0" type="line"/>
      <point x="665" y="0" type="line"/>
      <point x="985" y="945" type="line" smooth="yes"/>
      <point x="1008" y="1012"/>
      <point x="1029" y="1040"/>
      <point x="1078" y="1040" type="curve" smooth="yes"/>
      <point x="1101" y="1040"/>
      <point x="1122" y="1036"/>
      <point x="1147" y="1026" type="curve"/>
      <point x="1201" y="1104" type="line"/>
      <point x="1156" y="1130"/>
      <point x="1112" y="1145"/>
      <point x="1072" y="1145" type="curve" smooth="yes"/>
      <point x="956" y="1145"/>
      <point x="916" y="1087"/>
      <point x="870" y="953" type="curve" smooth="yes"/>
      <point x="587" y="129" type="line"/>
      <point x="272" y="1050" type="line"/>
      <point x="137" y="1050" type="line"/>
    </contour>
  </outline>
</glyph>
<glyph name="ghestroke-cy" format="2">
  <advance width="1200"/>
  <unicode hex="0493"/>
  <outline>
    <contour>
      <point x="780" y="598" type="line"/>
      <point x="401" y="598" type="line"/>
      <point x="202" y="598" type="line"/>
      <point x="202" y="485" type="line"/>
      <point x="780" y="485" type="line"/>
    </contour>
    <component base="ge-cy" xOffset="64"/>
  </outline>
</glyph>
<glyph name="ghemiddlehook-cy" format="2">
  <advance width="1200"/>
  <unicode hex="0495"/>
  <anchor x="600" y="-386" name="bottom"/>
  <anchor x="600" y="1050" name="top"/>
  <outline>
    <contour>
      <point x="844" y="0" type="line"/>
      <point x="968" y="0" type="line"/>
      <point x="968" y="393" type="line" smooth="yes"/>
      <point x="968" y="588"/>
      <point x="833" y="701"/>
      <point x="667" y="701" type="curve" smooth="yes"/>
      <point x="496" y="701"/>
      <point x="373" y="600"/>
      <point x="305" y="490" type="curve"/>
      <point x="348" y="420" type="line"/>
      <point x="428" y="516"/>
      <point x="515" y="597"/>
      <point x="655" y="597" type="curve" smooth="yes"/>
      <point x="766" y="597"/>
      <point x="844" y="536"/>
      <point x="844" y="379" type="curve" smooth="yes"/>
    </contour>
    <contour>
      <point x="217" y="0" type="line"/>
      <point x="341" y="0" type="line"/>
      <point x="341" y="1050" type="line"/>
      <point x="217" y="1050" type="line"/>
    </contour>
    <contour>
      <point x="341" y="945" type="line"/>
      <point x="809" y="945" type="line"/>
      <point x="824" y="1050" type="line"/>
      <point x="217" y="1050" type="line"/>
    </contour>
    <component base="hookHELPER" xOffset="461"/>
  </outline>
</glyph>
<glyph name="kaverticalstroke-cy" format="2">
  <advance width="1200"/>
  <unicode hex="049D"/>
  <anchor x="600" y="0" name="bottom"/>
  <anchor x="600" y="1050" name="top"/>
  <outline>
    <contour>
      <point x="230" y="0" type="line"/>
      <point x="362" y="0" type="line"/>
      <point x="362" y="494" type="line"/>
      <point x="459" y="494" type="line"/>
      <point x="459" y="243" type="line"/>
      <point x="549" y="243" type="line"/>
      <point x="549" y="494" type="line"/>
      <point x="611" y="494" type="line"/>
      <point x="987" y="0" type="line"/>
      <point x="1128" y="0" type="line"/>
      <point x="714" y="567" type="line"/>
      <point x="1065" y="1050" type="line"/>
      <point x="927" y="1050" type="line"/>
      <point x="611" y="627" type="line"/>
      <point x="549" y="627" type="line"/>
      <point x="549" y="857" type="line"/>
      <point x="459" y="857" type="line"/>
      <point x="459" y="627" type="line"/>
      <point x="362" y="627" type="line"/>
      <point x="362" y="1050" type="line"/>
      <point x="230" y="1050" type="line"/>
    </contour>
  </outline>
</glyph>
<glyph name="Kastroke-cy" format="2">
  <advance width="1200"/>
  <unicode hex="049E"/>
  <outline>
    <contour>
      <point x="90" y="1051" type="line"/>
      <point x="624" y="1051" type="line"/>
      <point x="624" y="1165" type="line"/>
      <point x="253" y="1165" type="line"/>
      <point x="90" y="1165" type="line"/>
    </contour>
    <contour>
      <point x="548" y="665" type="line"/>
      <point x="990" y="0" type="line"/>
      <point x="1156" y="0" type="line"/>
      <point x="661" y="721" type="line"/>
      <point x="1118" y="1374" type="line"/>
      <point x="969" y="1374" type="line"/>
      <point x="552" y="784" type="line"/>
      <point x="378" y="784" type="line"/>
      <point x="378" y="1374" type="line"/>
      <point x="250" y="1374" type="line"/>
      <point x="250" y="0" type="line"/>
      <point x="378" y="0" type="line"/>
      <point x="378" y="665" type="line"/>
    </contour>
  </outline>
</glyph>
<glyph name="Kabashkir-cy" format="2">
  <advance width="1200"/>
  <unicode hex="04A0"/>
  <outline>
    <contour>
      <point x="571" y="663" type="line"/>
      <point x="1024" y="0" type="line"/>
      <point x="1196" y="0" type="line"/>
      <point x="691" y="721" type="line"/>
      <point x="1157" y="1374" type="line"/>
      <point x="1004" y="1374" type="line"/>
      <point x="575" y="787" type="line"/>
      <point x="425" y="787" type="line"/>
      <point x="425" y="1374" type="line"/>
      <point x="29" y="1374" type="line"/>
      <point x="29" y="1248" type="line"/>
      <point x="287" y="1248" type="line"/>
      <point x="287" y="0" type="line"/>
      <point x="425" y="0" type="line"/>
      <point x="425" y="663" type="line"/>
    </contour>
  </outline>
</glyph>
<glyph name="enghe-cy" format="2">
  <advance width="1200"/>
  <unicode hex="04A5"/>
  <outline>
    <contour>
      <point x="909" y="942" type="line"/>
      <point x="1194" y="942" type="line"/>
      <point x="1202" y="1050" type="line"/>
      <point x="784" y="1050" type="line"/>
    </contour>
    <contour>
      <point x="784" y="0" type="line"/>
      <point x="908" y="0" type="line"/>
      <point x="908" y="1050" type="line"/>
      <point x="784" y="1050" type="line"/>
      <point x="784" y="592" type="line"/>
      <point x="329" y="592" type="line"/>
      <point x="329" y="1050" type="line"/>
      <point x="205" y="1050" type="line"/>
      <point x="205" y="0" type="line"/>
      <point x="329" y="0" type="line"/>
      <point x="329" y="483" type="line"/>
      <point x="784" y="483" type="line"/>
    </contour>
  </outline>
</glyph>
<glyph name="Pemiddlehook-cy" format="2">
  <advance width="1200"/>
  <unicode hex="04A6"/>
  <anchor x="600" y="-386" name="bottom"/>
  <anchor x="600" y="1374" name="top"/>
  <outline>
    <contour>
      <point x="536" y="0" type="line"/>
      <point x="681" y="0" type="line"/>
      <point x="681" y="1374" type="line"/>
      <point x="58" y="1374" type="line"/>
      <point x="58" y="0" type="line"/>
      <point x="203" y="0" type="line"/>
      <point x="203" y="1238" type="line"/>
      <point x="536" y="1238" type="line"/>
    </contour>
    <contour>
      <point x="892" y="896" type="curve" smooth="yes"/>
      <point x="766" y="896"/>
      <point x="686" y="834"/>
      <point x="609" y="725" type="curve"/>
      <point x="595" y="589" type="line"/>
      <point x="704" y="716"/>
      <point x="788" y="763"/>
      <point x="886" y="763" type="curve" smooth="yes"/>
      <point x="986" y="763"/>
      <point x="1047" y="709"/>
      <point x="1047" y="588" type="curve" smooth="yes"/>
      <point x="1047" y="0" type="line"/>
      <point x="1192" y="0" type="line"/>
      <point x="1192" y="578" type="line" smooth="yes"/>
      <point x="1192" y="771"/>
      <point x="1077" y="896"/>
    </contour>
    <contour>
      <point x="917" y="-414" type="curve" smooth="yes"/>
      <point x="1072" y="-414"/>
      <point x="1192" y="-323"/>
      <point x="1192" y="-125" type="curve" smooth="yes"/>
      <point x="1192" y="2" type="line"/>
      <point x="1047" y="2" type="line"/>
      <point x="1047" y="-136" type="line" smooth="yes"/>
      <point x="1047" y="-240"/>
      <point x="1000" y="-290"/>
      <point x="917" y="-290" type="curve" smooth="yes"/>
      <point x="846" y="-290"/>
      <point x="811" y="-273"/>
      <point x="760" y="-242" type="curve"/>
      <point x="706" y="-344" type="line"/>
      <point x="747" y="-376"/>
      <point x="819" y="-414"/>
    </contour>
  </outline>
</glyph>
<glyph name="ustrait-cy" format="2">
  <advance width="1200"/>
  <unicode hex="04AF"/>
  <anchor x="600" y="-386" name="bottom"/>
  <anchor x="600" y="1050" name="top"/>
  <outline>
    <contour>
      <point x="539" y="-418" type="line"/>
      <point x="661" y="-401" type="line"/>
      <point x="661" y="39" type="line"/>
      <point x="1065" y="1050" type="line"/>
      <point x="935" y="1050" type="line"/>
      <point x="603" y="168" type="line"/>
      <point x="264" y="1050" type="line"/>
      <point x="135" y="1050" type="line"/>
      <point x="539" y="40" type="line"/>
    </contour>
  </outline>
</glyph>
<glyph name="Tetse-cy" format="2">
  <advance width="1200"/>
  <unicode hex="04B4"/>
  <anchor x="600" y="-386" name="bottom"/>
  <anchor x="600" y="1374" name="top"/>
  <outline>
    <contour>
      <point x="702" y="1374" type="line"/>
      <point x="0" y="1374" type="line"/>
      <point x="0" y="1253" type="line"/>
      <point x="278" y="1253" type="line"/>
      <point x="421" y="1253" type="line"/>
      <point x="687" y="1253" type="line"/>
    </contour>
    <contour>
      <point x="1126" y="116" type="line"/>
      <point x="942" y="116" type="line"/>
      <point x="942" y="0" type="line"/>
      <point x="979" y="0" type="line"/>
      <point x="1004" y="-278" type="line"/>
      <point x="1126" y="-278" type="line"/>
    </contour>
    <contour>
      <point x="278" y="0" type="line"/>
      <point x="1024" y="0" type="line"/>
      <point x="1024" y="1374" type="line"/>
      <point x="879" y="1374" type="line"/>
      <point x="879" y="111" type="line"/>
      <point x="423" y="111" type="line"/>
      <point x="423" y="1314" type="line"/>
      <point x="278" y="1314" type="line"/>
    </contour>
  </outline>
</glyph>
<glyph name="Cheverticalstroke-cy" format="2">
  <advance width="1200"/>
  <unicode hex="04B8"/>
  <outline>
    <contour>
      <point x="633" y="1067" type="line"/>
      <point x="521" y="1067" type="line"/>
      <point x="521" y="577" type="line"/>
      <point x="521" y="236" type="line"/>
      <point x="633" y="236" type="line"/>
    </contour>
    <component base="Che-cy"/>
  </outline>
</glyph>
<glyph name="Cheabkhasian-cy" format="2">
  <advance width="1200"/>
  <unicode hex="04BC"/>
  <anchor x="600" y="0" name="bottom"/>
  <anchor x="905" y="0" name="ogonek"/>
  <anchor x="600" y="1374" name="top"/>
  <outline>
    <contour>
      <point x="1129" y="714" type="curve" smooth="yes"/>
      <point x="1129" y="1176"/>
      <point x="950" y="1393"/>
      <point x="718" y="1393" type="curve" smooth="yes"/>
      <point x="453" y="1393"/>
      <point x="261" y="1114"/>
      <point x="261" y="666" type="curve" smooth="yes"/>
      <point x="261" y="206"/>
      <point x="464" y="-20"/>
      <point x="739" y="-20" type="curve" smooth="yes"/>
      <point x="905" y="-20"/>
      <point x="1005" y="49"/>
      <point x="1070" y="102" type="curve"/>
      <point x="998" y="190" type="line"/>
      <point x="935" y="147"/>
      <point x="868" y="99"/>
      <point x="731" y="99" type="curve" smooth="yes"/>
      <point x="560" y="99"/>
      <point x="411" y="248"/>
      <point x="404" y="631" type="curve"/>
      <point x="1125" y="631" type="line"/>
      <point x="1128" y="665"/>
      <point x="1129" y="696"/>
    </contour>
    <contour>
      <point x="716" y="1277" type="curve" smooth="yes"/>
      <point x="876" y="1277"/>
      <point x="980" y="1124"/>
      <point x="1000" y="749" type="curve"/>
      <point x="404" y="749" type="line"/>
      <point x="426" y="1104"/>
      <point x="544" y="1277"/>
    </contour>
    <contour>
      <point x="4" y="837" type="curve" smooth="yes"/>
      <point x="4" y="725"/>
      <point x="91" y="627"/>
      <point x="267" y="627" type="curve" smooth="yes"/>
      <point x="408" y="627" type="line"/>
      <point x="408" y="749" type="line"/>
      <point x="246" y="749" type="line" smooth="yes"/>
      <point x="177" y="749"/>
      <point x="140" y="786"/>
      <point x="140" y="850" type="curve" smooth="yes"/>
      <point x="140" y="900"/>
      <point x="160" y="944"/>
      <point x="186" y="998" type="curve"/>
      <point x="89" y="1046" type="line"/>
      <point x="49" y="993"/>
      <point x="4" y="925"/>
    </contour>
  </outline>
</glyph>
<glyph name="Kahook-cy" format="2">
  <advance width="1200"/>
  <unicode hex="04C3"/>
  <anchor x="600" y="-386" name="bottom"/>
  <anchor x="600" y="1374" name="top"/>
  <outline>
    <contour>
      <point x="186" y="0" type="line"/>
      <point x="313" y="0" type="line"/>
      <point x="313" y="637" type="line"/>
      <point x="584" y="637" type="line"/>
      <point x="625" y="704" type="line"/>
      <point x="1036" y="1374" type="line"/>
      <point x="890" y="1374" type="line"/>
      <point x="530" y="756" type="line"/>
      <point x="313" y="756" type="line"/>
      <point x="313" y="1374" type="line"/>
      <point x="186" y="1374" type="line"/>
    </contour>
    <contour>
      <point x="916" y="0" type="line"/>
      <point x="1043" y="0" type="line"/>
      <point x="1043" y="322" type="line" smooth="yes"/>
      <point x="1043" y="590"/>
      <point x="901" y="756"/>
      <point x="555" y="756" type="curve"/>
      <point x="555" y="637" type="line"/>
      <point x="821" y="637"/>
      <point x="916" y="536"/>
      <point x="916" y="321" type="curve" smooth="yes"/>
    </contour>
    <component base="hookHELPER.case" xOffset="541"/>
  </outline>
</glyph>
<glyph name="Dzeabkhasian-cy" format="2">
  <advance width="1200"/>
  <unicode hex="04E0"/>
  <outline>
    <contour>
      <point x="565" y="-17" type="curve" smooth="yes"/>
      <point x="855" y="-17"/>
      <point x="1042" y="148"/>
      <point x="1042" y="406" type="curve" smooth="yes"/>
      <point x="1042" y="630"/>
      <point x="922" y="798"/>
      <point x="559" y="798" type="curve" smooth="yes"/>
      <point x="447" y="798" type="line"/>
      <point x="364" y="675" type="line"/>
      <point x="620" y="675" type="line" smooth="yes"/>
      <point x="804" y="675"/>
      <point x="909" y="590"/>
      <point x="909" y="410" type="curve" smooth="yes"/>
      <point x="909" y="227"/>
      <point x="798" y="101"/>
      <point x="571" y="101" type="curve" smooth="yes"/>
      <point x="406" y="101"/>
      <point x="323" y="150"/>
      <point x="228" y="212" type="curve"/>
      <point x="158" y="123" type="line"/>
      <point x="267" y="31"/>
      <point x="378" y="-17"/>
    </contour>
    <contour>
      <point x="364" y="792" type="line"/>
      <point x="364" y="675" type="line"/>
      <point x="451" y="732" type="line"/>
      <point x="988" y="1258" type="line"/>
      <point x="988" y="1374" type="line"/>
      <point x="203" y="1374" type="line"/>
      <point x="203" y="1259" type="line"/>
      <point x="829" y="1259" type="line"/>
    </contour>
  </outline>
</glyph>
<glyph name="Obarred-cy" format="2">
  <advance width="1200"/>
  <unicode hex="04E8"/>
  <anchor x="600" y="0" name="bottom"/>
  <anchor x="600" y="1374" name="top"/>
  <outline>
    <contour>
      <point x="1093" y="685" type="curve" smooth="yes"/>
      <point x="1093" y="1104"/>
      <point x="927" y="1393"/>
      <point x="600" y="1393" type="curve" smooth="yes"/>
      <point x="273" y="1393"/>
      <point x="107" y="1094"/>
      <point x="107" y="682" type="curve" smooth="yes"/>
      <point x="107" y="264"/>
      <point x="273" y="-20"/>
      <point x="600" y="-20" type="curve" smooth="yes"/>
      <point x="927" y="-20"/>
      <point x="1093" y="274"/>
    </contour>
    <contour>
      <point x="600" y="98" type="curve" smooth="yes"/>
      <point x="363" y="98"/>
      <point x="255" y="295"/>
      <point x="247" y="645" type="curve"/>
      <point x="950" y="645" type="line"/>
      <point x="943" y="294"/>
      <point x="841" y="98"/>
    </contour>
    <contour>
      <point x="600" y="1275" type="curve" smooth="yes"/>
      <point x="830" y="1275"/>
      <point x="933" y="1093"/>
      <point x="948" y="758" type="curve"/>
      <point x="250" y="758" type="line"/>
      <point x="267" y="1093"/>
      <point x="370" y="1275"/>
    </contour>
  </outline>
</glyph>
<glyph name="Hahook-cy" format="2">
  <advance width="1200"/>
  <unicode hex="04FC"/>
  <outline>
    <contour>
      <point x="1025" y="0" type="line"/>
      <point x="1134" y="0" type="line"/>
      <point x="1134" y="116" type="line"/>
      <point x="1025" y="116" type="line"/>
    </contour>
    <component base="X" xOffset="-40"/>
    <component base="hookHELPER.case" xOffset="632"/>
  </outline>
</glyph>
<glyph name="Komidje-cy" format="2">
  <advance width="1200"/>
  <unicode hex="0502"/>
  <anchor x="600" y="0" name="bottom"/>
  <anchor x="600" y="1374" name="top"/>
  <outline>
    <contour>
      <point x="326" y="-27" type="curve" smooth="yes"/>
      <point x="458" y="-27"/>
      <point x="562" y="43"/>
      <point x="624" y="196" type="curve"/>
      <point x="586" y="323" type="line"/>
      <point x="521" y="173"/>
      <point x="460" y="93"/>
      <point x="351" y="93" type="curve" smooth="yes"/>
      <point x="250" y="93"/>
      <point x="168" y="167"/>
      <point x="168" y="367" type="curve" smooth="yes"/>
      <point x="168" y="614"/>
      <point x="286" y="728"/>
      <point x="466" y="728" type="curve" smooth="yes"/>
      <point x="592" y="728" type="line"/>
      <point x="592" y="843" type="line"/>
      <point x="474" y="843" type="line" smooth="yes"/>
      <point x="156" y="843"/>
      <point x="17" y="664"/>
      <point x="17" y="369" type="curve" smooth="yes"/>
      <point x="17" y="102"/>
      <point x="164" y="-27"/>
    </contour>
    <contour>
      <point x="571" y="972" type="line"/>
      <point x="723" y="972" type="line"/>
      <point x="723" y="1374" type="line"/>
      <point x="571" y="1374" type="line"/>
    </contour>
    <contour>
      <point x="849" y="-25" type="curve" smooth="yes"/>
      <point x="1018" y="-25"/>
      <point x="1172" y="125"/>
      <point x="1172" y="504" type="curve" smooth="yes"/>
      <point x="1172" y="594"/>
      <point x="1168" y="674"/>
      <point x="1163" y="752" type="curve"/>
      <point x="1012" y="752" type="line"/>
      <point x="1018" y="666"/>
      <point x="1022" y="594"/>
      <point x="1022" y="499" type="curve" smooth="yes"/>
      <point x="1022" y="178"/>
      <point x="938" y="93"/>
      <point x="851" y="93" type="curve" smooth="yes"/>
      <point x="766" y="93"/>
      <point x="723" y="173"/>
      <point x="723" y="318" type="curve" smooth="yes"/>
      <point x="723" y="1045" type="line"/>
      <point x="571" y="1045" type="line"/>
      <point x="571" y="279" type="line"/>
      <point x="587" y="84"/>
      <point x="694" y="-25"/>
    </contour>
  </outline>
</glyph>
<glyph name="komidje-cy" format="2">
  <advance width="1200"/>
  <unicode hex="0503"/>
  <anchor x="600" y="0" name="bottom"/>
  <anchor x="600" y="1475" name="top"/>
  <outline>
    <contour>
      <point x="855" y="-25" type="curve" smooth="yes"/>
      <point x="1037" y="-25"/>
      <point x="1171" y="125"/>
      <point x="1171" y="503" type="curve" smooth="yes"/>
      <point x="1171" y="594"/>
      <point x="1167" y="674"/>
      <point x="1162" y="752" type="curve"/>
      <point x="1024" y="752" type="line"/>
      <point x="1029" y="666"/>
      <point x="1033" y="594"/>
      <point x="1033" y="498" type="curve" smooth="yes"/>
      <point x="1033" y="179"/>
      <point x="958" y="94"/>
      <point x="852" y="94" type="curve" smooth="yes"/>
      <point x="766" y="94"/>
      <point x="712" y="183"/>
      <point x="712" y="334" type="curve" smooth="yes"/>
      <point x="712" y="1045" type="line"/>
      <point x="576" y="1045" type="line"/>
      <point x="576" y="305" type="line"/>
      <point x="596" y="66"/>
      <point x="705" y="-25"/>
    </contour>
    <contour>
      <point x="345" y="-20" type="curve" smooth="yes"/>
      <point x="441" y="-20"/>
      <point x="553" y="39"/>
      <point x="652" y="298" type="curve"/>
      <point x="610" y="365" type="line"/>
      <point x="523" y="165"/>
      <point x="446" y="96"/>
      <point x="350" y="96" type="curve" smooth="yes"/>
      <point x="240" y="96"/>
      <point x="172" y="247"/>
      <point x="172" y="523" type="curve" smooth="yes"/>
      <point x="172" y="804"/>
      <point x="252" y="953"/>
      <point x="378" y="953" type="curve" smooth="yes"/>
      <point x="479" y="953"/>
      <point x="533" y="868"/>
      <point x="587" y="789" type="curve"/>
      <point x="608" y="907" type="line"/>
      <point x="549" y="991"/>
      <point x="490" y="1069"/>
      <point x="358" y="1069" type="curve" smooth="yes"/>
      <point x="144" y="1069"/>
      <point x="23" y="836"/>
      <point x="23" y="517" type="curve" smooth="yes"/>
      <point x="23" y="200"/>
      <point x="131" y="-20"/>
    </contour>
    <contour>
      <point x="576" y="235" type="line"/>
      <point x="712" y="250" type="line"/>
      <point x="712" y="1475" type="line"/>
      <point x="576" y="1494" type="line"/>
    </contour>
  </outline>
</glyph>
<glyph name="Komizje-cy" format="2">
  <advance width="1200"/>
  <unicode hex="0504"/>
  <anchor x="600" y="0" name="bottom"/>
  <anchor x="600" y="1374" name="top"/>
  <outline>
    <contour>
      <point x="802" y="-20" type="curve" smooth="yes"/>
      <point x="993" y="-20"/>
      <point x="1145" y="131"/>
      <point x="1145" y="509" type="curve" smooth="yes"/>
      <point x="1145" y="600"/>
      <point x="1141" y="683"/>
      <point x="1136" y="761" type="curve"/>
      <point x="1003" y="761" type="line"/>
      <point x="1009" y="675"/>
      <point x="1013" y="600"/>
      <point x="1013" y="510" type="curve" smooth="yes"/>
      <point x="1013" y="178"/>
      <point x="918" y="84"/>
      <point x="803" y="84" type="curve" smooth="yes"/>
      <point x="700" y="84"/>
      <point x="642" y="146"/>
      <point x="571" y="304" type="curve" smooth="yes"/>
      <point x="424" y="644" type="line"/>
      <point x="279" y="637" type="line"/>
      <point x="457" y="261" type="line" smooth="yes"/>
      <point x="545" y="70"/>
      <point x="640" y="-20"/>
    </contour>
    <contour>
      <point x="121" y="609" type="line"/>
      <point x="312" y="609" type="line"/>
      <point x="277" y="601" type="line"/>
      <point x="601" y="641"/>
      <point x="743" y="760"/>
      <point x="743" y="999" type="curve" smooth="yes"/>
      <point x="743" y="1240"/>
      <point x="568" y="1374"/>
      <point x="239" y="1374" type="curve" smooth="yes"/>
      <point x="55" y="1374" type="line"/>
      <point x="55" y="1262" type="line"/>
      <point x="236" y="1262" type="line" smooth="yes"/>
      <point x="495" y="1262"/>
      <point x="601" y="1186"/>
      <point x="601" y="999" type="curve" smooth="yes"/>
      <point x="601" y="797"/>
      <point x="476" y="720"/>
      <point x="261" y="720" type="curve" smooth="yes"/>
      <point x="121" y="720" type="line"/>
    </contour>
  </outline>
</glyph>
<glyph name="Komidzje-cy" format="2">
  <advance width="1200"/>
  <unicode hex="0506"/>
  <anchor x="600" y="-386" name="bottom"/>
  <anchor x="600" y="1374" name="top"/>
  <outline>
    <contour>
      <point x="154" y="1374" type="line"/>
      <point x="154" y="1264" type="line"/>
      <point x="524" y="1264" type="line" smooth="yes"/>
      <point x="754" y="1264"/>
      <point x="861" y="1188"/>
      <point x="861" y="999" type="curve" smooth="yes"/>
      <point x="861" y="795"/>
      <point x="736" y="719"/>
      <point x="521" y="719" type="curve" smooth="yes"/>
      <point x="211" y="719" type="line"/>
      <point x="211" y="609" type="line"/>
      <point x="511" y="609" type="line"/>
      <point x="910" y="0" type="line"/>
      <point x="1070" y="0" type="line"/>
      <point x="647" y="619" type="line"/>
      <point x="847" y="660"/>
      <point x="1001" y="789"/>
      <point x="1001" y="999" type="curve" smooth="yes"/>
      <point x="1001" y="1243"/>
      <point x="827" y="1374"/>
      <point x="498" y="1374" type="curve" smooth="yes"/>
    </contour>
    <component base="descStraight-cy.case" xOffset="414"/>
  </outline>
</glyph>
<glyph name="Komilje-cy" format="2">
  <advance width="1200"/>
  <unicode hex="0508"/>
  <anchor x="600" y="0" name="bottom"/>
  <anchor x="600" y="1374" name="top"/>
  <outline>
    <contour>
      <point x="845" y="-25" type="curve" smooth="yes"/>
      <point x="1013" y="-25"/>
      <point x="1167" y="125"/>
      <point x="1167" y="504" type="curve" smooth="yes"/>
      <point x="1167" y="594"/>
      <point x="1163" y="674"/>
      <point x="1158" y="752" type="curve"/>
      <point x="1007" y="752" type="line"/>
      <point x="1013" y="666"/>
      <point x="1017" y="594"/>
      <point x="1017" y="499" type="curve" smooth="yes"/>
      <point x="1017" y="178"/>
      <point x="933" y="93"/>
      <point x="846" y="93" type="curve" smooth="yes"/>
      <point x="761" y="93"/>
      <point x="719" y="173"/>
      <point x="719" y="318" type="curve" smooth="yes"/>
      <point x="719" y="1045" type="line"/>
      <point x="567" y="1045" type="line"/>
      <point x="567" y="321" type="line" smooth="yes"/>
      <point x="567" y="84"/>
      <point x="689" y="-25"/>
    </contour>
    <contour>
      <point x="112" y="-17" type="line"/>
      <point x="208" y="98"/>
      <point x="269" y="161"/>
      <point x="313" y="712" type="curve" smooth="yes"/>
      <point x="354" y="1251" type="line"/>
      <point x="567" y="1251" type="line"/>
      <point x="567" y="611" type="line"/>
      <point x="719" y="611" type="line"/>
      <point x="719" y="1374" type="line"/>
      <point x="213" y="1374" type="line"/>
      <point x="159" y="737" type="line" smooth="yes"/>
      <point x="114" y="209"/>
      <point x="78" y="156"/>
      <point x="16" y="84" type="curve"/>
    </contour>
  </outline>
</glyph>
<glyph name="lha-cy" format="2">
  <advance width="1200"/>
  <unicode hex="0515"/>
  <anchor x="600" y="0" name="bottom"/>
  <anchor x="600" y="1050" name="top"/>
  <outline>
    <contour>
      <point x="452" y="0" type="line"/>
      <point x="585" y="0" type="line"/>
      <point x="815" y="468" type="line"/>
      <point x="1041" y="0" type="line"/>
      <point x="1190" y="0" type="line"/>
      <point x="892" y="561" type="line"/>
      <point x="1154" y="1050" type="line"/>
      <point x="1022" y="1050" type="line"/>
      <point x="825" y="643" type="line"/>
      <point x="637" y="1050" type="line"/>
      <point x="490" y="1050" type="line"/>
      <point x="746" y="555" type="line"/>
    </contour>
    <contour>
      <point x="98" y="-17" type="line"/>
      <point x="251" y="91"/>
      <point x="294" y="179"/>
      <point x="337" y="668" type="curve" smooth="yes"/>
      <point x="361" y="939" type="line"/>
      <point x="637" y="939" type="line"/>
      <point x="585" y="1050" type="line"/>
      <point x="231" y="1050" type="line"/>
      <point x="201" y="653" type="line" smooth="yes"/>
      <point x="165" y="174"/>
      <point x="119" y="139"/>
      <point x="46" y="75" type="curve"/>
    </contour>
  </outline>
</glyph>
<glyph name="Rha-cy" format="2">
  <advance width="1200"/>
  <unicode hex="0516"/>
  <anchor x="600" y="0" name="bottom"/>
  <anchor x="600" y="1374" name="top"/>
  <outline>
    <contour>
      <point x="128" y="0" type="line"/>
      <point x="259" y="0" type="line"/>
      <point x="259" y="1261" type="line"/>
      <point x="347" y="1261" type="line" smooth="yes"/>
      <point x="523" y="1261"/>
      <point x="642" y="1162"/>
      <point x="642" y="957" type="curve" smooth="yes"/>
      <point x="642" y="713"/>
      <point x="499" y="641"/>
      <point x="333" y="641" type="curve" smooth="yes"/>
      <point x="227" y="641" type="line"/>
      <point x="227" y="526" type="line"/>
      <point x="335" y="526" type="line" smooth="yes"/>
      <point x="568" y="526"/>
      <point x="777" y="677"/>
      <point x="777" y="960" type="curve" smooth="yes"/>
      <point x="777" y="1195"/>
      <point x="618" y="1374"/>
      <point x="343" y="1374" type="curve" smooth="yes"/>
      <point x="128" y="1374" type="line"/>
    </contour>
    <contour>
      <point x="1014" y="0" type="line"/>
      <point x="1166" y="0" type="line"/>
      <point x="790" y="698" type="line"/>
      <point x="1168" y="1374" type="line"/>
      <point x="1022" y="1374" type="line"/>
      <point x="701" y="763" type="line"/>
      <point x="651" y="670" type="line"/>
    </contour>
  </outline>
</glyph>
<glyph name="rha-cy" format="2">
  <advance width="1200"/>
  <unicode hex="0517"/>
  <anchor x="600" y="-386" name="bottom"/>
  <anchor x="600" y="1050" name="top"/>
  <outline>
    <contour>
      <point x="1157" y="1050" type="line"/>
      <point x="1013" y="1050" type="line"/>
      <point x="801" y="600" type="line"/>
      <point x="801" y="487" type="line"/>
      <point x="1030" y="0" type="line"/>
      <point x="1187" y="0" type="line"/>
      <point x="911" y="541" type="line"/>
    </contour>
    <contour>
      <point x="492" y="1069" type="curve" smooth="yes"/>
      <point x="369" y="1069"/>
      <point x="300" y="1000"/>
      <point x="248" y="915" type="curve"/>
      <point x="234" y="1050" type="line"/>
      <point x="105" y="1050" type="line"/>
      <point x="105" y="-418" type="line"/>
      <point x="255" y="-399" type="line"/>
      <point x="255" y="102" type="line"/>
      <point x="306" y="29"/>
      <point x="366" y="-20"/>
      <point x="482" y="-20" type="curve" smooth="yes"/>
      <point x="657" y="-20"/>
      <point x="802" y="189"/>
      <point x="802" y="525" type="curve" smooth="yes"/>
      <point x="802" y="842"/>
      <point x="726" y="1069"/>
    </contour>
    <contour>
      <point x="481" y="958" type="curve" smooth="yes"/>
      <point x="611" y="958"/>
      <point x="661" y="830"/>
      <point x="661" y="527" type="curve" smooth="yes"/>
      <point x="661" y="210"/>
      <point x="560" y="98"/>
      <point x="460" y="98" type="curve" smooth="yes"/>
      <point x="383" y="98"/>
      <point x="319" y="158"/>
      <point x="255" y="258" type="curve"/>
      <point x="255" y="782" type="line"/>
      <point x="320" y="891"/>
      <point x="389" y="958"/>
    </contour>
  </outline>
</glyph>
<glyph name="Yae-cy" format="2">
  <advance width="1200"/>
  <unicode hex="0518"/>
  <anchor x="600" y="0" name="bottom"/>
  <anchor x="600" y="1374" name="top"/>
  <outline>
    <contour>
      <point x="21" y="0" type="line"/>
      <point x="185" y="0" type="line"/>
      <point x="436" y="569" type="line"/>
      <point x="601" y="569" type="line"/>
      <point x="601" y="0" type="line"/>
      <point x="746" y="0" type="line"/>
      <point x="746" y="1374" type="line"/>
      <point x="526" y="1374" type="line" smooth="yes"/>
      <point x="207" y="1374"/>
      <point x="40" y="1217"/>
      <point x="40" y="975" type="curve" smooth="yes"/>
      <point x="40" y="809"/>
      <point x="119" y="671"/>
      <point x="295" y="602" type="curve"/>
    </contour>
    <contour>
      <point x="459" y="688" type="line" smooth="yes"/>
      <point x="303" y="688"/>
      <point x="196" y="778"/>
      <point x="196" y="975" type="curve" smooth="yes"/>
      <point x="196" y="1162"/>
      <point x="309" y="1259"/>
      <point x="502" y="1259" type="curve" smooth="yes"/>
      <point x="601" y="1259" type="line"/>
      <point x="601" y="688" type="line"/>
    </contour>
    <contour>
      <point x="601" y="0" type="line"/>
      <point x="1196" y="0" type="line"/>
      <point x="1196" y="114" type="line"/>
      <point x="746" y="114" type="line"/>
      <point x="746" y="638" type="line"/>
      <point x="1066" y="638" type="line"/>
      <point x="1066" y="758" type="line"/>
      <point x="746" y="758" type="line"/>
      <point x="746" y="1255" type="line"/>
      <point x="1156" y="1255" type="line"/>
      <point x="1173" y="1374" type="line"/>
      <point x="601" y="1374" type="line"/>
    </contour>
  </outline>
</glyph>
<glyph name="Aleutka-cy" format="2">
  <advance width="1200"/>
  <unicode hex="051E"/>
  <outline>
    <contour>
      <point x="446" y="1220" type="line"/>
      <point x="1020" y="811" type="line"/>
      <point x="1095" y="906" type="line"/>
      <point x="521" y="1316" type="line"/>
    </contour>
    <component base="Ka-cy" xOffset="-14"/>
  </outline>
</glyph>
<glyph name="aleutka-cy" format="2">
  <advance width="1200"/>
  <unicode hex="051F"/>
  <anchor x="600" y="0" name="bottom"/>
  <anchor x="600" y="1050" name="top"/>
  <outline>
    <contour>
      <point x="504" y="893" type="line"/>
      <point x="962" y="565" type="line"/>
      <point x="1034" y="658" type="line"/>
      <point x="576" y="987" type="line"/>
    </contour>
    <component base="ka-cy" xOffset="-7"/>
  </outline>
</glyph>
<glyph name="Enmiddlehook-cy" format="2">
  <advance width="1200"/>
  <unicode hex="0522"/>
  <anchor x="600" y="-386" name="bottom"/>
  <anchor x="600" y="1374" name="top"/>
  <outline>
    <contour>
      <point x="892" y="896" type="curve" smooth="yes"/>
      <point x="766" y="896"/>
      <point x="686" y="834"/>
      <point x="609" y="725" type="curve"/>
      <point x="595" y="589" type="line"/>
      <point x="704" y="716"/>
      <point x="788" y="763"/>
      <point x="886" y="763" type="curve" smooth="yes"/>
      <point x="986" y="763"/>
      <point x="1047" y="709"/>
      <point x="1047" y="588" type="curve" smooth="yes"/>
      <point x="1047" y="0" type="line"/>
      <point x="1194" y="0" type="line"/>
      <point x="1194" y="578" type="line" smooth="yes"/>
      <point x="1194" y="771"/>
      <point x="1077" y="896"/>
    </contour>
    <contour>
      <point x="917" y="-414" type="curve" smooth="yes"/>
      <point x="1074" y="-414"/>
      <point x="1194" y="-323"/>
      <point x="1194" y="-125" type="curve" smooth="yes"/>
      <point x="1194" y="2" type="line"/>
      <point x="1047" y="2" type="line"/>
      <point x="1047" y="-136" type="line" smooth="yes"/>
      <point x="1047" y="-240"/>
      <point x="1000" y="-290"/>
      <point x="917" y="-290" type="curve" smooth="yes"/>
      <point x="846" y="-290"/>
      <point x="811" y="-273"/>
      <point x="760" y="-242" type="curve"/>
      <point x="706" y="-344" type="line"/>
      <point x="747" y="-376"/>
      <point x="819" y="-414"/>
    </contour>
    <contour>
      <point x="537" y="0" type="line"/>
      <point x="681" y="0" type="line"/>
      <point x="681" y="1374" type="line"/>
      <point x="537" y="1374" type="line"/>
      <point x="537" y="794" type="line"/>
      <point x="198" y="794" type="line"/>
      <point x="198" y="1374" type="line"/>
      <point x="54" y="1374" type="line"/>
      <point x="54" y="0" type="line"/>
      <point x="198" y="0" type="line"/>
      <point x="198" y="676" type="line"/>
      <point x="537" y="676" type="line"/>
    </contour>
  </outline>
</glyph>
<glyph name="Dche-cy" format="2">
  <advance width="1200"/>
  <unicode hex="052C"/>
  <anchor x="600" y="-386" name="bottom"/>
  <anchor x="600" y="1374" name="top"/>
  <outline>
    <contour>
      <point x="168" y="0" type="line"/>
      <point x="1046" y="0" type="line"/>
      <point x="1046" y="1374" type="line"/>
      <point x="511" y="1374" type="line"/>
      <point x="451" y="970" type="line" smooth="yes"/>
      <point x="376" y="442"/>
      <point x="258" y="195"/>
      <point x="174" y="119" type="curve"/>
    </contour>
    <contour>
      <point x="322" y="116" type="line"/>
      <point x="405" y="202"/>
      <point x="532" y="354"/>
      <point x="606" y="964" type="curve" smooth="yes"/>
      <point x="641" y="1248" type="line"/>
      <point x="902" y="1248" type="line"/>
      <point x="902" y="116" type="line"/>
    </contour>
    <contour>
      <point x="146" y="1374" type="line"/>
      <point x="146" y="1131" type="line" smooth="yes"/>
      <point x="149" y="805"/>
      <point x="305" y="698"/>
      <point x="601" y="698" type="curve"/>
      <point x="920" y="699" type="line"/>
      <point x="920" y="814" type="line"/>
      <point x="615" y="814" type="line" smooth="yes"/>
      <point x="378" y="814"/>
      <point x="302" y="911"/>
      <point x="302" y="1137" type="curve" smooth="yes"/>
      <point x="302" y="1374" type="line"/>
    </contour>
    <component base="descStraight-cy.case" xScale="-1" xOffset="794"/>
    <component base="descStraight-cy.case" xOffset="422"/>
  </outline>
</glyph>
<glyph name="psiliperispomeni" format="2">
  <advance width="1200"/>
  <unicode hex="1FCF"/>
  <anchor x="578" y="1050" name="_top"/>
  <anchor x="923" y="1651" name="_topleft"/>
  <anchor x="649" y="1664" name="top"/>
  <outline>
    <contour>
      <point x="530" y="1150" type="line"/>
      <point x="616" y="1150" type="line"/>
      <point x="652" y="1215" type="line" smooth="yes"/>
      <point x="702" y="1307"/>
      <point x="710" y="1337"/>
      <point x="710" y="1363" type="curve" smooth="yes"/>
      <point x="710" y="1417"/>
      <point x="670" y="1456"/>
      <point x="615" y="1456" type="curve" smooth="yes"/>
      <point x="562" y="1456"/>
      <point x="519" y="1418"/>
      <point x="519" y="1363" type="curve" smooth="yes"/>
      <point x="519" y="1326"/>
      <point x="535" y="1299"/>
      <point x="572" y="1275" type="curve"/>
    </contour>
    <component base="perispomeni" xOffset="11" yOffset="133"/>
  </outline>
</glyph>
<glyph name="figuredash" format="2">
  <advance width="1200"/>
  <unicode hex="2012"/>
  <outline>
    <contour>
      <point x="73" y="563" type="line"/>
      <point x="1127" y="563" type="line"/>
      <point x="1127" y="678" type="line"/>
      <point x="73" y="678" type="line"/>
    </contour>
  </outline>
</glyph>
<glyph name="quotesinglbase" format="2">
  <advance width="1200"/>
  <unicode hex="201A"/>
  <outline>
    <contour>
      <point x="474" y="105" type="curve" smooth="yes"/>
      <point x="474" y="65"/>
      <point x="492" y="27"/>
      <point x="520" y="7" type="curve"/>
      <point x="441" y="-364" type="line"/>
      <point x="557" y="-364" type="line"/>
      <point x="727" y="-5" type="line" smooth="yes"/>
      <point x="753" y="51"/>
      <point x="757" y="73"/>
      <point x="757" y="105" type="curve" smooth="yes"/>
      <point x="757" y="181"/>
      <point x="691" y="240"/>
      <point x="615" y="240" type="curve" smooth="yes"/>
      <point x="541" y="240"/>
      <point x="474" y="181"/>
    </contour>
  </outline>
</glyph>
<glyph name="quotedblbase" format="2">
  <advance width="1200"/>
  <unicode hex="201E"/>
  <outline>
    <contour>
      <point x="266" y="105" type="curve" smooth="yes"/>
      <point x="266" y="65"/>
      <point x="283" y="27"/>
      <point x="311" y="7" type="curve"/>
      <point x="232" y="-364" type="line"/>
      <point x="348" y="-364" type="line"/>
      <point x="519" y="-5" type="line" smooth="yes"/>
      <point x="544" y="51"/>
      <point x="548" y="73"/>
      <point x="548" y="105" type="curve" smooth="yes"/>
      <point x="548" y="181"/>
      <point x="483" y="240"/>
      <point x="407" y="240" type="curve" smooth="yes"/>
      <point x="332" y="240"/>
      <point x="266" y="181"/>
    </contour>
    <contour>
      <point x="685" y="105" type="curve" smooth="yes"/>
      <point x="685" y="65"/>
      <point x="703" y="27"/>
      <point x="731" y="7" type="curve"/>
      <point x="652" y="-364" type="line"/>
      <point x="768" y="-364" type="line"/>
      <point x="939" y="-5" type="line" smooth="yes"/>
      <point x="961" y="45"/>
      <point x="965" y="73"/>
      <point x="965" y="105" type="curve" smooth="yes"/>
      <point x="965" y="181"/>
      <point x="903" y="240"/>
      <point x="826" y="240" type="curve" smooth="yes"/>
      <point x="752" y="240"/>
      <point x="685" y="181"/>
    </contour>
  </outline>
</glyph>
<glyph name="bullet" format="2">
  <advance width="1200"/>
  <unicode hex="2022"/>
  <outline>
    <contour>
      <point x="600" y="453" type="curve" smooth="yes"/>
      <point x="732" y="453"/>
      <point x="831" y="550"/>
      <point x="831" y="682" type="curve" smooth="yes"/>
      <point x="831" y="814"/>
      <point x="732" y="913"/>
      <point x="600" y="913" type="curve" smooth="yes"/>
      <point x="468" y="913"/>
      <point x="369" y="816"/>
      <point x="369" y="684" type="curve" smooth="yes"/>
      <point x="369" y="551"/>
      <point x="468" y="453"/>
    </contour>
  </outline>
</glyph>
<glyph name="ellipsis" format="2">
  <advance width="1200"/>
  <unicode hex="2026"/>
  <outline>
    <contour>
      <point x="74" y="109" type="curve" smooth="yes"/>
      <point x="74" y="38"/>
      <point x="126" y="-17"/>
      <point x="197" y="-17" type="curve" smooth="yes"/>
      <point x="271" y="-17"/>
      <point x="323" y="38"/>
      <point x="323" y="109" type="curve" smooth="yes"/>
      <point x="323" y="177"/>
      <point x="271" y="232"/>
      <point x="197" y="232" type="curve" smooth="yes"/>
      <point x="126" y="232"/>
      <point x="74" y="177"/>
    </contour>
    <contour>
      <point x="474" y="109" type="curve" smooth="yes"/>
      <point x="474" y="38"/>
      <point x="529" y="-17"/>
      <point x="600" y="-17" type="curve" smooth="yes"/>
      <point x="671" y="-17"/>
      <point x="723" y="38"/>
      <point x="723" y="109" type="curve" smooth="yes"/>
      <point x="723" y="177"/>
      <point x="671" y="232"/>
      <point x="600" y="232" type="curve" smooth="yes"/>
      <point x="529" y="232"/>
      <point x="474" y="177"/>
    </contour>
    <contour>
      <point x="877" y="109" type="curve" smooth="yes"/>
      <point x="877" y="38"/>
      <point x="929" y="-17"/>
      <point x="1000" y="-17" type="curve" smooth="yes"/>
      <point x="1074" y="-17"/>
      <point x="1126" y="38"/>
      <point x="1126" y="109" type="curve" smooth="yes"/>
      <point x="1126" y="177"/>
      <point x="1074" y="232"/>
      <point x="1000" y="232" type="curve" smooth="yes"/>
      <point x="929" y="232"/>
      <point x="877" y="177"/>
    </contour>
  </outline>
</glyph>
<glyph name="perthousand" format="2">
  <advance width="1200"/>
  <unicode hex="2030"/>
  <outline>
    <contour>
      <point x="1093" y="1061" type="line"/>
      <point x="40" y="627" type="line"/>
      <point x="91" y="521" type="line"/>
      <point x="1142" y="956" type="line"/>
    </contour>
    <contour>
      <point x="352" y="419" type="curve" smooth="yes"/>
      <point x="474" y="419"/>
      <point x="494" y="326"/>
      <point x="494" y="240" type="curve" smooth="yes"/>
      <point x="494" y="149"/>
      <point x="474" y="53"/>
      <point x="352" y="53" type="curve" smooth="yes"/>
      <point x="232" y="53"/>
      <point x="209" y="153"/>
      <point x="209" y="240" type="curve" smooth="yes"/>
      <point x="209" y="330"/>
      <point x="233" y="419"/>
    </contour>
    <contour>
      <point x="352" y="507" type="curve" smooth="yes"/>
      <point x="208" y="507"/>
      <point x="93" y="407"/>
      <point x="93" y="240" type="curve" smooth="yes"/>
      <point x="93" y="74"/>
      <point x="208" y="-27"/>
      <point x="352" y="-27" type="curve" smooth="yes"/>
      <point x="496" y="-27"/>
      <point x="609" y="74"/>
      <point x="609" y="240" type="curve" smooth="yes"/>
      <point x="609" y="403"/>
      <point x="496" y="507"/>
    </contour>
    <contour>
      <point x="902" y="419" type="curve" smooth="yes"/>
      <point x="1018" y="419"/>
      <point x="1043" y="326"/>
      <point x="1043" y="240" type="curve" smooth="yes"/>
      <point x="1043" y="149"/>
      <point x="1018" y="53"/>
      <point x="902" y="53" type="curve" smooth="yes"/>
      <point x="779" y="53"/>
      <point x="755" y="153"/>
      <point x="755" y="240" type="curve" smooth="yes"/>
      <point x="755" y="330"/>
      <point x="780" y="419"/>
    </contour>
    <contour>
      <point x="902" y="507" type="curve" smooth="yes"/>
      <point x="757" y="507"/>
      <point x="639" y="407"/>
      <point x="639" y="240" type="curve" smooth="yes"/>
      <point x="639" y="74"/>
      <point x="757" y="-27"/>
      <point x="902" y="-27" type="curve" smooth="yes"/>
      <point x="1042" y="-27"/>
      <point x="1156" y="74"/>
      <point x="1156" y="240" type="curve" smooth="yes"/>
      <point x="1156" y="403"/>
      <point x="1042" y="507"/>
    </contour>
    <contour>
      <point x="355" y="1305" type="curve" smooth="yes"/>
      <point x="474" y="1305"/>
      <point x="496" y="1213"/>
      <point x="496" y="1127" type="curve" smooth="yes"/>
      <point x="496" y="1036"/>
      <point x="474" y="941"/>
      <point x="355" y="941" type="curve" smooth="yes"/>
      <point x="232" y="941"/>
      <point x="211" y="1041"/>
      <point x="211" y="1127" type="curve" smooth="yes"/>
      <point x="211" y="1217"/>
      <point x="233" y="1305"/>
    </contour>
    <contour>
      <point x="355" y="1393" type="curve" smooth="yes"/>
      <point x="210" y="1393"/>
      <point x="93" y="1293"/>
      <point x="93" y="1127" type="curve" smooth="yes"/>
      <point x="93" y="961"/>
      <point x="210" y="861"/>
      <point x="355" y="861" type="curve" smooth="yes"/>
      <point x="496" y="861"/>
      <point x="609" y="961"/>
      <point x="609" y="1127" type="curve" smooth="yes"/>
      <point x="609" y="1291"/>
      <point x="496" y="1393"/>
    </contour>
  </outline>
</glyph>
<glyph name="guilsinglright" format="2">
  <advance width="1200"/>
  <unicode hex="203A"/>
  <outline>
    <contour>
      <point x="667" y="591" type="line"/>
      <point x="396" y="176" type="line"/>
      <point x="468" y="133" type="line"/>
      <point x="804" y="541" type="line"/>
      <point x="804" y="639" type="line"/>
      <point x="468" y="1051" type="line"/>
      <point x="396" y="1007" type="line"/>
    </contour>
  </outline>
</glyph>
<glyph name="nmod" format="2">
  <advance width="1200"/>
  <unicode hex="207F"/>
  <outline>
    <contour>
      <point x="653" y="1446" type="curve" smooth="yes"/>
      <point x="592" y="1446"/>
      <point x="509" y="1414"/>
      <point x="455" y="1350" type="curve"/>
      <point x="450" y="1435" type="line"/>
      <point x="345" y="1435" type="line"/>
      <point x="345" y="756" type="line"/>
      <point x="462" y="756" type="line"/>
      <point x="462" y="1245" type="line"/>
      <point x="497" y="1293"/>
      <point x="565" y="1349"/>
      <point x="632" y="1349" type="curve" smooth="yes"/>
      <point x="728" y="1349"/>
      <point x="741" y="1293"/>
      <point x="741" y="1157" type="curve"/>
      <point x="741" y="756" type="line"/>
      <point x="858" y="756" type="line"/>
      <point x="858" y="1240" type="line"/>
      <point x="858" y="1369"/>
      <point x="800" y="1446"/>
    </contour>
  </outline>
</glyph>
<glyph name="trademark" format="2">
  <advance width="1200"/>
  <unicode hex="2122"/>
  <outline>
    <contour>
      <point x="1119" y="1372" type="line"/>
      <point x="946" y="1372" type="line"/>
      <point x="859" y="788" type="line"/>
      <point x="751" y="1372" type="line"/>
      <point x="41" y="1372" type="line"/>
      <point x="41" y="1279" type="line"/>
      <point x="250" y="1279" type="line"/>
      <point x="250" y="599" type="line"/>
      <point x="347" y="599" type="line"/>
      <point x="347" y="1279" type="line"/>
      <point x="581" y="1279" type="line"/>
      <point x="552" y="599" type="line"/>
      <point x="643" y="599" type="line"/>
      <point x="664" y="1122" type="line" smooth="yes"/>
      <point x="666" y="1167"/>
      <point x="667" y="1234"/>
      <point x="669" y="1285" type="curve"/>
      <point x="674" y="1285" type="line"/>
      <point x="797" y="654" type="line"/>
      <point x="918" y="654" type="line"/>
      <point x="1012" y="1285" type="line"/>
      <point x="1018" y="1285" type="line"/>
      <point x="1020" y="1230"/>
      <point x="1023" y="1163"/>
      <point x="1025" y="1119" type="curve" smooth="yes"/>
      <point x="1050" y="599" type="line"/>
      <point x="1151" y="599" type="line"/>
    </contour>
  </outline>
</glyph>
<glyph name="arrowleft" format="2">
  <advance width="1200"/>
  <unicode hex="2190"/>
  <outline>
    <contour>
      <point x="585" y="1248" type="line"/>
      <point x="59" y="658" type="line"/>
      <point x="585" y="68" type="line"/>
      <point x="685" y="152" type="line"/>
      <point x="356" y="514" type="line" smooth="yes"/>
      <point x="329" y="543"/>
      <point x="299" y="576"/>
      <point x="260" y="600" type="curve"/>
      <point x="1141" y="600" type="line"/>
      <point x="1141" y="716" type="line"/>
      <point x="262" y="716" type="line"/>
      <point x="310" y="747"/>
      <point x="310" y="750"/>
      <point x="356" y="802" type="curve" smooth="yes"/>
      <point x="685" y="1164" type="line"/>
    </contour>
  </outline>
</glyph>
<glyph name="arrowupleft" format="2">
  <advance width="1200"/>
  <unicode hex="2196"/>
  <outline>
    <contour>
      <point x="1017" y="178" type="line"/>
      <point x="1105" y="265" type="line"/>
      <point x="324" y="1061" type="line"/>
      <point x="415" y="1045"/>
      <point x="455" y="1046"/>
      <point x="532" y="1050" type="curve" smooth="yes"/>
      <point x="930" y="1071" type="line"/>
      <point x="924" y="1197" type="line"/>
      <point x="139" y="1153" type="line"/>
      <point x="95" y="345" type="line"/>
      <point x="220" y="338" type="line"/>
      <point x="248" y="790" type="line" smooth="yes"/>
      <point x="251" y="831"/>
      <point x="252" y="896"/>
      <point x="236" y="976" type="curve"/>
    </contour>
  </outline>
</glyph>
<glyph name="arrowupwhite" format="2">
  <advance width="1200"/>
  <unicode hex="21E7"/>
  <outline>
    <contour>
      <point x="600" y="1664" type="line"/>
      <point x="0" y="1068" type="line"/>
      <point x="338" y="1068" type="line"/>
      <point x="338" y="76" type="line" smooth="yes"/>
      <point x="338" y="16"/>
      <point x="378" y="-24"/>
      <point x="438" y="-24" type="curve" smooth="yes"/>
      <point x="762" y="-24" type="line"/>
      <point x="822" y="-24"/>
      <point x="862" y="16"/>
      <point x="862" y="76" type="curve" smooth="yes"/>
      <point x="862" y="1068" type="line"/>
      <point x="1200" y="1068" type="line"/>
    </contour>
    <contour>
      <point x="600" y="1536" type="line"/>
      <point x="982" y="1158" type="line"/>
      <point x="768" y="1158" type="line"/>
      <point x="768" y="64" type="line"/>
      <point x="432" y="64" type="line"/>
      <point x="432" y="1158" type="line"/>
      <point x="218" y="1158" type="line"/>
    </contour>
  </outline>
</glyph>
<glyph name="partialdiff" format="2">
  <advance width="1200"/>
  <unicode hex="2202"/>
  <outline>
    <contour>
      <point x="341" y="1367" type="curve"/>
      <point x="311" y="1267" type="line"/>
      <point x="655" y="1171"/>
      <point x="868" y="966"/>
      <point x="872" y="678" type="curve"/>
      <point x="811" y="769"/>
      <point x="709" y="841"/>
      <point x="578" y="841" type="curve" smooth="yes"/>
      <point x="373" y="841"/>
      <point x="201" y="671"/>
      <point x="201" y="411" type="curve" smooth="yes"/>
      <point x="201" y="138"/>
      <point x="393" y="-20"/>
      <point x="601" y="-20" type="curve" smooth="yes"/>
      <point x="845" y="-20"/>
      <point x="1004" y="196"/>
      <point x="1004" y="509" type="curve" smooth="yes"/>
      <point x="1004" y="1031"/>
      <point x="800" y="1229"/>
    </contour>
    <contour>
      <point x="577" y="737" type="curve" smooth="yes"/>
      <point x="698" y="737"/>
      <point x="788" y="679"/>
      <point x="881" y="549" type="curve"/>
      <point x="881" y="509" type="line" smooth="yes"/>
      <point x="879" y="217"/>
      <point x="767" y="91"/>
      <point x="594" y="91" type="curve" smooth="yes"/>
      <point x="437" y="91"/>
      <point x="328" y="221"/>
      <point x="328" y="426" type="curve" smooth="yes"/>
      <point x="328" y="622"/>
      <point x="435" y="737"/>
    </contour>
  </outline>
</glyph>
<glyph name="infinity" format="2">
  <advance width="1200"/>
  <unicode hex="221E"/>
  <outline>
    <contour>
      <point x="908" y="1022" type="curve" smooth="yes"/>
      <point x="751" y="1022"/>
      <point x="666" y="895"/>
      <point x="594" y="741" type="curve"/>
      <point x="512" y="929"/>
      <point x="425" y="1022"/>
      <point x="278" y="1022" type="curve" smooth="yes"/>
      <point x="75" y="1022"/>
      <point x="-10" y="856"/>
      <point x="-10" y="632" type="curve" smooth="yes"/>
      <point x="-10" y="411"/>
      <point x="72" y="240"/>
      <point x="290" y="240" type="curve" smooth="yes"/>
      <point x="447" y="240"/>
      <point x="535" y="365"/>
      <point x="604" y="522" type="curve"/>
      <point x="680" y="333"/>
      <point x="773" y="240"/>
      <point x="919" y="240" type="curve" smooth="yes"/>
      <point x="1123" y="240"/>
      <point x="1208" y="406"/>
      <point x="1208" y="630" type="curve" smooth="yes"/>
      <point x="1208" y="851"/>
      <point x="1125" y="1022"/>
    </contour>
    <contour>
      <point x="283" y="906" type="curve" smooth="yes"/>
      <point x="423" y="906"/>
      <point x="483" y="745"/>
      <point x="531" y="648" type="curve"/>
      <point x="471" y="507"/>
      <point x="409" y="358"/>
      <point x="285" y="358" type="curve" smooth="yes"/>
      <point x="182" y="358"/>
      <point x="132" y="445"/>
      <point x="132" y="632" type="curve" smooth="yes"/>
      <point x="132" y="820"/>
      <point x="184" y="906"/>
    </contour>
    <contour>
      <point x="913" y="903" type="curve" smooth="yes"/>
      <point x="1016" y="903"/>
      <point x="1065" y="817"/>
      <point x="1065" y="629" type="curve" smooth="yes"/>
      <point x="1065" y="442"/>
      <point x="1014" y="355"/>
      <point x="914" y="355" type="curve" smooth="yes"/>
      <point x="774" y="355"/>
      <point x="715" y="517"/>
      <point x="667" y="614" type="curve"/>
      <point x="726" y="755"/>
      <point x="788" y="903"/>
    </contour>
  </outline>
</glyph>
<glyph name="integral" format="2">
  <advance width="1200"/>
  <unicode hex="222B"/>
  <outline>
    <contour>
      <point x="792" y="1695" type="curve" smooth="yes"/>
      <point x="635" y="1695"/>
      <point x="521" y="1615"/>
      <point x="521" y="1431" type="curve" smooth="yes"/>
      <point x="521" y="-167" type="line" smooth="yes"/>
      <point x="521" y="-252"/>
      <point x="471" y="-306"/>
      <point x="389" y="-306" type="curve" smooth="yes"/>
      <point x="334" y="-306"/>
      <point x="289" y="-299"/>
      <point x="223" y="-269" type="curve"/>
      <point x="178" y="-370" type="line"/>
      <point x="258" y="-404"/>
      <point x="299" y="-418"/>
      <point x="391" y="-418" type="curve" smooth="yes"/>
      <point x="551" y="-418"/>
      <point x="638" y="-336"/>
      <point x="638" y="-172" type="curve" smooth="yes"/>
      <point x="638" y="1426" type="line" smooth="yes"/>
      <point x="638" y="1524"/>
      <point x="670" y="1585"/>
      <point x="791" y="1585" type="curve" smooth="yes"/>
      <point x="849" y="1585"/>
      <point x="907" y="1576"/>
      <point x="977" y="1545" type="curve"/>
      <point x="1022" y="1646" type="line"/>
      <point x="938" y="1684"/>
      <point x="885" y="1695"/>
    </contour>
  </outline>
</glyph>
<glyph name="integralbt" format="2">
  <advance width="1200"/>
  <unicode hex="2321"/>
  <outline>
    <contour>
      <point x="638" y="2000" type="line"/>
      <point x="521" y="2000" type="line"/>
      <point x="521" y="-167" type="line"/>
      <point x="521" y="-252"/>
      <point x="471" y="-306"/>
      <point x="389" y="-306" type="curve" smooth="yes"/>
      <point x="334" y="-306"/>
      <point x="289" y="-299"/>
      <point x="223" y="-269" type="curve"/>
      <point x="178" y="-370" type="line"/>
      <point x="258" y="-404"/>
      <point x="299" y="-418"/>
      <point x="391" y="-418" type="curve" smooth="yes"/>
      <point x="551" y="-418"/>
      <point x="638" y="-336"/>
      <point x="638" y="-172" type="curve"/>
    </contour>
  </outline>
</glyph>
<glyph name="boxHeavyTripleDashVertical" format="2">
  <advance width="1200"/>
  <unicode hex="2507"/>
  <outline>
    <contour>
      <point x="360" y="1025" type="line"/>
      <point x="360" y="310" type="line"/>
      <point x="840" y="310" type="line"/>
      <point x="840" y="1025" type="line"/>
    </contour>
    <contour>
      <point x="360" y="150" type="line"/>
      <point x="360" y="-565" type="line"/>
      <point x="840" y="-565" type="line"/>
      <point x="840" y="150" type="line"/>
    </contour>
    <contour>
      <point x="360" y="1900" type="line"/>
      <point x="360" y="1185" type="line"/>
      <point x="840" y="1185" type="line"/>
      <point x="840" y="1900" type="line"/>
    </contour>
  </outline>
</glyph>
<glyph name="SF520000" format="2">
  <advance width="1200"/>
  <unicode hex="2553"/>
  <outline>
    <contour>
      <point x="1210" y="780" type="line"/>
      <point x="360" y="780" type="line"/>
      <point x="360" y="-1000" type="line"/>
      <point x="520" y="-1000" type="line"/>
      <point x="520" y="620" type="line"/>
      <point x="680" y="620" type="line"/>
      <point x="680" y="-1000" type="line"/>
      <point x="840" y="-1000" type="line"/>
      <point x="840" y="620" type="line"/>
      <point x="1210" y="620" type="line"/>
    </contour>
  </outline>
</glyph>
<glyph name="whiteSquareWithRoundedCorners" format="2">
  <advance width="1200"/>
  <unicode hex="25A2"/>
  <outline>
    <contour>
      <point x="600" y="1080" type="curve" smooth="yes"/>
      <point x="140" y="1080"/>
      <point x="60" y="998"/>
      <point x="60" y="540" type="curve" smooth="yes"/>
      <point x="60" y="80"/>
      <point x="140" y="0"/>
      <point x="600" y="0" type="curve" smooth="yes"/>
      <point x="1058" y="0"/>
      <point x="1140" y="80"/>
      <point x="1140" y="540" type="curve" smooth="yes"/>
      <point x="1140" y="998"/>
      <point x="1058" y="1080"/>
    </contour>
    <contour>
      <point x="600" y="920" type="curve" smooth="yes"/>
      <point x="922" y="920"/>
      <point x="980" y="862"/>
      <point x="980" y="540" type="curve" smooth="yes"/>
      <point x="980" y="216"/>
      <point x="922" y="160"/>
      <point x="600" y="160" type="curve" smooth="yes"/>
      <point x="276" y="160"/>
      <point x="220" y="216"/>
      <point x="220" y="540" type="curve" smooth="yes"/>
      <point x="220" y="862"/>
      <point x="276" y="920"/>
    </contour>
  </outline>
</glyph>
<glyph name="skullAndCrossbones" format="2">
  <advance width="1200"/>
  <unicode hex="2620"/>
  <outline>
    <contour>
      <point x="602" y="1078" type="curve" smooth="yes"/>
      <point x="416" y="1078"/>
      <point x="278" y="948"/>
      <point x="278" y="772" type="curve" smooth="yes"/>
      <point x="278" y="708"/>
      <point x="294" y="632"/>
      <point x="336" y="568" type="curve"/>
      <point x="336" y="464" type="line"/>
      <point x="386" y="428" type="line"/>
      <point x="472" y="278" type="line"/>
      <point x="730" y="278" type="line"/>
      <point x="816" y="428" type="line"/>
      <point x="868" y="464" type="line"/>
      <point x="868" y="568" type="line"/>
      <point x="908" y="632"/>
      <point x="924" y="708"/>
      <point x="924" y="772" type="curve" smooth="yes"/>
      <point x="924" y="948"/>
      <point x="786" y="1078"/>
    </contour>
    <contour>
      <point x="332" y="344" type="line"/>
      <point x="188" y="266" type="line"/>
      <point x="142" y="288"/>
      <point x="120" y="298"/>
      <point x="94" y="298" type="curve" smooth="yes"/>
      <point x="60" y="298"/>
      <point x="38" y="276"/>
      <point x="38" y="248" type="curve" smooth="yes"/>
      <point x="38" y="214"/>
      <point x="72" y="190"/>
      <point x="108" y="190" type="curve"/>
      <point x="134" y="142" type="line"/>
      <point x="128" y="126"/>
      <point x="124" y="114"/>
      <point x="124" y="102" type="curve" smooth="yes"/>
      <point x="124" y="72"/>
      <point x="144" y="46"/>
      <point x="176" y="46" type="curve" smooth="yes"/>
      <point x="220" y="46"/>
      <point x="236" y="106"/>
      <point x="244" y="174" type="curve"/>
      <point x="384" y="260" type="line"/>
    </contour>
    <contour>
      <point x="120" y="734" type="curve" smooth="yes"/>
      <point x="90" y="734"/>
      <point x="76" y="708"/>
      <point x="76" y="686" type="curve" smooth="yes"/>
      <point x="76" y="670"/>
      <point x="80" y="654"/>
      <point x="92" y="640" type="curve"/>
      <point x="66" y="586" type="line"/>
      <point x="28" y="580"/>
      <point x="0" y="558"/>
      <point x="0" y="524" type="curve" smooth="yes"/>
      <point x="0" y="494"/>
      <point x="28" y="480"/>
      <point x="54" y="480" type="curve" smooth="yes"/>
      <point x="84" y="480"/>
      <point x="108" y="490"/>
      <point x="152" y="518" type="curve"/>
      <point x="254" y="476" type="line"/>
      <point x="254" y="586" type="line"/>
      <point x="198" y="618" type="line"/>
      <point x="188" y="672"/>
      <point x="172" y="734"/>
    </contour>
    <contour>
      <point x="602" y="560" type="curve" smooth="yes"/>
      <point x="624" y="560"/>
      <point x="656" y="510"/>
      <point x="670" y="470" type="curve"/>
      <point x="670" y="412" type="line"/>
      <point x="602" y="426" type="line"/>
      <point x="532" y="412" type="line"/>
      <point x="532" y="470" type="line"/>
      <point x="546" y="510"/>
      <point x="580" y="560"/>
    </contour>
    <contour>
      <point x="454" y="724" type="curve" smooth="yes"/>
      <point x="500" y="724"/>
      <point x="534" y="690"/>
      <point x="534" y="644" type="curve" smooth="yes"/>
      <point x="534" y="600"/>
      <point x="500" y="562"/>
      <point x="454" y="562" type="curve" smooth="yes"/>
      <point x="412" y="562"/>
      <point x="376" y="600"/>
      <point x="376" y="644" type="curve" smooth="yes"/>
      <point x="376" y="690"/>
      <point x="412" y="724"/>
    </contour>
    <contour>
      <point x="872" y="344" type="line"/>
      <point x="820" y="260" type="line"/>
      <point x="958" y="174" type="line"/>
      <point x="966" y="106"/>
      <point x="982" y="46"/>
      <point x="1026" y="46" type="curve" smooth="yes"/>
      <point x="1058" y="46"/>
      <point x="1080" y="72"/>
      <point x="1080" y="102" type="curve" smooth="yes"/>
      <point x="1080" y="114"/>
      <point x="1076" y="126"/>
      <point x="1068" y="142" type="curve"/>
      <point x="1096" y="190" type="line"/>
      <point x="1132" y="190"/>
      <point x="1164" y="214"/>
      <point x="1164" y="248" type="curve" smooth="yes"/>
      <point x="1164" y="276"/>
      <point x="1144" y="298"/>
      <point x="1110" y="298" type="curve" smooth="yes"/>
      <point x="1084" y="298"/>
      <point x="1060" y="288"/>
      <point x="1014" y="266" type="curve"/>
    </contour>
    <contour>
      <point x="748" y="724" type="curve" smooth="yes"/>
      <point x="790" y="724"/>
      <point x="828" y="690"/>
      <point x="828" y="644" type="curve" smooth="yes"/>
      <point x="828" y="600"/>
      <point x="790" y="562"/>
      <point x="748" y="562" type="curve" smooth="yes"/>
      <point x="702" y="562"/>
      <point x="668" y="600"/>
      <point x="668" y="644" type="curve" smooth="yes"/>
      <point x="668" y="690"/>
      <point x="702" y="724"/>
    </contour>
    <contour>
      <point x="1082" y="734" type="curve" smooth="yes"/>
      <point x="1028" y="734"/>
      <point x="1012" y="672"/>
      <point x="1002" y="618" type="curve"/>
      <point x="946" y="586" type="line"/>
      <point x="946" y="484" type="line"/>
      <point x="1048" y="518" type="line"/>
      <point x="1094" y="490"/>
      <point x="1118" y="480"/>
      <point x="1148" y="480" type="curve" smooth="yes"/>
      <point x="1172" y="480"/>
      <point x="1200" y="494"/>
      <point x="1200" y="524" type="curve" smooth="yes"/>
      <point x="1200" y="558"/>
      <point x="1172" y="580"/>
      <point x="1136" y="586" type="curve"/>
      <point x="1110" y="640" type="line"/>
      <point x="1122" y="654"/>
      <point x="1126" y="670"/>
      <point x="1126" y="686" type="curve" smooth="yes"/>
      <point x="1126" y="708"/>
      <point x="1112" y="734"/>
    </contour>
  </outline>
</glyph>
<glyph name="spade" format="2">
  <advance width="1200"/>
  <unicode hex="2660"/>
  <outline>
    <contour>
      <point x="600" y="1078" type="curve"/>
      <point x="316" y="816"/>
      <point x="140" y="658"/>
      <point x="140" y="478" type="curve" smooth="yes"/>
      <point x="140" y="350"/>
      <point x="216" y="268"/>
      <point x="336" y="268" type="curve" smooth="yes"/>
      <point x="436" y="268"/>
      <point x="508" y="308"/>
      <point x="564" y="400" type="curve"/>
      <point x="532" y="130" type="line"/>
      <point x="220" y="130" type="line"/>
      <point x="140" y="0" type="line"/>
      <point x="1060" y="0" type="line"/>
      <point x="980" y="130" type="line"/>
      <point x="668" y="130" type="line"/>
      <point x="636" y="400" type="line"/>
      <point x="692" y="308"/>
      <point x="764" y="268"/>
      <point x="864" y="268" type="curve" smooth="yes"/>
      <point x="984" y="268"/>
      <point x="1060" y="350"/>
      <point x="1060" y="478" type="curve" smooth="yes"/>
      <point x="1060" y="658"/>
      <point x="884" y="816"/>
    </contour>
  </outline>
</glyph>
<glyph name="fl" format="2">
  <advance width="1200"/>
  <unicode hex="FB02"/>
  <outline>
    <contour>
      <point x="1200" y="23" type="curve"/>
      <point x="1158" y="113" type="line"/>
      <point x="1116" y="96"/>
      <point x="1084" y="88"/>
      <point x="1040" y="88" type="curve" smooth="yes"/>
      <point x="970" y="88"/>
      <point x="927" y="119"/>
      <point x="927" y="219" type="curve" smooth="yes"/>
      <point x="927" y="1487" type="line"/>
      <point x="799" y="1455" type="line"/>
      <point x="738" y="1478"/>
      <point x="683" y="1492"/>
      <point x="607" y="1492" type="curve" smooth="yes"/>
      <point x="403" y="1492"/>
      <point x="227" y="1381"/>
      <point x="227" y="1191" type="curve" smooth="yes"/>
      <point x="227" y="1050" type="line"/>
      <point x="32" y="1050" type="line"/>
      <point x="32" y="944" type="line"/>
      <point x="227" y="944" type="line"/>
      <point x="227" y="0" type="line"/>
      <point x="356" y="0" type="line"/>
      <point x="356" y="944" type="line"/>
      <point x="619" y="944" type="line"/>
      <point x="636" y="1050" type="line"/>
      <point x="356" y="1050" type="line"/>
      <point x="356" y="1199" type="line" smooth="yes"/>
      <point x="356" y="1321"/>
      <point x="441" y="1380"/>
      <point x="607" y="1380" type="curve" smooth="yes"/>
      <point x="671" y="1380"/>
      <point x="735" y="1373"/>
      <point x="798" y="1357" type="curve"/>
      <point x="798" y="220" type="line" smooth="yes"/>
      <point x="798" y="48"/>
      <point x="904" y="-20"/>
      <point x="1028" y="-20" type="curve" smooth="yes"/>
      <point x="1109" y="-20"/>
      <point x="1151" y="-2"/>
    </contour>
  </outline>
</glyph>
<glyph name="globeWithMeridians" format="2">
  <advance width="1200"/>
  <unicode hex="1F310"/>
  <outline>
    <contour>
      <point x="600" y="1494" type="curve" smooth="yes"/>
      <point x="180" y="1494"/>
      <point x="-158" y="1152"/>
      <point x="-158" y="732" type="curve" smooth="yes"/>
      <point x="-158" y="312"/>
      <point x="180" y="-30"/>
      <point x="600" y="-30" type="curve" smooth="yes"/>
      <point x="1020" y="-30"/>
      <point x="1358" y="312"/>
      <point x="1358" y="732" type="curve" smooth="yes"/>
      <point x="1358" y="1152"/>
      <point x="1020" y="1494"/>
    </contour>
    <contour>
      <point x="250" y="356" type="curve"/>
      <point x="296" y="246"/>
      <point x="360" y="148"/>
      <point x="436" y="68" type="curve"/>
      <point x="298" y="100"/>
      <point x="176" y="176"/>
      <point x="86" y="278" type="curve"/>
      <point x="134" y="310"/>
      <point x="190" y="336"/>
    </contour>
    <contour>
      <point x="178" y="696" type="line"/>
      <point x="182" y="598"/>
      <point x="200" y="504"/>
      <point x="228" y="420" type="curve"/>
      <point x="160" y="396"/>
      <point x="98" y="366"/>
      <point x="42" y="332" type="curve"/>
      <point x="-30" y="436"/>
      <point x="-76" y="560"/>
      <point x="-82" y="696" type="curve"/>
    </contour>
    <contour>
      <point x="558" y="416" type="curve"/>
      <point x="558" y="48" type="line"/>
      <point x="550" y="48"/>
      <point x="542" y="50"/>
      <point x="536" y="50" type="curve"/>
      <point x="444" y="150"/>
      <point x="370" y="258"/>
      <point x="320" y="378" type="curve"/>
      <point x="398" y="400"/>
      <point x="480" y="414"/>
    </contour>
    <contour>
      <point x="558" y="696" type="line"/>
      <point x="558" y="484" type="line"/>
      <point x="470" y="480"/>
      <point x="382" y="466"/>
      <point x="298" y="442" type="curve"/>
      <point x="272" y="520"/>
      <point x="256" y="606"/>
      <point x="252" y="696" type="curve"/>
    </contour>
    <contour>
      <point x="638" y="416" type="line"/>
      <point x="716" y="414"/>
      <point x="800" y="400"/>
      <point x="878" y="378" type="curve"/>
      <point x="828" y="258"/>
      <point x="754" y="150"/>
      <point x="664" y="50" type="curve"/>
      <point x="654" y="50"/>
      <point x="646" y="48"/>
      <point x="638" y="48" type="curve"/>
    </contour>
    <contour>
      <point x="42" y="1130" type="curve"/>
      <point x="98" y="1096"/>
      <point x="160" y="1068"/>
      <point x="228" y="1044" type="curve"/>
      <point x="200" y="958"/>
      <point x="182" y="866"/>
      <point x="178" y="768" type="curve"/>
      <point x="-82" y="768" type="line"/>
      <point x="-76" y="902"/>
      <point x="-30" y="1028"/>
    </contour>
    <contour>
      <point x="948" y="356" type="curve"/>
      <point x="1008" y="336"/>
      <point x="1066" y="310"/>
      <point x="1112" y="278" type="curve"/>
      <point x="1022" y="176"/>
      <point x="902" y="100"/>
      <point x="764" y="68" type="curve"/>
      <point x="838" y="148"/>
      <point x="904" y="246"/>
    </contour>
    <contour>
      <point x="298" y="1022" type="curve"/>
      <point x="382" y="998"/>
      <point x="470" y="982"/>
      <point x="558" y="978" type="curve"/>
      <point x="558" y="768" type="line"/>
      <point x="252" y="768" type="line"/>
      <point x="256" y="858"/>
      <point x="272" y="942"/>
    </contour>
    <contour>
      <point x="946" y="696" type="line"/>
      <point x="944" y="606"/>
      <point x="928" y="520"/>
      <point x="902" y="442" type="curve"/>
      <point x="816" y="466"/>
      <point x="726" y="482"/>
      <point x="638" y="484" type="curve"/>
      <point x="638" y="696" type="line"/>
    </contour>
    <contour>
      <point x="436" y="1396" type="curve"/>
      <point x="360" y="1314"/>
      <point x="296" y="1216"/>
      <point x="250" y="1106" type="curve"/>
      <point x="190" y="1128"/>
      <point x="134" y="1154"/>
      <point x="86" y="1186" type="curve"/>
      <point x="176" y="1288"/>
      <point x="298" y="1362"/>
    </contour>
    <contour>
      <point x="1282" y="696" type="line"/>
      <point x="1276" y="560"/>
      <point x="1230" y="436"/>
      <point x="1156" y="332" type="curve"/>
      <point x="1100" y="366"/>
      <point x="1038" y="396"/>
      <point x="972" y="420" type="curve"/>
      <point x="1000" y="504"/>
      <point x="1018" y="598"/>
      <point x="1020" y="696" type="curve"/>
    </contour>
    <contour>
      <point x="558" y="1414" type="curve"/>
      <point x="558" y="1046" type="line"/>
      <point x="480" y="1050"/>
      <point x="398" y="1064"/>
      <point x="320" y="1084" type="curve"/>
      <point x="370" y="1204"/>
      <point x="444" y="1314"/>
      <point x="536" y="1412" type="curve"/>
      <point x="542" y="1414"/>
      <point x="550" y="1414"/>
    </contour>
    <contour>
      <point x="902" y="1022" type="curve"/>
      <point x="928" y="942"/>
      <point x="944" y="858"/>
      <point x="946" y="768" type="curve"/>
      <point x="638" y="768" type="line"/>
      <point x="638" y="978" type="line"/>
      <point x="726" y="980"/>
      <point x="816" y="998"/>
    </contour>
    <contour>
      <point x="638" y="1414" type="line"/>
      <point x="646" y="1414"/>
      <point x="654" y="1414"/>
      <point x="664" y="1412" type="curve"/>
      <point x="754" y="1314"/>
      <point x="828" y="1204"/>
      <point x="878" y="1084" type="curve"/>
      <point x="800" y="1062"/>
      <point x="716" y="1050"/>
      <point x="638" y="1046" type="curve"/>
    </contour>
    <contour>
      <point x="1156" y="1130" type="curve"/>
      <point x="1230" y="1028"/>
      <point x="1276" y="902"/>
      <point x="1282" y="768" type="curve"/>
      <point x="1020" y="768" type="line"/>
      <point x="1018" y="866"/>
      <point x="1000" y="958"/>
      <point x="972" y="1044" type="curve"/>
      <point x="1038" y="1068"/>
      <point x="1100" y="1096"/>
    </contour>
    <contour>
      <point x="764" y="1396" type="curve"/>
      <point x="902" y="1362"/>
      <point x="1022" y="1288"/>
      <point x="1112" y="1186" type="curve"/>
      <point x="1066" y="1154"/>
      <point x="1008" y="1128"/>
      <point x="948" y="1106" type="curve"/>
      <point x="904" y="1216"/>
      <point x="838" y="1314"/>
    </contour>
  </outline>
</glyph>
<glyph name="_part.asterisk" format="2">
  <advance width="1200"/>
  <outline>
    <contour>
      <point x="528" y="1262" type="line"/>
      <point x="548" y="730" type="line"/>
      <point x="48" y="908" type="line"/>
      <point x="-6" y="763" type="line"/>
      <point x="513" y="619" type="line"/>
      <point x="200" y="209" type="line"/>
      <point x="331" y="121" type="line"/>
      <point x="610" y="555" type="line"/>
      <point x="917" y="111" type="line"/>
      <point x="1042" y="211" type="line"/>
      <point x="703" y="620" type="line"/>
      <point x="1206" y="765" type="line"/>
      <point x="1164" y="911" type="line"/>
      <point x="662" y="734" type="line"/>
      <point x="678" y="1262" type="line"/>
    </contour>
  </outline>
</glyph>
<glyph name="_part.greater" format="2">
  <advance width="1200"/>
  <outline>
    <contour>
      <point x="136" y="1151" type="line"/>
      <point x="84" y="1049" type="line"/>
      <point x="906" y="625" type="line"/>
      <point x="84" y="201" type="line"/>
      <point x="139" y="103" type="line"/>
      <point x="1016" y="549" type="line"/>
      <point x="1016" y="702" type="line"/>
    </contour>
  </outline>
</glyph>
<glyph name="_part.less2" format="2">
  <advance width="1200"/>
  <outline>
    <contour>
      <point x="1216" y="1217" type="line"/>
      <point x="387" y="705" type="line"/>
      <point x="387" y="549" type="line"/>
      <point x="1216" y="29" type="line"/>
      <point x="1216" y="169" type="line"/>
      <point x="493" y="625" type="line"/>
      <point x="1216" y="1075" type="line"/>
    </contour>
  </outline>
</glyph>
<glyph name="_part.question" format="2">
  <advance width="1200"/>
  <outline>
    <contour>
      <point x="401" y="1393" type="curve" smooth="yes"/>
      <point x="254" y="1393"/>
      <point x="116" y="1337"/>
      <point x="-1" y="1200" type="curve"/>
      <point x="-47" y="965" type="line"/>
      <point x="163" y="1277"/>
      <point x="327" y="1285"/>
      <point x="388" y="1285" type="curve" smooth="yes"/>
      <point x="535" y="1285"/>
      <point x="647" y="1214"/>
      <point x="647" y="1087" type="curve" smooth="yes"/>
      <point x="647" y="842"/>
      <point x="285" y="843"/>
      <point x="285" y="525" type="curve" smooth="yes"/>
      <point x="285" y="437" type="line"/>
      <point x="419" y="437" type="line"/>
      <point x="419" y="515" type="line" smooth="yes"/>
      <point x="419" y="824"/>
      <point x="776" y="774"/>
      <point x="776" y="1092" type="curve" smooth="yes"/>
      <point x="776" y="1244"/>
      <point x="629" y="1393"/>
    </contour>
    <contour>
      <point x="357" y="220" type="curve" smooth="yes"/>
      <point x="290" y="220"/>
      <point x="239" y="167"/>
      <point x="239" y="102" type="curve" smooth="yes"/>
      <point x="239" y="34"/>
      <point x="290" y="-20"/>
      <point x="357" y="-20" type="curve" smooth="yes"/>
      <point x="428" y="-20"/>
      <point x="479" y="34"/>
      <point x="479" y="102" type="curve" smooth="yes"/>
      <point x="479" y="167"/>
      <point x="428" y="220"/>
    </contour>
  </outline>
</glyph>
<glyph name="asciitilde_asciitilde.liga" format="2">
  <advance width="1200"/>
  <outline>
    <contour>
      <point x="779" y="757" type="line"/>
      <point x="728" y="664"/>
      <point x="660" y="584"/>
      <point x="575" y="584" type="curve" smooth="yes"/>
      <point x="452" y="584"/>
      <point x="396" y="784"/>
      <point x="194" y="784" type="curve" smooth="yes"/>
      <point x="-8" y="784"/>
      <point x="-66" y="584"/>
      <point x="-189" y="584" type="curve" smooth="yes"/>
      <point x="-312" y="584"/>
      <point x="-368" y="784"/>
      <point x="-570" y="784" type="curve" smooth="yes"/>
      <point x="-747" y="784"/>
      <point x="-829" y="649"/>
      <point x="-882" y="547" type="curve"/>
      <point x="-779" y="493" type="line"/>
      <point x="-727" y="589"/>
      <point x="-665" y="666"/>
      <point x="-575" y="666" type="curve" smooth="yes"/>
      <point x="-447" y="666"/>
      <point x="-380" y="466"/>
      <point x="-194" y="466" type="curve" smooth="yes"/>
      <point x="-8" y="466"/>
      <point x="60" y="666"/>
      <point x="189" y="666" type="curve" smooth="yes"/>
      <point x="317" y="666"/>
      <point x="384" y="466"/>
      <point x="570" y="466" type="curve" smooth="yes"/>
      <point x="745" y="466"/>
      <point x="831" y="608"/>
      <point x="882" y="701" type="curve"/>
    </contour>
  </outline>
</glyph>
<glyph name="asterisk.rem" format="2">
  <advance width="1200"/>
  <outline>
    <contour>
      <point x="670" y="1050" type="line"/>
      <point x="531" y="1050" type="line"/>
      <point x="555" y="713" type="line"/>
      <point x="246" y="838" type="line"/>
      <point x="203" y="704" type="line"/>
      <point x="529" y="626" type="line"/>
      <point x="315" y="364" type="line"/>
      <point x="434" y="288" type="line"/>
      <point x="604" y="578" type="line"/>
      <point x="785" y="292" type="line"/>
      <point x="899" y="380" type="line"/>
      <point x="675" y="627" type="line"/>
      <point x="997" y="704" type="line"/>
      <point x="955" y="838" type="line"/>
      <point x="643" y="714" type="line"/>
    </contour>
  </outline>
</glyph>
<glyph name="asterisk_large.rem" format="2">
  <advance width="1200"/>
  <outline>
    <contour>
      <point x="543" y="1152" type="line"/>
      <point x="559" y="714" type="line"/>
      <point x="150" y="860" type="line"/>
      <point x="106" y="742" type="line"/>
      <point x="530" y="625" type="line"/>
      <point x="274" y="288" type="line"/>
      <point x="380" y="220" type="line"/>
      <point x="609" y="574" type="line"/>
      <point x="860" y="211" type="line"/>
      <point x="961" y="292" type="line"/>
      <point x="684" y="626" type="line"/>
      <point x="1097" y="745" type="line"/>
      <point x="1062" y="862" type="line"/>
      <point x="652" y="717" type="line"/>
      <point x="663" y="1152" type="line"/>
    </contour>
  </outline>
</glyph>
<glyph name="bar_bar_bar_greater.liga" format="2">
  <advance width="1200"/>
  <outline>
    <contour>
      <point x="-2476" y="1425" type="line"/>
      <point x="-2600" y="1425" type="line"/>
      <point x="-2600" y="-181" type="line"/>
      <point x="-2476" y="-181" type="line"/>
    </contour>
    <contour>
      <point x="-1556" y="1425" type="line"/>
      <point x="-1680" y="1425" type="line"/>
      <point x="-1680" y="-181" type="line"/>
      <point x="-1556" y="-181" type="line"/>
    </contour>
    <component base="bar_greater.liga" xOffset="-200"/>
  </outline>
</glyph>
<glyph name="bar_bar_equal.liga" format="2">
  <advance width="1200"/>
  <outline>
    <contour>
      <point x="800" y="863" type="line"/>
      <point x="-1077" y="863" type="line"/>
      <point x="-1077" y="748" type="line"/>
      <point x="800" y="748" type="line"/>
    </contour>
    <contour>
      <point x="800" y="496" type="line"/>
      <point x="-1077" y="496" type="line"/>
      <point x="-1077" y="380" type="line"/>
      <point x="800" y="380" type="line"/>
    </contour>
    <component base="_part.bar" xOffset="-1700"/>
    <component base="_part.bar" xOffset="-2400"/>
  </outline>
</glyph>
<glyph name="breve.case" format="2">
  <advance width="1200"/>
  <anchor x="603" y="1374" name="_top"/>
  <outline>
    <contour>
      <point x="597" y="1522" type="curve" smooth="yes"/>
      <point x="733" y="1522"/>
      <point x="870" y="1603"/>
      <point x="885" y="1740" type="curve"/>
      <point x="787" y="1763" type="line"/>
      <point x="758" y="1685"/>
      <point x="692" y="1626"/>
      <point x="597" y="1626" type="curve" smooth="yes"/>
      <point x="502" y="1626"/>
      <point x="444" y="1685"/>
      <point x="416" y="1763" type="curve"/>
      <point x="317" y="1740" type="line"/>
      <point x="332" y="1603"/>
      <point x="464" y="1522"/>
    </contour>
  </outline>
</glyph>
<glyph name="caron.case" format="2">
  <advance width="1200"/>
  <anchor x="600" y="1374" name="_top"/>
  <outline>
    <contour>
      <point x="849" y="1784" type="line"/>
      <point x="600" y="1626" type="line"/>
      <point x="354" y="1784" type="line"/>
      <point x="290" y="1712" type="line"/>
      <point x="557" y="1511" type="line"/>
      <point x="646" y="1511" type="line"/>
      <point x="911" y="1712" type="line"/>
    </contour>
  </outline>
</glyph>
<glyph name="colon.uc" format="2">
  <advance width="1200"/>
  <outline>
    <contour>
      <point x="451" y="289" type="curve" smooth="yes"/>
      <point x="451" y="205"/>
      <point x="514" y="140"/>
      <point x="597" y="140" type="curve" smooth="yes"/>
      <point x="683" y="140"/>
      <point x="747" y="205"/>
      <point x="747" y="289" type="curve" smooth="yes"/>
      <point x="747" y="368"/>
      <point x="683" y="436"/>
      <point x="597" y="436" type="curve" smooth="yes"/>
      <point x="514" y="436"/>
      <point x="451" y="368"/>
    </contour>
    <contour>
      <point x="451" y="1019" type="curve" smooth="yes"/>
      <point x="451" y="937"/>
      <point x="514" y="870"/>
      <point x="597" y="870" type="curve" smooth="yes"/>
      <point x="683" y="870"/>
      <point x="747" y="937"/>
      <point x="747" y="1019" type="curve" smooth="yes"/>
      <point x="747" y="1102"/>
      <point x="683" y="1165"/>
      <point x="597" y="1165" type="curve" smooth="yes"/>
      <point x="514" y="1165"/>
      <point x="451" y="1102"/>
    </contour>
  </outline>
</glyph>
<glyph name="equal_equal_equal.liga" format="2">
  <advance width="1200"/>
  <outline>
    <contour>
      <point x="970" y="1048" type="line"/>
      <point x="-2170" y="1048" type="line"/>
      <point x="-2170" y="934" type="line"/>
      <point x="970" y="934" type="line"/>
    </contour>
    <contour>
      <point x="970" y="313" type="line"/>
      <point x="-2170" y="313" type="line"/>
      <point x="-2170" y="197" type="line"/>
      <point x="970" y="197" type="line"/>
    </contour>
    <contour>
      <point x="970" y="680" type="line"/>
      <point x="-2170" y="680" type="line"/>
      <point x="-2170" y="565" type="line"/>
      <point x="970" y="565" type="line"/>
    </contour>
  </outline>
</glyph>
<glyph name="equal_exclam_equal.liga" format="2">
  <advance width="1200"/>
  <outline>
    <contour>
      <point x="-886" y="863" type="line"/>
      <point x="-2170" y="863" type="line"/>
      <point x="-2170" y="748" type="line"/>
      <point x="-886" y="748" type="line"/>
    </contour>
    <contour>
      <point x="-886" y="496" type="line"/>
      <point x="-2170" y="496" type="line"/>
      <point x="-2170" y="380" type="line"/>
      <point x="-886" y="380" type="line"/>
    </contour>
    <contour>
      <point x="970" y="863" type="line"/>
      <point x="-314" y="863" type="line"/>
      <point x="-314" y="748" type="line"/>
      <point x="970" y="748" type="line"/>
    </contour>
    <contour>
      <point x="970" y="496" type="line"/>
      <point x="-314" y="496" type="line"/>
      <point x="-314" y="380" type="line"/>
      <point x="970" y="380" type="line"/>
    </contour>
    <component base="exclam" xOffset="-1200"/>
  </outline>
</glyph>
<glyph name="five.tosf" format="2">
  <advance width="1200"/>
  <outline>
    <contour>
      <point x="977" y="1120" type="line"/>
      <point x="279" y="1120" type="line"/>
      <point x="279" y="473" type="line"/>
      <point x="391" y="473" type="line"/>
      <point x="460" y="501"/>
      <point x="512" y="519"/>
      <point x="605" y="519" type="curve" smooth="yes"/>
      <point x="764" y="519"/>
      <point x="889" y="446"/>
      <point x="889" y="218" type="curve" smooth="yes"/>
      <point x="889" y="-4"/>
      <point x="773" y="-119"/>
      <point x="587" y="-119" type="curve"/>
      <point x="451" y="-119"/>
      <point x="363" y="-79"/>
      <point x="277" y="10" type="curve"/>
      <point x="197" y="-75" type="line"/>
      <point x="302" y="-172"/>
      <point x="411" y="-228"/>
      <point x="578" y="-228" type="curve"/>
      <point x="844" y="-228"/>
      <point x="1021" y="-52"/>
      <point x="1021" y="210" type="curve" smooth="yes"/>
      <point x="1021" y="475"/>
      <point x="871" y="627"/>
      <point x="631" y="627" type="curve" smooth="yes"/>
      <point x="536" y="627"/>
      <point x="472" y="612"/>
      <point x="398" y="571" type="curve"/>
      <point x="398" y="1013" type="line"/>
      <point x="956" y="1013" type="line"/>
    </contour>
  </outline>
</glyph>
<glyph name="grave.case" format="2">
  <advance width="1200"/>
  <anchor x="596" y="1374" name="_top"/>
  <outline>
    <contour>
      <point x="463" y="1793" type="line"/>
      <point x="377" y="1676" type="line"/>
      <point x="770" y="1514" type="line"/>
      <point x="814" y="1583" type="line"/>
    </contour>
  </outline>
</glyph>
<glyph name="greater_colon.liga" format="2">
  <advance width="1200"/>
  <outline>
    <contour>
      <point x="-870" y="1177" type="line"/>
      <point x="-870" y="1049" type="line"/>
      <point x="-49" y="625" type="line"/>
      <point x="-870" y="201" type="line"/>
      <point x="-870" y="76" type="line"/>
      <point x="61" y="549" type="line"/>
      <point x="61" y="702" type="line"/>
    </contour>
    <component base="colon" yOffset="122"/>
  </outline>
</glyph>
<glyph name="greater_equal.liga" format="2">
  <advance width="1200"/>
  <outline>
    <contour>
      <point x="-569" y="392" type="line"/>
      <point x="-522" y="284" type="line"/>
      <point x="571" y="770" type="line"/>
      <point x="525" y="872" type="line"/>
    </contour>
    <contour>
      <point x="-541" y="-55" type="line"/>
      <point x="-494" y="-163" type="line"/>
      <point x="600" y="322" type="line"/>
      <point x="554" y="424" type="line"/>
    </contour>
    <contour>
      <point x="-569" y="1290" type="line"/>
      <point x="525" y="810" type="line"/>
      <point x="571" y="770" type="line"/>
      <point x="571" y="912" type="line"/>
      <point x="-522" y="1398" type="line"/>
    </contour>
  </outline>
</glyph>
<glyph name="greater_hyphen_greater.liga" format="2">
  <advance width="1200"/>
  <outline>
    <contour>
      <point x="424" y="1216" type="line"/>
      <point x="340" y="1146" type="line"/>
      <point x="683" y="770" type="line" smooth="yes"/>
      <point x="729" y="718"/>
      <point x="728" y="715"/>
      <point x="777" y="684" type="curve"/>
      <point x="-1623" y="684" type="line"/>
      <point x="-1623" y="568" type="line"/>
      <point x="779" y="568" type="line"/>
      <point x="740" y="544"/>
      <point x="710" y="511"/>
      <point x="683" y="482" type="curve" smooth="yes"/>
      <point x="340" y="106" type="line"/>
      <point x="424" y="36" type="line"/>
      <point x="949" y="626" type="line"/>
    </contour>
    <component base="_part.arrowhead" xOffset="-2400"/>
  </outline>
</glyph>
<glyph name="hyphen.rem" format="2">
  <advance width="1200"/>
  <outline>
    <contour>
      <point x="259" y="568" type="line"/>
      <point x="941" y="568" type="line"/>
      <point x="941" y="684" type="line"/>
      <point x="259" y="684" type="line"/>
    </contour>
  </outline>
</glyph>
<glyph name="hyphen_hyphen_greater.liga" format="2">
  <advance width="1200"/>
  <outline>
    <contour>
      <point x="415" y="1216" type="line"/>
      <point x="315" y="1132" type="line"/>
      <point x="644" y="770" type="line" smooth="yes"/>
      <point x="690" y="718"/>
      <point x="690" y="715"/>
      <point x="738" y="684" type="curve"/>
      <point x="-2141" y="684" type="line"/>
      <point x="-2141" y="568" type="line"/>
      <point x="740" y="568" type="line"/>
      <point x="701" y="544"/>
      <point x="671" y="511"/>
      <point x="644" y="482" type="curve" smooth="yes"/>
      <point x="315" y="120" type="line"/>
      <point x="415" y="36" type="line"/>
      <point x="941" y="626" type="line"/>
    </contour>
  </outline>
</glyph>
<glyph name="hyphen_hyphen_hyphen.liga" format="2">
  <advance width="1200"/>
  <outline>
    <contour>
      <point x="-2023" y="568" type="line"/>
      <point x="-1182" y="568" type="line"/>
      <point x="-1182" y="684" type="line"/>
      <point x="-2023" y="684" type="line"/>
    </contour>
    <contour>
      <point x="-1021" y="568" type="line"/>
      <point x="-179" y="568" type="line"/>
      <point x="-179" y="684" type="line"/>
      <point x="-1021" y="684" type="line"/>
    </contour>
    <contour>
      <point x="-18" y="568" type="line"/>
      <point x="823" y="568" type="line"/>
      <point x="823" y="684" type="line"/>
      <point x="-18" y="684" type="line"/>
    </contour>
  </outline>
</glyph>
<glyph name="less_bar_greater.liga" format="2">
  <advance width="1200"/>
  <outline>
    <contour>
      <point x="-892" y="1275" type="line"/>
      <point x="-1813" y="705" type="line"/>
      <point x="-1813" y="549" type="line"/>
      <point x="-892" y="-27" type="line"/>
      <point x="-892" y="113" type="line"/>
      <point x="-1707" y="625" type="line"/>
      <point x="-892" y="1133" type="line"/>
    </contour>
    <contour>
      <point x="-310" y="1274" type="line"/>
      <point x="-310" y="1138" type="line"/>
      <point x="510" y="625" type="line"/>
      <point x="-310" y="115" type="line"/>
      <point x="-310" y="-30" type="line"/>
      <point x="616" y="549" type="line"/>
      <point x="616" y="705" type="line"/>
    </contour>
    <component base="_part.bar" xOffset="-1200"/>
  </outline>
</glyph>
<glyph name="less_dollar_greater.liga" format="2">
  <advance width="1200"/>
  <outline>
    <contour>
      <point x="-511" y="1692" type="line"/>
      <point x="-638" y="1692" type="line"/>
      <point x="-638" y="1386" type="line"/>
      <point x="-883" y="1363"/>
      <point x="-993" y="1208"/>
      <point x="-993" y="1065" type="curve" smooth="yes"/>
      <point x="-993" y="881"/>
      <point x="-856" y="765"/>
      <point x="-638" y="692" type="curve"/>
      <point x="-638" y="16" type="line"/>
      <point x="-773" y="4"/>
      <point x="-872" y="16"/>
      <point x="-1124" y="169" type="curve"/>
      <point x="-1124" y="29" type="line"/>
      <point x="-908" y="-81"/>
      <point x="-804" y="-107"/>
      <point x="-638" y="-95" type="curve"/>
      <point x="-638" y="-301" type="line"/>
      <point x="-511" y="-301" type="line"/>
      <point x="-511" y="-92" type="line"/>
      <point x="-284" y="-56"/>
      <point x="-89" y="89"/>
      <point x="-89" y="351" type="curve" smooth="yes"/>
      <point x="-89" y="608"/>
      <point x="-330" y="730"/>
      <point x="-511" y="788" type="curve"/>
      <point x="-511" y="1296" type="line"/>
      <point x="-406" y="1281"/>
      <point x="-262" y="1241"/>
      <point x="-13" y="1080" type="curve"/>
      <point x="-13" y="1216" type="line"/>
      <point x="-137" y="1295"/>
      <point x="-352" y="1369"/>
      <point x="-511" y="1386" type="curve"/>
    </contour>
    <contour>
      <point x="-511" y="651" type="line"/>
      <point x="-343" y="584"/>
      <point x="-237" y="469"/>
      <point x="-237" y="362" type="curve" smooth="yes"/>
      <point x="-237" y="127"/>
      <point x="-361" y="56"/>
      <point x="-511" y="27" type="curve"/>
    </contour>
    <contour>
      <point x="-638" y="1291" type="curve"/>
      <point x="-638" y="827" type="line"/>
      <point x="-797" y="890"/>
      <point x="-845" y="957"/>
      <point x="-845" y="1057" type="curve" smooth="yes"/>
      <point x="-845" y="1185"/>
      <point x="-756" y="1271"/>
    </contour>
    <contour>
      <point x="-1209" y="1163" type="line"/>
      <point x="-1953" y="705" type="line"/>
      <point x="-1953" y="549" type="line"/>
      <point x="-1124" y="29" type="line"/>
      <point x="-1124" y="169" type="line"/>
      <point x="-1847" y="625" type="line"/>
      <point x="-1230" y="1007" type="line"/>
    </contour>
    <contour>
      <point x="-13" y="1216" type="line"/>
      <point x="-13" y="1080" type="line"/>
      <point x="710" y="625" type="line"/>
      <point x="138" y="275" type="line"/>
      <point x="111" y="102" type="line"/>
      <point x="816" y="549" type="line"/>
      <point x="816" y="705" type="line"/>
    </contour>
  </outline>
</glyph>
<glyph name="less_slash_greater.liga" format="2">
  <advance width="1200"/>
  <outline>
    <contour>
      <point x="-250" y="1364" type="line"/>
      <point x="-314" y="1266" type="line"/>
      <point x="710" y="625" type="line"/>
      <point x="-13" y="173" type="line"/>
      <point x="62" y="76" type="line"/>
      <point x="816" y="549" type="line"/>
      <point x="816" y="705" type="line"/>
    </contour>
    <component base="less_slash.liga" xOffset="-1000"/>
  </outline>
</glyph>
<glyph name="minus.dnom" format="2">
  <advance width="1200"/>
  <outline>
    <contour>
      <point x="819" y="384" type="line"/>
      <point x="381" y="384" type="line"/>
      <point x="381" y="269" type="line"/>
      <point x="819" y="269" type="line"/>
    </contour>
  </outline>
</glyph>
<glyph name="nine.tosf" format="2">
  <advance width="1200"/>
  <outline>
    <contour>
      <point x="575" y="1141" type="curve" smooth="yes"/>
      <point x="339" y="1141"/>
      <point x="147" y="981"/>
      <point x="147" y="721" type="curve"/>
      <point x="147" y="468"/>
      <point x="309" y="289"/>
      <point x="544" y="289" type="curve" smooth="yes"/>
      <point x="702" y="289"/>
      <point x="824" y="358"/>
      <point x="892" y="486" type="curve"/>
      <point x="892" y="627" type="line"/>
      <point x="806" y="463"/>
      <point x="703" y="398"/>
      <point x="555" y="398" type="curve" smooth="yes"/>
      <point x="377" y="398"/>
      <point x="278" y="512"/>
      <point x="278" y="711" type="curve"/>
      <point x="278" y="897"/>
      <point x="377" y="1031"/>
      <point x="576" y="1031" type="curve" smooth="yes"/>
      <point x="787" y="1031"/>
      <point x="875" y="909"/>
      <point x="875" y="545" type="curve"/>
      <point x="875" y="516" type="line"/>
      <point x="875" y="164"/>
      <point x="663" y="-28"/>
      <point x="274" y="-134" type="curve"/>
      <point x="305" y="-234" type="line"/>
      <point x="803" y="-86"/>
      <point x="1006" y="122"/>
      <point x="1006" y="579" type="curve" smooth="yes"/>
      <point x="1006" y="933"/>
      <point x="856" y="1141"/>
    </contour>
  </outline>
</glyph>
<glyph name="numbersign_numbersign.liga" format="2">
  <advance width="1200"/>
  <outline>
    <contour>
      <point x="1083" y="918" type="line"/>
      <point x="1083" y="1026" type="line"/>
      <point x="911" y="1026" type="line"/>
      <point x="961" y="1374" type="line"/>
      <point x="852" y="1374" type="line"/>
      <point x="806" y="1026" type="line"/>
      <point x="482" y="1026" type="line"/>
      <point x="532" y="1374" type="line"/>
      <point x="424" y="1374" type="line"/>
      <point x="377" y="1026" type="line"/>
      <point x="-289" y="1026" type="line"/>
      <point x="-239" y="1374" type="line"/>
      <point x="-348" y="1374" type="line"/>
      <point x="-394" y="1026" type="line"/>
      <point x="-718" y="1026" type="line"/>
      <point x="-668" y="1374" type="line"/>
      <point x="-776" y="1374" type="line"/>
      <point x="-823" y="1026" type="line"/>
      <point x="-1010" y="1026" type="line"/>
      <point x="-1010" y="918" type="line"/>
      <point x="-837" y="918" type="line"/>
      <point x="-900" y="461" type="line"/>
      <point x="-1084" y="461" type="line"/>
      <point x="-1084" y="354" type="line"/>
      <point x="-914" y="354" type="line"/>
      <point x="-962" y="0" type="line"/>
      <point x="-853" y="0" type="line"/>
      <point x="-807" y="354" type="line"/>
      <point x="-486" y="354" type="line"/>
      <point x="-533" y="0" type="line"/>
      <point x="-424" y="0" type="line"/>
      <point x="-380" y="354" type="line"/>
      <point x="286" y="354" type="line"/>
      <point x="238" y="0" type="line"/>
      <point x="347" y="0" type="line"/>
      <point x="393" y="354" type="line"/>
      <point x="714" y="354" type="line"/>
      <point x="667" y="0" type="line"/>
      <point x="776" y="0" type="line"/>
      <point x="820" y="354" type="line"/>
      <point x="1009" y="354" type="line"/>
      <point x="1009" y="461" type="line"/>
      <point x="836" y="461" type="line"/>
      <point x="898" y="918" type="line"/>
    </contour>
    <contour>
      <point x="-471" y="461" type="line"/>
      <point x="-792" y="461" type="line"/>
      <point x="-731" y="918" type="line"/>
      <point x="-408" y="918" type="line"/>
    </contour>
    <contour>
      <point x="300" y="461" type="line"/>
      <point x="-364" y="461" type="line"/>
      <point x="-302" y="918" type="line"/>
      <point x="363" y="918" type="line"/>
    </contour>
    <contour>
      <point x="729" y="461" type="line"/>
      <point x="408" y="461" type="line"/>
      <point x="469" y="918" type="line"/>
      <point x="792" y="918" type="line"/>
    </contour>
  </outline>
</glyph>
<glyph name="numbersign_underscore_parenleft.liga" format="2">
  <advance width="1200"/>
  <outline>
    <contour>
      <point x="-1535" y="-243" type="line"/>
      <point x="-1460" y="354" type="line"/>
      <point x="-1271" y="354" type="line"/>
      <point x="-1271" y="461" type="line"/>
      <point x="-1444" y="461" type="line"/>
      <point x="-1382" y="918" type="line"/>
      <point x="-1197" y="918" type="line"/>
      <point x="-1197" y="1026" type="line"/>
      <point x="-1369" y="1026" type="line"/>
      <point x="-1319" y="1374" type="line"/>
      <point x="-1428" y="1374" type="line"/>
      <point x="-1474" y="1026" type="line"/>
      <point x="-1798" y="1026" type="line"/>
      <point x="-1748" y="1374" type="line"/>
      <point x="-1856" y="1374" type="line"/>
      <point x="-1903" y="1026" type="line"/>
      <point x="-2090" y="1026" type="line"/>
      <point x="-2090" y="918" type="line"/>
      <point x="-1917" y="918" type="line"/>
      <point x="-1980" y="461" type="line"/>
      <point x="-2164" y="461" type="line"/>
      <point x="-2164" y="354" type="line"/>
      <point x="-1994" y="354" type="line"/>
      <point x="-2042" y="0" type="line"/>
      <point x="-1933" y="0" type="line"/>
      <point x="-1887" y="354" type="line"/>
      <point x="-1566" y="354" type="line"/>
      <point x="-1657" y="-360" type="line"/>
      <point x="880" y="-360" type="line"/>
      <point x="827" y="-243" type="line"/>
    </contour>
    <contour>
      <point x="-1872" y="461" type="line"/>
      <point x="-1811" y="918" type="line"/>
      <point x="-1488" y="918" type="line"/>
      <point x="-1551" y="461" type="line"/>
    </contour>
    <contour>
      <point x="397" y="700" type="curve" smooth="yes"/>
      <point x="414" y="1146"/>
      <point x="545" y="1355"/>
      <point x="839" y="1600" type="curve"/>
      <point x="779" y="1670" type="line"/>
      <point x="452" y="1407"/>
      <point x="258" y="1161"/>
      <point x="263" y="700" type="curve" smooth="yes"/>
      <point x="269" y="170"/>
      <point x="553" y="-122"/>
      <point x="883" y="-360" type="curve"/>
      <point x="930" y="-296" type="line"/>
      <point x="646" y="-69"/>
      <point x="380" y="235"/>
    </contour>
  </outline>
</glyph>
<glyph name="one.tosf" format="2">
  <advance width="1200"/>
  <outline>
    <contour>
      <point x="750" y="1121" type="line"/>
      <point x="642" y="1121" type="line"/>
      <point x="236" y="867" type="line"/>
      <point x="293" y="775" type="line"/>
      <point x="622" y="979" type="line"/>
      <point x="622" y="54" type="line"/>
      <point x="750" y="54" type="line"/>
    </contour>
    <contour>
      <point x="1047" y="108" type="line"/>
      <point x="275" y="108" type="line"/>
      <point x="275" y="0" type="line"/>
      <point x="1047" y="0" type="line"/>
    </contour>
  </outline>
</glyph>
<glyph name="parenleft.dnom" format="2">
  <advance width="1200"/>
  <outline>
    <contour>
      <point x="581" y="311" type="curve" smooth="yes"/>
      <point x="581" y="530"/>
      <point x="622" y="631"/>
      <point x="734" y="803" type="curve"/>
      <point x="650" y="842" type="line"/>
      <point x="541" y="683"/>
      <point x="461" y="560"/>
      <point x="461" y="311" type="curve" smooth="yes"/>
      <point x="461" y="63"/>
      <point x="541" y="-60"/>
      <point x="650" y="-218" type="curve"/>
      <point x="734" y="-180" type="line"/>
      <point x="622" y="-8"/>
      <point x="581" y="92"/>
    </contour>
  </outline>
</glyph>
<glyph name="parenright.dnom" format="2">
  <advance width="1200"/>
  <outline>
    <contour>
      <point x="617" y="311" type="curve" smooth="yes"/>
      <point x="617" y="92"/>
      <point x="576" y="-8"/>
      <point x="464" y="-180" type="curve"/>
      <point x="548" y="-218" type="line"/>
      <point x="657" y="-60"/>
      <point x="737" y="63"/>
      <point x="737" y="311" type="curve" smooth="yes"/>
      <point x="737" y="560"/>
      <point x="657" y="683"/>
      <point x="548" y="842" type="curve"/>
      <point x="464" y="803" type="line"/>
      <point x="576" y="631"/>
      <point x="617" y="530"/>
    </contour>
  </outline>
</glyph>
<glyph name="period_period_equal.liga" format="2">
  <advance width="1200"/>
  <outline>
    <contour>
      <point x="970" y="863" type="line"/>
      <point x="-195" y="863" type="line"/>
      <point x="-195" y="748" type="line"/>
      <point x="970" y="748" type="line"/>
    </contour>
    <contour>
      <point x="970" y="496" type="line"/>
      <point x="-195" y="496" type="line"/>
      <point x="-195" y="380" type="line"/>
      <point x="970" y="380" type="line"/>
    </contour>
    <component base="bullet" xOffset="-2400" yOffset="-66"/>
    <component base="bullet" xOffset="-1500" yOffset="-66"/>
  </outline>
</glyph>
<glyph name="plus.dnom" format="2">
  <advance width="1200"/>
  <outline>
    <contour>
      <point x="656" y="574" type="line"/>
      <point x="547" y="574" type="line"/>
      <point x="547" y="388" type="line"/>
      <point x="372" y="388" type="line"/>
      <point x="372" y="277" type="line"/>
      <point x="547" y="277" type="line"/>
      <point x="547" y="92" type="line"/>
      <point x="656" y="92" type="line"/>
      <point x="656" y="277" type="line"/>
      <point x="828" y="277" type="line"/>
      <point x="828" y="388" type="line"/>
      <point x="656" y="388" type="line"/>
    </contour>
  </outline>
</glyph>
<glyph name="three.dnom" format="2">
  <advance width="1200"/>
  <outline>
    <contour>
      <point x="618" y="654" type="curve" smooth="yes"/>
      <point x="519" y="654"/>
      <point x="420" y="628"/>
      <point x="327" y="549" type="curve"/>
      <point x="394" y="475" type="line"/>
      <point x="463" y="532"/>
      <point x="538" y="557"/>
      <point x="613" y="557" type="curve" smooth="yes"/>
      <point x="702" y="557"/>
      <point x="749" y="525"/>
      <point x="749" y="459" type="curve" smooth="yes"/>
      <point x="749" y="390"/>
      <point x="695" y="367"/>
      <point x="606" y="367" type="curve" smooth="yes"/>
      <point x="541" y="367" type="line"/>
      <point x="529" y="295" type="line"/>
      <point x="618" y="295" type="line" smooth="yes"/>
      <point x="718" y="295"/>
      <point x="773" y="267"/>
      <point x="773" y="190" type="curve" smooth="yes"/>
      <point x="773" y="130"/>
      <point x="722" y="87"/>
      <point x="607" y="87" type="curve" smooth="yes"/>
      <point x="529" y="87"/>
      <point x="446" y="115"/>
      <point x="383" y="173" type="curve"/>
      <point x="302" y="107" type="line"/>
      <point x="385" y="21"/>
      <point x="495" y="-12"/>
      <point x="598" y="-12" type="curve" smooth="yes"/>
      <point x="791" y="-12"/>
      <point x="899" y="73"/>
      <point x="899" y="192" type="curve" smooth="yes"/>
      <point x="899" y="290"/>
      <point x="842" y="327"/>
      <point x="728" y="345" type="curve"/>
      <point x="837" y="362"/>
      <point x="872" y="407"/>
      <point x="872" y="476" type="curve" smooth="yes"/>
      <point x="872" y="586"/>
      <point x="775" y="654"/>
    </contour>
  </outline>
</glyph>
<glyph name="three.tosf" format="2">
  <advance width="1200"/>
  <outline>
    <contour>
      <point x="554" y="1141" type="curve" smooth="yes"/>
      <point x="405" y="1141"/>
      <point x="296" y="1093"/>
      <point x="188" y="994" type="curve"/>
      <point x="256" y="908" type="line"/>
      <point x="350" y="996"/>
      <point x="426" y="1030"/>
      <point x="547" y="1030" type="curve" smooth="yes"/>
      <point x="713" y="1030"/>
      <point x="806" y="946"/>
      <point x="806" y="816" type="curve" smooth="yes"/>
      <point x="806" y="652"/>
      <point x="682" y="563"/>
      <point x="521" y="563" type="curve" smooth="yes"/>
      <point x="453" y="563" type="line"/>
      <point x="437" y="451" type="line"/>
      <point x="536" y="451" type="line" smooth="yes"/>
      <point x="729" y="451"/>
      <point x="842" y="369"/>
      <point x="842" y="182" type="curve" smooth="yes"/>
      <point x="842" y="2"/>
      <point x="733" y="-117"/>
      <point x="526" y="-117" type="curve" smooth="yes"/>
      <point x="406" y="-117"/>
      <point x="314" y="-78"/>
      <point x="229" y="20" type="curve"/>
      <point x="144" y="-60" type="line"/>
      <point x="245" y="-178"/>
      <point x="374" y="-228"/>
      <point x="525" y="-228" type="curve" smooth="yes"/>
      <point x="801" y="-228"/>
      <point x="974" y="-55"/>
      <point x="974" y="178" type="curve" smooth="yes"/>
      <point x="974" y="388"/>
      <point x="856" y="496"/>
      <point x="681" y="516" type="curve"/>
      <point x="819" y="545"/>
      <point x="934" y="657"/>
      <point x="934" y="812" type="curve" smooth="yes"/>
      <point x="934" y="981"/>
      <point x="806" y="1141"/>
    </contour>
  </outline>
</glyph>
<glyph name="tonos.case" format="2">
  <advance width="1200"/>
  <anchor x="736" y="1374" name="_topleft"/>
  <outline>
    <contour>
      <point x="552" y="1398" type="line"/>
      <point x="479" y="1017" type="line"/>
      <point x="588" y="1001" type="line"/>
      <point x="721" y="1374" type="line"/>
    </contour>
  </outline>
</glyph>
<glyph name="tsehelper-cy" format="2">
  <advance width="1200"/>
  <anchor x="600" y="0" name="bottom"/>
  <anchor x="1001" y="0" name="bottomright"/>
  <outline>
    <contour>
      <point x="856" y="1050" type="line"/>
      <point x="856" y="112" type="line"/>
      <point x="344" y="112" type="line"/>
      <point x="344" y="1050" type="line"/>
      <point x="219" y="1050" type="line"/>
      <point x="219" y="0" type="line"/>
      <point x="981" y="0" type="line"/>
      <point x="981" y="1050" type="line"/>
    </contour>
  </outline>
</glyph>
<glyph name="zero.tosf.zero" format="2">
  <advance width="1200"/>
  <outline>
    <contour>
      <point x="600" y="1141" type="curve" smooth="yes"/>
      <point x="324" y="1141"/>
      <point x="113" y="940"/>
      <point x="113" y="561" type="curve" smooth="yes"/>
      <point x="113" y="184"/>
      <point x="322" y="-20"/>
      <point x="600" y="-20" type="curve" smooth="yes"/>
      <point x="878" y="-20"/>
      <point x="1087" y="184"/>
      <point x="1087" y="561" type="curve" smooth="yes"/>
      <point x="1087" y="940"/>
      <point x="876" y="1141"/>
    </contour>
    <contour>
      <point x="595" y="690" type="curve" smooth="yes"/>
      <point x="523" y="690"/>
      <point x="469" y="634"/>
      <point x="469" y="564" type="curve" smooth="yes"/>
      <point x="469" y="492"/>
      <point x="523" y="436"/>
      <point x="595" y="436" type="curve" smooth="yes"/>
      <point x="669" y="436"/>
      <point x="723" y="492"/>
      <point x="723" y="564" type="curve" smooth="yes"/>
      <point x="723" y="634"/>
      <point x="669" y="690"/>
    </contour>
    <contour>
      <point x="600" y="1030" type="curve" smooth="yes"/>
      <point x="782" y="1030"/>
      <point x="953" y="905"/>
      <point x="953" y="561" type="curve" smooth="yes"/>
      <point x="953" y="218"/>
      <point x="781" y="91"/>
      <point x="600" y="91" type="curve" smooth="yes"/>
      <point x="419" y="91"/>
      <point x="247" y="220"/>
      <point x="247" y="561" type="curve" smooth="yes"/>
      <point x="247" y="905"/>
      <point x="418" y="1030"/>
    </contour>
  </outline>
</glyph>
<glyph name="zero.zero" format="2">
  <advance width="1200"/>
  <outline>
    <contour>
      <point x="600" y="1393" type="curve" smooth="yes"/>
      <point x="315" y="1393"/>
      <point x="164" y="1143"/>
      <point x="164" y="687" type="curve" smooth="yes"/>
      <point x="164" y="229"/>
      <point x="315" y="-20"/>
      <point x="600" y="-20" type="curve" smooth="yes"/>
      <point x="886" y="-20"/>
      <point x="1036" y="229"/>
      <point x="1036" y="687" type="curve" smooth="yes"/>
      <point x="1036" y="1143"/>
      <point x="886" y="1393"/>
    </contour>
    <contour>
      <point x="600" y="1285" type="curve" smooth="yes"/>
      <point x="787" y="1285"/>
      <point x="900" y="1104"/>
      <point x="900" y="687" type="curve" smooth="yes"/>
      <point x="900" y="268"/>
      <point x="785" y="89"/>
      <point x="600" y="89" type="curve" smooth="yes"/>
      <point x="417" y="89"/>
      <point x="301" y="271"/>
      <point x="301" y="687" type="curve" smooth="yes"/>
      <point x="301" y="1109"/>
      <point x="418" y="1285"/>
    </contour>
    <contour>
      <point x="601" y="820" type="curve" smooth="yes"/>
      <point x="527" y="820"/>
      <point x="471" y="762"/>
      <point x="471" y="690" type="curve" smooth="yes"/>
      <point x="471" y="616"/>
      <point x="527" y="558"/>
      <point x="601" y="558" type="curve" smooth="yes"/>
      <point x="677" y="558"/>
      <point x="733" y="616"/>
      <point x="733" y="690" type="curve" smooth="yes"/>
      <point x="733" y="762"/>
      <point x="677" y="820"/>
    </contour>
  </outline>
</glyph>
